<svg width="50" height="30" viewBox="0 0 50 30" fill="none" xmlns="http://www.w3.org/2000/svg">
<path d="M25 0.416748C23.0661 0.416748 21.2115 1.18498 19.844 2.55243C18.4766 3.91988 17.7083 5.77454 17.7083 7.70841C17.7083 9.64228 18.4766 11.4969 19.844 12.8644C21.2115 14.2319 23.0661 15.0001 25 15.0001C26.9339 15.0001 28.7885 14.2319 30.156 12.8644C31.5234 11.4969 32.2917 9.64228 32.2917 7.70841C32.2917 5.77454 31.5234 3.91988 30.156 2.55243C28.7885 1.18498 26.9339 0.416748 25 0.416748ZM25 4.58341C25.8288 4.58341 26.6237 4.91265 27.2097 5.49871C27.7958 6.08476 28.125 6.87961 28.125 7.70841C28.125 8.53722 27.7958 9.33207 27.2097 9.91812C26.6237 10.5042 25.8288 10.8334 25 10.8334C24.1712 10.8334 23.3763 10.5042 22.7903 9.91812C22.2042 9.33207 21.875 8.53722 21.875 7.70841C21.875 6.87961 22.2042 6.08476 22.7903 5.49871C23.3763 4.91265 24.1712 4.58341 25 4.58341ZM11.4583 6.66675C10.077 6.66675 8.75224 7.21548 7.77549 8.19223C6.79873 9.16899 6.25 10.4937 6.25 11.8751C6.25 13.8334 7.35417 15.5209 8.9375 16.4167C9.6875 16.8334 10.5417 17.0834 11.4583 17.0834C12.375 17.0834 13.2292 16.8334 13.9792 16.4167C14.75 15.9792 15.3958 15.3542 15.875 14.6042C14.3573 12.6263 13.5368 10.2016 13.5417 7.70841V7.12508C12.9167 6.83342 12.2083 6.66675 11.4583 6.66675ZM38.5417 6.66675C37.7917 6.66675 37.0833 6.83342 36.4583 7.12508V7.70841C36.4583 10.2084 35.6458 12.6251 34.125 14.6042C34.375 15.0001 34.6458 15.3126 34.9583 15.6251C35.9191 16.5565 37.2035 17.0793 38.5417 17.0834C39.4583 17.0834 40.3125 16.8334 41.0625 16.4167C42.6458 15.5209 43.75 13.8334 43.75 11.8751C43.75 10.4937 43.2013 9.16899 42.2245 8.19223C41.2478 7.21548 39.923 6.66675 38.5417 6.66675ZM25 19.1667C20.125 19.1667 10.4167 21.6042 10.4167 26.4584V29.5834H39.5833V26.4584C39.5833 21.6042 29.875 19.1667 25 19.1667ZM9.8125 20.3126C5.79167 20.7917 0 22.8334 0 26.4584V29.5834H6.25V25.5626C6.25 23.4584 7.6875 21.7084 9.8125 20.3126ZM40.1875 20.3126C42.3125 21.7084 43.75 23.4584 43.75 25.5626V29.5834H50V26.4584C50 22.8334 44.2083 20.7917 40.1875 20.3126ZM25 23.3334C28.1875 23.3334 31.75 24.3751 33.8125 25.4167H16.1875C18.25 24.3751 21.8125 23.3334 25 23.3334Z" fill="#012245"/>
</svg>
