<svg width="50" height="50" viewBox="0 0 50 50" fill="none" xmlns="http://www.w3.org/2000/svg">
<g clip-path="url(#clip0_5_2007)">
<path d="M26.3374 7.93752C27.1749 7.41668 28.1999 7.32502 29.104 7.66877L29.3999 7.80002L44.9082 15.6354C45.5636 15.9689 46.0814 16.5213 46.3718 17.1969C46.6622 17.8724 46.7068 18.6284 46.4978 19.3333C45.6853 22.1063 45.7749 23.2708 46.3061 24.5854C46.8061 25.825 46.5145 27.3813 45.3478 28.2958L45.0832 28.4833L23.6582 42.0438C22.7603 42.6125 21.6165 42.7 20.6228 42.2146L12.6228 38.2667L9.28113 36.5896L6.90613 35.3771L5.45613 34.6167L4.70613 34.2083L4.16238 33.8958C2.03738 32.6146 1.37488 30.0104 1.38738 28.0208C1.39571 25.9979 2.09155 23.4708 4.0228 22.0833L4.6478 21.6521L6.4353 20.4833L10.6957 17.7625L26.3374 7.9396V7.93752ZM41.7353 22.2667L23.6665 33.7042C23.5207 33.7979 23.3665 33.8771 23.2103 33.9438C22.9811 34.7938 22.902 35.4042 22.9103 35.9708C22.9145 36.3104 22.952 36.6542 23.0249 37.0479L23.1124 37.4583L42.1707 25.3958C41.8984 24.5574 41.751 23.6835 41.7332 22.8021L41.7353 22.2667ZM5.83321 26.4125C5.64513 26.9335 5.55062 27.4836 5.55405 28.0375C5.5478 29.4375 6.0478 30.1688 6.31446 30.3292L6.95613 30.6938L8.2603 31.3875L11.9478 33.2688L18.7707 36.6667C18.754 36.4566 18.7443 36.2461 18.7415 36.0354C18.736 35.0508 18.8622 34.0699 19.1165 33.1188L5.83321 26.4104V26.4125ZM40.5353 18.0958L28.0457 11.7833L13.9624 20.625L9.38321 23.5396L21.9374 29.8729L40.5353 18.0979V18.0958ZM26.279 15.2833C26.5159 14.8308 26.9107 14.4811 27.3885 14.3005C27.8663 14.12 28.3938 14.1213 28.8707 14.3042L29.0915 14.4042L33.4665 16.6958C33.9395 16.9414 34.3003 17.3587 34.475 17.8622C34.6496 18.3656 34.6247 18.9168 34.4053 19.4024C34.186 19.888 33.7889 20.2711 33.2958 20.473C32.8026 20.6748 32.2509 20.68 31.754 20.4875L31.5332 20.3875L27.1582 18.0958C26.9158 17.9689 26.7007 17.7955 26.5253 17.5855C26.35 17.3754 26.2177 17.1329 26.136 16.8717C26.0544 16.6105 26.025 16.3358 26.0495 16.0633C26.0741 15.7908 26.1521 15.5257 26.279 15.2833Z" fill="#012245"/>
</g>
<defs>
<clipPath id="clip0_5_2007">
<rect width="50" height="50" fill="white"/>
</clipPath>
</defs>
</svg>
