<svg width="189" height="52" viewBox="0 0 189 52" fill="none" xmlns="http://www.w3.org/2000/svg">
<path d="M58.6453 23.6919C59.3337 23.8385 59.8866 24.1824 60.3041 24.7236C60.7216 25.2535 60.9304 25.8624 60.9304 26.5501C60.9304 27.5423 60.5806 28.3316 59.8809 28.9179C59.1926 29.4929 58.2278 29.7804 56.9866 29.7804H51.4517V17.9078H56.8004C58.0078 17.9078 58.95 18.1841 59.627 18.7365C60.3154 19.289 60.6595 20.0388 60.6595 20.9859C60.6595 21.685 60.4734 22.2656 60.101 22.7279C59.7399 23.1902 59.2547 23.5115 58.6453 23.6919ZM54.3461 22.711H56.2418C56.7157 22.711 57.0768 22.6095 57.3251 22.4066C57.5846 22.1923 57.7144 21.8823 57.7144 21.4764C57.7144 21.0705 57.5846 20.7604 57.3251 20.5462C57.0768 20.3319 56.7157 20.2248 56.2418 20.2248H54.3461V22.711ZM56.4788 27.4465C56.964 27.4465 57.3364 27.3394 57.5959 27.1252C57.8667 26.8997 58.0021 26.5783 58.0021 26.1611C58.0021 25.744 57.8611 25.417 57.579 25.1802C57.3081 24.9434 56.9301 24.8251 56.4449 24.8251H54.3461V27.4465H56.4788Z" fill="white"/>
<path d="M62.0336 25.0449C62.0336 24.0753 62.2142 23.224 62.5753 22.4911C62.9476 21.7582 63.4498 21.1945 64.0817 20.7999C64.7136 20.4052 65.4189 20.2079 66.1975 20.2079C66.8632 20.2079 67.4444 20.3432 67.9409 20.6138C68.4487 20.8844 68.838 21.2396 69.1088 21.6793V20.3432H72.0032V29.7804H69.1088V28.4443C68.8267 28.8841 68.4317 29.2392 67.924 29.5098C67.4275 29.7804 66.8463 29.9157 66.1806 29.9157C65.4132 29.9157 64.7136 29.7184 64.0817 29.3238C63.4498 28.9179 62.9476 28.3485 62.5753 27.6156C62.2142 26.8715 62.0336 26.0146 62.0336 25.0449ZM69.1088 25.0618C69.1088 24.3402 68.9057 23.7708 68.4995 23.3537C68.1045 22.9365 67.6193 22.7279 67.0438 22.7279C66.4683 22.7279 65.9774 22.9365 65.5712 23.3537C65.1763 23.7596 64.9788 24.3233 64.9788 25.0449C64.9788 25.7665 65.1763 26.3415 65.5712 26.77C65.9774 27.1872 66.4683 27.3958 67.0438 27.3958C67.6193 27.3958 68.1045 27.1872 68.4995 26.77C68.9057 26.3528 69.1088 25.7834 69.1088 25.0618Z" fill="white"/>
<path d="M76.9915 21.9161C77.3301 21.3974 77.7532 20.9915 78.261 20.6984C78.7688 20.394 79.333 20.2417 79.9536 20.2417V23.3029H79.1581C78.4359 23.3029 77.8943 23.4608 77.5332 23.7765C77.1721 24.0809 76.9915 24.6221 76.9915 25.4001V29.7804H74.0972V20.3432H76.9915V21.9161Z" fill="white"/>
<path d="M87.109 29.7804L84.2315 25.8229V29.7804H81.3371V17.2651H84.2315V24.1824L87.092 20.3432H90.6635L86.7366 25.0787L90.6973 29.7804H87.109Z" fill="white"/>
<path d="M91.2248 25.0449C91.2248 24.0753 91.4054 23.224 91.7665 22.4911C92.1388 21.7582 92.641 21.1945 93.2729 20.7999C93.9048 20.4052 94.6101 20.2079 95.3887 20.2079C96.0545 20.2079 96.6356 20.3432 97.1321 20.6138C97.6399 20.8844 98.0292 21.2396 98.3 21.6793V20.3432H101.194V29.7804H98.3V28.4443C98.0179 28.8841 97.6229 29.2392 97.1152 29.5098C96.6187 29.7804 96.0375 29.9157 95.3718 29.9157C94.6044 29.9157 93.9048 29.7184 93.2729 29.3238C92.641 28.9179 92.1388 28.3485 91.7665 27.6156C91.4054 26.8715 91.2248 26.0146 91.2248 25.0449ZM98.3 25.0618C98.3 24.3402 98.0969 23.7708 97.6907 23.3537C97.2957 22.9365 96.8105 22.7279 96.235 22.7279C95.6595 22.7279 95.1686 22.9365 94.7624 23.3537C94.3675 23.7596 94.17 24.3233 94.17 25.0449C94.17 25.7665 94.3675 26.3415 94.7624 26.77C95.1686 27.1872 95.6595 27.3958 96.235 27.3958C96.8105 27.3958 97.2957 27.1872 97.6907 26.77C98.0969 26.3528 98.3 25.7834 98.3 25.0618Z" fill="white"/>
<path d="M115.34 20.2417C116.513 20.2417 117.444 20.5969 118.133 21.3072C118.832 22.0176 119.182 23.0041 119.182 24.2669V29.7804H116.305V24.6559C116.305 24.0471 116.141 23.5792 115.814 23.2522C115.498 22.9139 115.058 22.7448 114.494 22.7448C113.929 22.7448 113.484 22.9139 113.156 23.2522C112.84 23.5792 112.682 24.0471 112.682 24.6559V29.7804H109.805V24.6559C109.805 24.0471 109.641 23.5792 109.314 23.2522C108.998 22.9139 108.558 22.7448 107.994 22.7448C107.43 22.7448 106.984 22.9139 106.657 23.2522C106.341 23.5792 106.183 24.0471 106.183 24.6559V29.7804H103.288V20.3432H106.183V21.5271C106.476 21.1325 106.86 20.8224 107.334 20.5969C107.808 20.3601 108.344 20.2417 108.942 20.2417C109.653 20.2417 110.285 20.394 110.837 20.6984C111.402 21.0028 111.842 21.4369 112.158 22.0007C112.485 21.482 112.931 21.0592 113.495 20.7322C114.059 20.4052 114.674 20.2417 115.34 20.2417Z" fill="white"/>
<path d="M125.506 29.9157C124.58 29.9157 123.745 29.7184 123.001 29.3238C122.267 28.9292 121.686 28.3654 121.257 27.6325C120.84 26.8997 120.631 26.0428 120.631 25.0618C120.631 24.0922 120.845 23.2409 121.274 22.508C121.703 21.7639 122.29 21.1945 123.034 20.7999C123.779 20.4052 124.614 20.2079 125.54 20.2079C126.465 20.2079 127.3 20.4052 128.045 20.7999C128.789 21.1945 129.376 21.7639 129.805 22.508C130.234 23.2409 130.448 24.0922 130.448 25.0618C130.448 26.0315 130.228 26.8884 129.788 27.6325C129.359 28.3654 128.767 28.9292 128.011 29.3238C127.266 29.7184 126.431 29.9157 125.506 29.9157ZM125.506 27.4127C126.059 27.4127 126.527 27.2097 126.911 26.8038C127.306 26.3979 127.503 25.8173 127.503 25.0618C127.503 24.3064 127.311 23.7257 126.927 23.3198C126.555 22.9139 126.092 22.711 125.54 22.711C124.975 22.711 124.507 22.9139 124.135 23.3198C123.762 23.7145 123.576 24.2951 123.576 25.0618C123.576 25.8173 123.757 26.3979 124.118 26.8038C124.49 27.2097 124.953 27.4127 125.506 27.4127Z" fill="white"/>
<path d="M134.878 17.2651V29.7804H131.984V17.2651H134.878Z" fill="white"/>
<path d="M147.959 27.6833H143.525L142.814 29.7804H139.784L144.083 17.9078H147.435L151.734 29.7804H148.67L147.959 27.6833ZM147.215 25.4508L145.742 21.1043L144.286 25.4508H147.215Z" fill="white"/>
<path d="M157.291 27.0744L159.339 20.3432H162.419L159.068 29.7804H155.497L152.145 20.3432H155.243L157.291 27.0744Z" fill="white"/>
<path d="M166.532 17.2651V29.7804H163.638V17.2651H166.532Z" fill="white"/>
<path d="M172.929 29.9157C172.004 29.9157 171.169 29.7184 170.424 29.3238C169.69 28.9292 169.109 28.3654 168.68 27.6325C168.263 26.8997 168.054 26.0428 168.054 25.0618C168.054 24.0922 168.269 23.2409 168.697 22.508C169.126 21.7639 169.713 21.1945 170.458 20.7999C171.202 20.4052 172.038 20.2079 172.963 20.2079C173.888 20.2079 174.723 20.4052 175.468 20.7999C176.213 21.1945 176.799 21.7639 177.228 22.508C177.657 23.2409 177.871 24.0922 177.871 25.0618C177.871 26.0315 177.651 26.8884 177.211 27.6325C176.783 28.3654 176.19 28.9292 175.434 29.3238C174.689 29.7184 173.854 29.9157 172.929 29.9157ZM172.929 27.4127C173.482 27.4127 173.95 27.2097 174.334 26.8038C174.729 26.3979 174.926 25.8173 174.926 25.0618C174.926 24.3064 174.734 23.7257 174.351 23.3198C173.978 22.9139 173.516 22.711 172.963 22.711C172.399 22.711 171.93 22.9139 171.558 23.3198C171.186 23.7145 170.999 24.2951 170.999 25.0618C170.999 25.8173 171.18 26.3979 171.541 26.8038C171.913 27.2097 172.376 27.4127 172.929 27.4127Z" fill="white"/>
<path d="M178.831 25.0449C178.831 24.0753 179.012 23.224 179.373 22.4911C179.745 21.7582 180.248 21.1945 180.88 20.7999C181.511 20.4052 182.217 20.2079 182.995 20.2079C183.616 20.2079 184.18 20.3376 184.688 20.5969C185.207 20.8562 185.613 21.2058 185.907 21.6455V17.2651H188.801V29.7804H185.907V28.4274C185.636 28.8784 185.247 29.2392 184.739 29.5098C184.242 29.7804 183.661 29.9157 182.995 29.9157C182.217 29.9157 181.511 29.7184 180.88 29.3238C180.248 28.9179 179.745 28.3485 179.373 27.6156C179.012 26.8715 178.831 26.0146 178.831 25.0449ZM185.907 25.0618C185.907 24.3402 185.704 23.7708 185.297 23.3537C184.902 22.9365 184.417 22.7279 183.842 22.7279C183.266 22.7279 182.775 22.9365 182.369 23.3537C181.974 23.7596 181.777 24.3233 181.777 25.0449C181.777 25.7665 181.974 26.3415 182.369 26.77C182.775 27.1872 183.266 27.3958 183.842 27.3958C184.417 27.3958 184.902 27.1872 185.297 26.77C185.704 26.3528 185.907 25.7834 185.907 25.0618Z" fill="white"/>
<path d="M58.4819 38.6596C59.1545 38.8048 59.6949 39.1455 60.1029 39.6816C60.511 40.2066 60.715 40.8098 60.715 41.4911C60.715 42.474 60.3731 43.2559 59.6894 43.8367C59.0167 44.4064 58.0738 44.6912 56.8608 44.6912H51.4517V32.9297H56.6788C57.8588 32.9297 58.7796 33.2033 59.4413 33.7506C60.114 34.2979 60.4503 35.0407 60.4503 35.979C60.4503 36.6715 60.2684 37.2467 59.9044 37.7046C59.5515 38.1626 59.0774 38.4809 58.4819 38.6596ZM54.2803 37.6879H56.1329C56.5961 37.6879 56.949 37.5874 57.1916 37.3863C57.4452 37.1741 57.5721 36.8669 57.5721 36.4648C57.5721 36.0627 57.4452 35.7556 57.1916 35.5433C56.949 35.3311 56.5961 35.225 56.1329 35.225H54.2803V37.6879ZM56.3645 42.3791C56.8387 42.3791 57.2026 42.273 57.4563 42.0608C57.7209 41.8374 57.8533 41.519 57.8533 41.1058C57.8533 40.6925 57.7154 40.3686 57.4397 40.134C57.1751 39.8995 56.8056 39.7822 56.3314 39.7822H54.2803V42.3791H56.3645Z" fill="white"/>
<path d="M66.5571 44.8252C65.6529 44.8252 64.8368 44.6297 64.109 44.2388C63.3922 43.8479 62.8243 43.2894 62.4052 42.5634C61.9972 41.8374 61.7932 40.9885 61.7932 40.0167C61.7932 39.0562 62.0027 38.2129 62.4217 37.4868C62.8408 36.7496 63.4142 36.1856 64.1421 35.7947C64.8699 35.4037 65.686 35.2083 66.5902 35.2083C67.4945 35.2083 68.3106 35.4037 69.0384 35.7947C69.7662 36.1856 70.3397 36.7496 70.7587 37.4868C71.1778 38.2129 71.3873 39.0562 71.3873 40.0167C71.3873 40.9773 71.1723 41.8262 70.7422 42.5634C70.3231 43.2894 69.7442 43.8479 69.0053 44.2388C68.2775 44.6297 67.4614 44.8252 66.5571 44.8252ZM66.5571 42.3456C67.0975 42.3456 67.5552 42.1445 67.9301 41.7424C68.3161 41.3403 68.5091 40.7651 68.5091 40.0167C68.5091 39.2684 68.3216 38.6931 67.9466 38.291C67.5827 37.8889 67.1306 37.6879 66.5902 37.6879C66.0388 37.6879 65.5812 37.8889 65.2173 38.291C64.8534 38.682 64.6714 39.2572 64.6714 40.0167C64.6714 40.7651 64.8478 41.3403 65.2007 41.7424C65.5646 42.1445 66.0168 42.3456 66.5571 42.3456Z" fill="white"/>
<path d="M75.7166 32.293V44.6912H72.8879V32.293H75.7166Z" fill="white"/>
<path d="M77.204 40C77.204 39.0394 77.3805 38.1961 77.7334 37.4701C78.0973 36.7441 78.588 36.1856 79.2056 35.7947C79.8231 35.4037 80.5123 35.2083 81.2733 35.2083C81.9239 35.2083 82.4918 35.3423 82.9771 35.6104C83.4733 35.8784 83.8538 36.2303 84.1184 36.6659V35.3423H86.947V44.6912H84.1184V43.3676C83.8427 43.8032 83.4568 44.155 82.9605 44.4231C82.4753 44.6912 81.9074 44.8252 81.2567 44.8252C80.5068 44.8252 79.8231 44.6297 79.2056 44.2388C78.588 43.8367 78.0973 43.2726 77.7334 42.5466C77.3805 41.8094 77.204 40.9606 77.204 40ZM84.1184 40.0167C84.1184 39.3019 83.9199 38.7378 83.5229 38.3245C83.137 37.9113 82.6628 37.7046 82.1003 37.7046C81.5379 37.7046 81.0582 37.9113 80.6612 38.3245C80.2752 38.7267 80.0823 39.2851 80.0823 40C80.0823 40.7148 80.2752 41.2845 80.6612 41.7089C81.0582 42.1222 81.5379 42.3288 82.1003 42.3288C82.6628 42.3288 83.137 42.1222 83.5229 41.7089C83.9199 41.2956 84.1184 40.7316 84.1184 40.0167Z" fill="white"/>
<path d="M91.822 32.293V44.6912H88.9934V32.293H91.822Z" fill="white"/>
<path d="M93.3095 40C93.3095 39.0394 93.4859 38.1961 93.8388 37.4701C94.2028 36.7441 94.6935 36.1856 95.311 35.7947C95.9286 35.4037 96.6178 35.2083 97.3787 35.2083C98.0294 35.2083 98.5973 35.3423 99.0825 35.6104C99.5788 35.8784 99.9592 36.2303 100.224 36.6659V35.3423H103.053V44.6912H100.224V43.3676C99.9482 43.8032 99.5622 44.155 99.066 44.4231C98.5808 44.6912 98.0128 44.8252 97.3622 44.8252C96.6123 44.8252 95.9286 44.6297 95.311 44.2388C94.6935 43.8367 94.2028 43.2726 93.8388 42.5466C93.4859 41.8094 93.3095 40.9606 93.3095 40ZM100.224 40.0167C100.224 39.3019 100.025 38.7378 99.6284 38.3245C99.2424 37.9113 98.7682 37.7046 98.2058 37.7046C97.6434 37.7046 97.1637 37.9113 96.7667 38.3245C96.3807 38.7267 96.1877 39.2851 96.1877 40C96.1877 40.7148 96.3807 41.2845 96.7667 41.7089C97.1637 42.1222 97.6434 42.3288 98.2058 42.3288C98.7682 42.3288 99.2424 42.1222 99.6284 41.7089C100.025 41.2956 100.224 40.7316 100.224 40.0167Z" fill="white"/>
<path d="M107.928 36.9004C108.258 36.3866 108.672 35.9845 109.168 35.6941C109.664 35.3926 110.216 35.2418 110.822 35.2418V38.2743H110.045C109.339 38.2743 108.81 38.4307 108.457 38.7434C108.104 39.045 107.928 39.5811 107.928 40.3518V44.6912H105.099V35.3423H107.928V36.9004Z" fill="white"/>
<path d="M128.83 32.9297V44.6912H126.002V37.6376L123.405 44.6912H121.122L118.508 37.6209V44.6912H115.68V32.9297H119.021L122.28 41.0723L125.505 32.9297H128.83Z" fill="white"/>
<path d="M130.302 40C130.302 39.0394 130.478 38.1961 130.831 37.4701C131.195 36.7441 131.686 36.1856 132.304 35.7947C132.921 35.4037 133.61 35.2083 134.371 35.2083C135.022 35.2083 135.59 35.3423 136.075 35.6104C136.571 35.8784 136.952 36.2303 137.216 36.6659V35.3423H140.045V44.6912H137.216V43.3676C136.941 43.8032 136.555 44.155 136.059 44.4231C135.573 44.6912 135.005 44.8252 134.355 44.8252C133.605 44.8252 132.921 44.6297 132.304 44.2388C131.686 43.8367 131.195 43.2726 130.831 42.5466C130.478 41.8094 130.302 40.9606 130.302 40ZM137.216 40.0167C137.216 39.3019 137.018 38.7378 136.621 38.3245C136.235 37.9113 135.761 37.7046 135.198 37.7046C134.636 37.7046 134.156 37.9113 133.759 38.3245C133.373 38.7267 133.18 39.2851 133.18 40C133.18 40.7148 133.373 41.2845 133.759 41.7089C134.156 42.1222 134.636 42.3288 135.198 42.3288C135.761 42.3288 136.235 42.1222 136.621 41.7089C137.018 41.2956 137.216 40.7316 137.216 40.0167Z" fill="white"/>
<path d="M147.732 44.6912L144.92 40.7707V44.6912H142.091V32.293H144.92V39.1455L147.716 35.3423H151.206L147.368 40.0335L151.239 44.6912H147.732Z" fill="white"/>
<path d="M157.461 42.2618V44.6912H156.022C154.997 44.6912 154.197 44.4399 153.624 43.9372C153.05 43.4234 152.764 42.5913 152.764 41.4408V37.7214H151.639V35.3423H152.764V33.0637H155.592V35.3423H157.445V37.7214H155.592V41.4744C155.592 41.7536 155.658 41.9546 155.791 42.0775C155.923 42.2004 156.144 42.2618 156.452 42.2618H157.461Z" fill="white"/>
<path d="M158.475 40C158.475 39.0394 158.651 38.1961 159.004 37.4701C159.368 36.7441 159.858 36.1856 160.476 35.7947C161.094 35.4037 161.783 35.2083 162.544 35.2083C163.194 35.2083 163.762 35.3423 164.248 35.6104C164.744 35.8784 165.124 36.2303 165.389 36.6659V35.3423H168.218V44.6912H165.389V43.3676C165.113 43.8032 164.727 44.155 164.231 44.4231C163.746 44.6912 163.178 44.8252 162.527 44.8252C161.777 44.8252 161.094 44.6297 160.476 44.2388C159.858 43.8367 159.368 43.2726 159.004 42.5466C158.651 41.8094 158.475 40.9606 158.475 40ZM165.389 40.0167C165.389 39.3019 165.19 38.7378 164.793 38.3245C164.407 37.9113 163.933 37.7046 163.371 37.7046C162.808 37.7046 162.329 37.9113 161.932 38.3245C161.546 38.7267 161.353 39.2851 161.353 40C161.353 40.7148 161.546 41.2845 161.932 41.7089C162.329 42.1222 162.808 42.3288 163.371 42.3288C163.933 42.3288 164.407 42.1222 164.793 41.7089C165.19 41.2956 165.389 40.7316 165.389 40.0167Z" fill="white"/>
<path d="M173.093 36.6659C173.357 36.2303 173.738 35.8784 174.234 35.6104C174.73 35.3423 175.298 35.2083 175.938 35.2083C176.699 35.2083 177.388 35.4037 178.005 35.7947C178.623 36.1856 179.108 36.7441 179.461 37.4701C179.825 38.1961 180.007 39.0394 180.007 40C180.007 40.9606 179.825 41.8094 179.461 42.5466C179.108 43.2726 178.623 43.8367 178.005 44.2388C177.388 44.6297 176.699 44.8252 175.938 44.8252C175.287 44.8252 174.719 44.6968 174.234 44.4399C173.749 44.1718 173.368 43.82 173.093 43.3843V44.6912H170.264V32.293H173.093V36.6659ZM177.129 40C177.129 39.2851 176.93 38.7267 176.533 38.3245C176.147 37.9113 175.668 37.7046 175.094 37.7046C174.532 37.7046 174.052 37.9113 173.655 38.3245C173.269 38.7378 173.076 39.3019 173.076 40.0167C173.076 40.7316 173.269 41.2956 173.655 41.7089C174.052 42.1222 174.532 42.3288 175.094 42.3288C175.656 42.3288 176.136 42.1222 176.533 41.7089C176.93 41.2845 177.129 40.7148 177.129 40Z" fill="white"/>
<path d="M182.913 34.3705C182.417 34.3705 182.009 34.2253 181.689 33.9349C181.381 33.6334 181.226 33.2648 181.226 32.8291C181.226 32.3824 181.381 32.0138 181.689 31.7234C182.009 31.4218 182.417 31.271 182.913 31.271C183.399 31.271 183.796 31.4218 184.104 31.7234C184.424 32.0138 184.584 32.3824 184.584 32.8291C184.584 33.2648 184.424 33.6334 184.104 33.9349C183.796 34.2253 183.399 34.3705 182.913 34.3705ZM184.32 35.3423V44.6912H181.491V35.3423H184.32Z" fill="white"/>
<path d="M57.0599 7.53429V8.41217H54.8023V15.8029H53.7211V8.41217H51.4517V7.53429H57.0599Z" fill="white"/>
<path d="M61.2306 15.9097C60.6206 15.9097 60.0661 15.7713 59.5671 15.4945C59.076 15.2177 58.6879 14.8262 58.4027 14.32C58.1254 13.806 57.9868 13.2128 57.9868 12.5406C57.9868 11.8762 58.1294 11.291 58.4146 10.7848C58.7077 10.2707 59.1037 9.87925 59.6027 9.61035C60.1018 9.33354 60.6602 9.19514 61.2781 9.19514C61.8959 9.19514 62.4544 9.33354 62.9534 9.61035C63.4524 9.87925 63.8445 10.2668 64.1297 10.7729C64.4228 11.2791 64.5693 11.8683 64.5693 12.5406C64.5693 13.2128 64.4188 13.806 64.1178 14.32C63.8247 14.8262 63.4247 15.2177 62.9178 15.4945C62.4108 15.7713 61.8484 15.9097 61.2306 15.9097ZM61.2306 14.9607C61.6187 14.9607 61.9831 14.8697 62.3237 14.6878C62.6643 14.5059 62.9376 14.233 63.1435 13.8692C63.3574 13.5054 63.4643 13.0625 63.4643 12.5406C63.4643 12.0186 63.3614 11.5757 63.1554 11.2119C62.9494 10.8481 62.6801 10.5792 62.3474 10.4052C62.0147 10.2233 61.6543 10.1323 61.2662 10.1323C60.8701 10.1323 60.5058 10.2233 60.1731 10.4052C59.8483 10.5792 59.5869 10.8481 59.3889 11.2119C59.1908 11.5757 59.0918 12.0186 59.0918 12.5406C59.0918 13.0705 59.1869 13.5173 59.377 13.8811C59.575 14.2449 59.8364 14.5178 60.1612 14.6997C60.486 14.8737 60.8424 14.9607 61.2306 14.9607Z" fill="white"/>
<path d="M68.296 15.9097C67.797 15.9097 67.3495 15.8267 66.9534 15.6606C66.5573 15.4866 66.2444 15.2493 66.0147 14.9488C65.785 14.6403 65.6583 14.2884 65.6345 13.893H66.7514C66.7831 14.2172 66.9336 14.4822 67.2029 14.6878C67.4802 14.8934 67.8406 14.9962 68.2842 14.9962C68.6961 14.9962 69.0208 14.9053 69.2585 14.7234C69.4961 14.5415 69.6149 14.3121 69.6149 14.0353C69.6149 13.7506 69.4882 13.541 69.2347 13.4066C68.9812 13.2642 68.5891 13.1258 68.0584 12.9914C67.5752 12.8648 67.1791 12.7383 66.8702 12.6117C66.5692 12.4773 66.3078 12.2835 66.086 12.0304C65.8722 11.7695 65.7652 11.4294 65.7652 11.0102C65.7652 10.678 65.8642 10.3735 66.0623 10.0967C66.2603 9.81993 66.5415 9.60244 66.9059 9.44426C67.2702 9.27818 67.6861 9.19514 68.1535 9.19514C68.8743 9.19514 69.4565 9.37704 69.9001 9.74084C70.3437 10.1046 70.5813 10.6029 70.613 11.2356H69.5317C69.508 10.8955 69.3694 10.6227 69.1159 10.417C68.8703 10.2114 68.5376 10.1086 68.1178 10.1086C67.7297 10.1086 67.4207 10.1916 67.191 10.3577C66.9613 10.5238 66.8465 10.7413 66.8465 11.0102C66.8465 11.2237 66.9138 11.4017 67.0484 11.5441C67.191 11.6785 67.3653 11.7892 67.5712 11.8762C67.7851 11.9553 68.0782 12.0463 68.4505 12.1491C68.9178 12.2756 69.2981 12.4022 69.5911 12.5287C69.8842 12.6473 70.1337 12.8292 70.3397 13.0744C70.5536 13.3196 70.6645 13.6399 70.6724 14.0353C70.6724 14.3912 70.5734 14.7115 70.3753 14.9962C70.1773 15.281 69.8961 15.5064 69.5317 15.6724C69.1753 15.8306 68.7634 15.9097 68.296 15.9097Z" fill="white"/>
<path d="M75.4306 9.18327C75.9217 9.18327 76.3653 9.29004 76.7613 9.50358C77.1574 9.70921 77.4663 10.0216 77.6881 10.4408C77.9178 10.8599 78.0327 11.3701 78.0327 11.9711V15.8029H76.9633V12.1253C76.9633 11.4768 76.8009 10.9825 76.4762 10.6424C76.1514 10.2945 75.7078 10.1205 75.1454 10.1205C74.5751 10.1205 74.1196 10.2984 73.779 10.6543C73.4463 11.0102 73.28 11.5282 73.28 12.2084V15.8029H72.1987V7.02417H73.28V10.2272C73.4938 9.89507 73.7869 9.63803 74.1592 9.45613C74.5394 9.27422 74.9632 9.18327 75.4306 9.18327Z" fill="white"/>
<path d="M83.4347 15.8029L80.8801 12.932V15.8029H79.7989V7.02417H80.8801V12.1847L83.3872 9.30191H84.8962L81.8307 12.5406L84.9081 15.8029H83.4347Z" fill="white"/>
<path d="M91.8547 12.3033C91.8547 12.5089 91.8428 12.7264 91.8191 12.9558H86.6149C86.6545 13.5964 86.8723 14.0986 87.2684 14.4624C87.6723 14.8183 88.1595 14.9962 88.7298 14.9962C89.1972 14.9962 89.5853 14.8895 89.8942 14.6759C90.2111 14.4545 90.4329 14.1619 90.5596 13.7981H91.724C91.5498 14.4229 91.2012 14.933 90.6784 15.3284C90.1556 15.7159 89.5061 15.9097 88.7298 15.9097C88.112 15.9097 87.5575 15.7713 87.0664 15.4945C86.5832 15.2177 86.203 14.8262 85.9257 14.32C85.6485 13.806 85.5099 13.2128 85.5099 12.5406C85.5099 11.8683 85.6445 11.2791 85.9138 10.7729C86.1832 10.2668 86.5594 9.87925 87.0426 9.61035C87.5337 9.33354 88.0961 9.19514 88.7298 9.19514C89.3477 9.19514 89.8942 9.32959 90.3695 9.59849C90.8448 9.86738 91.2092 10.2391 91.4626 10.7136C91.724 11.1802 91.8547 11.7101 91.8547 12.3033ZM90.7378 12.0779C90.7378 11.6666 90.6467 11.3147 90.4646 11.0221C90.2824 10.7215 90.0329 10.4961 89.716 10.3459C89.4071 10.1877 89.0625 10.1086 88.6823 10.1086C88.1357 10.1086 87.6684 10.2826 87.2802 10.6306C86.9 10.9786 86.6822 11.461 86.6267 12.0779H90.7378Z" fill="white"/>
<path d="M96.4544 9.18327C97.2465 9.18327 97.8881 9.42449 98.3792 9.90693C98.8703 10.3815 99.1159 11.0695 99.1159 11.9711V15.8029H98.0465V12.1253C98.0465 11.4768 97.8841 10.9825 97.5594 10.6424C97.2346 10.2945 96.791 10.1205 96.2286 10.1205C95.6583 10.1205 95.2028 10.2984 94.8622 10.6543C94.5295 11.0102 94.3632 11.5282 94.3632 12.2084V15.8029H93.2819V9.30191H94.3632V10.2272C94.577 9.89507 94.8662 9.63803 95.2305 9.45613C95.6028 9.27422 96.0108 9.18327 96.4544 9.18327Z" fill="white"/>
<path d="M102.201 10.1916V14.0235C102.201 14.3398 102.268 14.5652 102.403 14.6997C102.538 14.8262 102.771 14.8895 103.104 14.8895H103.9V15.8029H102.926C102.324 15.8029 101.872 15.6645 101.571 15.3877C101.27 15.1109 101.12 14.6562 101.12 14.0235V10.1916H100.276V9.30191H101.12V7.66478H102.201V9.30191H103.9V10.1916H102.201Z" fill="white"/>
<path d="M111.004 15.886C110.457 15.886 109.966 15.7911 109.53 15.6013C109.103 15.4035 108.766 15.1346 108.52 14.7946C108.275 14.4466 108.148 14.0472 108.14 13.5964H109.293C109.332 13.9839 109.491 14.3121 109.768 14.581C110.053 14.842 110.465 14.9725 111.004 14.9725C111.519 14.9725 111.923 14.846 112.216 14.5929C112.517 14.3319 112.667 13.9997 112.667 13.5964C112.667 13.28 112.58 13.023 112.406 12.8253C112.231 12.6276 112.014 12.4773 111.752 12.3745C111.491 12.2717 111.138 12.1609 110.695 12.0423C110.148 11.8999 109.709 11.7576 109.376 11.6152C109.051 11.4729 108.77 11.2514 108.532 10.9509C108.303 10.6424 108.188 10.2312 108.188 9.71712C108.188 9.26632 108.303 8.86692 108.532 8.51893C108.762 8.17095 109.083 7.90205 109.495 7.71224C109.915 7.52242 110.394 7.42752 110.932 7.42752C111.709 7.42752 112.342 7.62128 112.833 8.00882C113.333 8.39635 113.614 8.91042 113.677 9.55103H112.489C112.449 9.23468 112.283 8.95787 111.99 8.72061C111.697 8.47544 111.309 8.35285 110.825 8.35285C110.374 8.35285 110.006 8.47148 109.72 8.70874C109.435 8.9381 109.293 9.26236 109.293 9.68153C109.293 9.98206 109.376 10.2272 109.542 10.417C109.717 10.6069 109.926 10.7532 110.172 10.856C110.425 10.9509 110.778 11.0616 111.229 11.1882C111.776 11.3384 112.216 11.4887 112.548 11.639C112.881 11.7813 113.166 12.0067 113.404 12.3152C113.641 12.6157 113.76 13.027 113.76 13.5489C113.76 13.9523 113.653 14.3319 113.439 14.6878C113.226 15.0437 112.909 15.3324 112.489 15.5538C112.069 15.7753 111.574 15.886 111.004 15.886Z" fill="white"/>
<path d="M118.583 9.18327C119.074 9.18327 119.518 9.29004 119.914 9.50358C120.31 9.70921 120.619 10.0216 120.841 10.4408C121.071 10.8599 121.185 11.3701 121.185 11.9711V15.8029H120.116V12.1253C120.116 11.4768 119.954 10.9825 119.629 10.6424C119.304 10.2945 118.86 10.1205 118.298 10.1205C117.728 10.1205 117.272 10.2984 116.932 10.6543C116.599 11.0102 116.433 11.5282 116.433 12.2084V15.8029H115.351V7.02417H116.433V10.2272C116.647 9.89507 116.94 9.63803 117.312 9.45613C117.692 9.27422 118.116 9.18327 118.583 9.18327Z" fill="white"/>
<path d="M122.548 12.5287C122.548 11.8644 122.682 11.2831 122.952 10.7848C123.221 10.2786 123.589 9.88716 124.057 9.61035C124.532 9.33354 125.059 9.19514 125.637 9.19514C126.207 9.19514 126.702 9.31772 127.122 9.5629C127.542 9.80807 127.855 10.1165 128.061 10.4882V9.30191H129.154V15.8029H128.061V14.5929C127.847 14.9725 127.526 15.2889 127.098 15.542C126.678 15.7871 126.187 15.9097 125.625 15.9097C125.047 15.9097 124.524 15.7674 124.057 15.4826C123.589 15.1979 123.221 14.7985 122.952 14.2845C122.682 13.7704 122.548 13.1851 122.548 12.5287ZM128.061 12.5406C128.061 12.0502 127.962 11.6231 127.764 11.2593C127.566 10.8955 127.296 10.6187 126.956 10.4289C126.623 10.2312 126.255 10.1323 125.851 10.1323C125.447 10.1323 125.078 10.2272 124.746 10.417C124.413 10.6069 124.148 10.8837 123.95 11.2475C123.752 11.6113 123.653 12.0384 123.653 12.5287C123.653 13.027 123.752 13.4619 123.95 13.8337C124.148 14.1975 124.413 14.4782 124.746 14.6759C125.078 14.8657 125.447 14.9607 125.851 14.9607C126.255 14.9607 126.623 14.8657 126.956 14.6759C127.296 14.4782 127.566 14.1975 127.764 13.8337C127.962 13.4619 128.061 13.0309 128.061 12.5406Z" fill="white"/>
<path d="M134.213 9.18327C134.704 9.18327 135.148 9.29004 135.544 9.50358C135.94 9.70921 136.249 10.0216 136.47 10.4408C136.7 10.8599 136.815 11.3701 136.815 11.9711V15.8029H135.746V12.1253C135.746 11.4768 135.583 10.9825 135.259 10.6424C134.934 10.2945 134.49 10.1205 133.928 10.1205C133.357 10.1205 132.902 10.2984 132.561 10.6543C132.229 11.0102 132.062 11.5282 132.062 12.2084V15.8029H130.981V7.02417H132.062V10.2272C132.276 9.89507 132.569 9.63803 132.942 9.45613C133.322 9.27422 133.746 9.18327 134.213 9.18327Z" fill="white"/>
<path d="M138.177 12.5287C138.177 11.8644 138.312 11.2831 138.581 10.7848C138.851 10.2786 139.219 9.88716 139.686 9.61035C140.162 9.33354 140.688 9.19514 141.267 9.19514C141.837 9.19514 142.332 9.31772 142.752 9.5629C143.172 9.80807 143.484 10.1165 143.69 10.4882V9.30191H144.784V15.8029H143.69V14.5929C143.477 14.9725 143.156 15.2889 142.728 15.542C142.308 15.7871 141.817 15.9097 141.255 15.9097C140.676 15.9097 140.154 15.7674 139.686 15.4826C139.219 15.1979 138.851 14.7985 138.581 14.2845C138.312 13.7704 138.177 13.1851 138.177 12.5287ZM143.69 12.5406C143.69 12.0502 143.591 11.6231 143.393 11.2593C143.195 10.8955 142.926 10.6187 142.585 10.4289C142.253 10.2312 141.884 10.1323 141.48 10.1323C141.076 10.1323 140.708 10.2272 140.375 10.417C140.043 10.6069 139.777 10.8837 139.579 11.2475C139.381 11.6113 139.282 12.0384 139.282 12.5287C139.282 13.027 139.381 13.4619 139.579 13.8337C139.777 14.1975 140.043 14.4782 140.375 14.6759C140.708 14.8657 141.076 14.9607 141.48 14.9607C141.884 14.9607 142.253 14.8657 142.585 14.6759C142.926 14.4782 143.195 14.1975 143.393 13.8337C143.591 13.4619 143.69 13.0309 143.69 12.5406Z" fill="white"/>
<path d="M147.692 10.3577C147.882 9.98602 148.151 9.69735 148.5 9.49172C148.856 9.28609 149.288 9.18327 149.795 9.18327V10.2984H149.51C148.298 10.2984 147.692 10.9548 147.692 12.2677V15.8029H146.611V9.30191H147.692V10.3577Z" fill="white"/>
<path d="M4.57408 6.25299L1.0153 6.14404C0.880102 6.1399 0.748995 6.19072 0.651898 6.28489C0.554801 6.37906 0.5 6.50855 0.5 6.64381V29.0975C0.5 29.3737 0.723858 29.5975 1 29.5975H1.8396C6.71068 29.5975 11.5256 30.0145 17.7537 33.0175V33.8024C16.9915 33.3708 16.0458 33.0915 14.8953 33.0915H8.8922C8.61605 33.0915 8.3922 33.3153 8.3922 33.5915V40.6473C8.3922 41.8708 9.0977 43.0421 9.90218 43.847C10.7193 44.6645 11.9216 45.3893 13.2581 45.3893H17.7537V51C17.7537 51.2761 17.9775 51.5 18.2537 51.5H19.9329C20.209 51.5 20.4329 51.2761 20.4329 51V32.879C26.6248 29.9639 31.4373 29.5555 36.305 29.5555H37.1446C37.4207 29.5555 37.6446 29.3317 37.6446 29.0555V6.60207C37.6446 6.46683 37.5898 6.33736 37.4927 6.2432C37.3957 6.14903 37.2646 6.0982 37.1294 6.1023L33.5306 6.2114V1C33.5306 0.723858 33.3067 0.5 33.0306 0.5H32.191C29.6691 0.5 27.5617 0.598506 25.3787 1.22874C23.3752 1.80717 21.3845 2.80986 18.9613 4.46875C16.5908 2.8365 14.6355 1.8457 12.6667 1.27171C10.5015 0.640479 8.4116 0.542 5.91367 0.541999L5.07408 0.541999C4.94147 0.541999 4.81429 0.594678 4.72052 0.688446C4.62675 0.782214 4.57408 0.909391 4.57408 1.042V6.25299ZM5.95683 25.5229C11.5441 25.3428 14.7246 26.8655 17.7537 28.6206V30.0635C12.1623 27.5708 7.58008 27.0114 3.17919 26.9293V8.89152L4.57408 8.93422V25.0511C4.57408 25.1865 4.62899 25.3161 4.72627 25.4103C4.82354 25.5045 4.95486 25.5552 5.09019 25.5508L5.95683 25.5229ZM33.5306 25.0088V8.89261L34.9654 8.84911V26.8871C30.57 26.9673 25.9961 27.5135 20.4329 29.937V28.4617C23.4292 26.7582 26.6264 25.3046 32.1482 25.4809L33.0146 25.5086C33.1499 25.5129 33.2812 25.4622 33.3784 25.368C33.4757 25.2738 33.5306 25.1442 33.5306 25.0088ZM11.9171 3.84464C13.5619 4.32417 15.294 5.18303 17.5862 6.77586V25.462C14.9262 24.0606 11.8163 22.8977 7.25327 22.8315V3.23553C9.04347 3.27681 10.4779 3.42505 11.9171 3.84464ZM30.8514 3.19322V22.7893C26.228 22.8537 23.083 24.0227 20.3909 25.4301V6.73776C22.7065 5.14423 24.4575 4.28406 26.1217 3.80361C27.5815 3.38215 29.0361 3.23409 30.8514 3.19322ZM14.8953 35.7714C16.7335 35.7714 17.482 37.0165 17.6697 37.6951V42.7093H13.2581C12.8725 42.7093 12.3116 42.4672 11.7968 41.9521C11.2694 41.4245 11.0714 40.8948 11.0714 40.6473V35.7714H14.8953Z" fill="#FF2059" fill-opacity="0.8" stroke="white" stroke-linejoin="round"/>
</svg>
