<svg width="58" height="60" viewBox="0 0 58 60" fill="none" xmlns="http://www.w3.org/2000/svg">
<path fill-rule="evenodd" clip-rule="evenodd" d="M22.8574 5.38178C22.8435 5.23956 22.8364 5.09537 22.8364 4.94952C22.8364 2.51989 24.8058 0.550293 27.2352 0.550293C29.5868 0.550293 31.5075 2.39581 31.628 4.71765C32.7948 4.79927 34.0046 4.94338 35.2583 5.15492C35.8658 3.45307 37.4918 2.2351 39.4022 2.2351C41.8316 2.2351 43.801 4.2047 43.801 6.63433C43.801 9.06395 41.8316 11.0335 39.4022 11.0335C36.9728 11.0335 35.0033 9.06395 35.0033 6.63433C35.0033 6.31308 35.0378 5.99987 35.1032 5.69819C33.901 5.49721 32.7409 5.35932 31.6218 5.27992C31.4529 7.55522 29.5535 9.34874 27.2352 9.34874C25.1456 9.34874 23.3963 7.89154 22.9478 5.93779C21.7151 6.24021 20.5542 6.62876 19.4623 7.09128C19.706 7.63797 19.8415 8.24353 19.8415 8.88074C19.8415 11.3104 17.872 13.28 15.4427 13.28C14.2157 13.28 13.1061 12.7776 12.3083 11.9674L12.2736 12.0026C11.2779 13.0153 10.3882 14.1029 9.59803 15.2379C10.7009 16.0373 11.4182 17.3361 11.4182 18.8024C11.4182 21.232 9.44878 23.2016 7.01939 23.2016C6.59311 23.2016 6.18099 23.141 5.79118 23.0278C5.44409 24.1123 5.16574 25.1867 4.95157 26.2312C7.12004 26.5031 8.79763 28.3537 8.79763 30.5961C8.79763 33.0257 6.82821 34.9953 4.39882 34.9953C1.96943 34.9953 0 33.0257 0 30.5961C0 28.1708 1.96232 26.204 4.38566 26.1969C4.60711 25.1023 4.89774 23.975 5.26278 22.8368C3.70764 22.1587 2.62057 20.6075 2.62057 18.8024C2.62057 16.3728 4.59 14.4032 7.01939 14.4032C7.78124 14.4032 8.49785 14.5969 9.12269 14.9377C9.93383 13.7702 10.8484 12.6511 11.8731 11.6089C11.8952 11.5864 11.9173 11.564 11.9395 11.5417C11.3775 10.8028 11.0438 9.88073 11.0438 8.88074C11.0438 6.45111 13.0133 4.48151 15.4427 4.48151C17.0339 4.48151 18.4278 5.3265 19.2002 6.59227C20.3453 6.10449 21.5633 5.69664 22.8574 5.38178ZM46.328 17.3984C48.2405 17.3984 49.7909 15.8478 49.7909 13.9352C49.7909 12.0225 48.2405 10.4719 46.328 10.4719C44.4155 10.4719 42.8651 12.0225 42.8651 13.9352C42.8651 15.8478 44.4155 17.3984 46.328 17.3984ZM53.8153 13.28C56.9038 20.3936 50.8765 40.2743 33.8802 43.0449C44.5497 40.0497 47.8254 19.832 30.8853 16.7432C34.0362 16.4312 41.8168 17.6792 47.7318 25.1672C49.5413 23.9816 53.2912 19.9443 53.8153 13.28ZM19.3735 24.512C21.286 24.512 22.8364 22.9615 22.8364 21.0488C22.8364 19.1361 21.286 17.5856 19.3735 17.5856C17.461 17.5856 15.9106 19.1361 15.9106 21.0488C15.9106 22.9615 17.461 24.512 19.3735 24.512ZM14.4131 24.8864C11.6054 30.8769 13.9078 45.647 27.984 46.3209C22.93 43.7937 20.2289 37.446 20.7774 33.6849C21.3286 29.9044 25.9884 25.2624 29.9613 27.5659C29.7762 27.5274 29.5844 27.5072 29.3878 27.5072C27.8372 27.5072 26.5801 28.7644 26.5801 30.3153C26.5801 31.8661 27.8372 33.1233 29.3878 33.1233C30.9385 33.1233 32.1956 31.8661 32.1956 30.3153C32.1956 30.0513 32.1592 29.7958 32.0911 29.5536C31.2446 21.8266 19.3616 25.0042 16.7529 30.3153C15.5549 29.866 14.6315 26.4776 14.4131 24.8864ZM0.374367 35.5569C9.618 37.9503 20.7874 47.0413 23.7723 51.0946C19.948 48.3137 12.5612 46.0596 6.75148 44.2868C5.10119 43.7832 3.57815 43.3184 2.30013 42.8914C1.06765 39.9576 0.438552 36.715 0.374367 35.5569ZM34.9098 50.6266C37.8111 46.6953 48.6678 37.8782 57.6526 35.5569C57.5902 36.6801 56.9787 39.8251 55.7807 42.6705C54.5389 43.0845 53.0592 43.5351 51.4557 44.0233L51.4545 44.0237L51.454 44.0238C45.8069 45.7433 38.627 47.9295 34.9098 50.6266ZM54.8448 44.0745C44.0818 46.6017 32.102 49.9714 29.2943 59.7994C33.5607 55.1912 39.3052 55.2512 43.7617 55.2977C44.1933 55.3022 44.6128 55.3066 45.0177 55.3066C48.2934 53.1538 53.3474 47.7249 54.8448 44.0745ZM3.36931 44.1681C14.093 46.6953 26.0288 50.065 28.8263 59.893C24.5755 55.2848 18.852 55.3448 14.4118 55.3913C13.9819 55.3958 13.5639 55.4002 13.1605 55.4002C9.89677 53.2474 4.86131 47.8185 3.36931 44.1681Z" fill="white"/>
</svg>
