<svg width="224" height="80" viewBox="0 0 224 80" fill="none" xmlns="http://www.w3.org/2000/svg">
<path d="M10.7454 0.882456V3.25668H6.84177V15.548H3.90359V3.25668H0V0.882456H10.7454Z" fill="white"/>
<path d="M18.052 15.7371C16.9327 15.7371 15.9253 15.492 15.0298 15.0017C14.1344 14.4975 13.4278 13.7901 12.9101 12.8797C12.4064 11.9692 12.1546 10.9186 12.1546 9.72803C12.1546 8.53741 12.4134 7.48687 12.9311 6.5764C13.4628 5.66593 14.1834 4.96557 15.0928 4.47531C16.0022 3.97105 17.0166 3.71892 18.1359 3.71892C19.2552 3.71892 20.2696 3.97105 21.179 4.47531C22.0885 4.96557 22.802 5.66593 23.3197 6.5764C23.8514 7.48687 24.1172 8.53741 24.1172 9.72803C24.1172 10.9186 23.8444 11.9692 23.2987 12.8797C22.767 13.7901 22.0395 14.4975 21.1161 15.0017C20.2066 15.492 19.1853 15.7371 18.052 15.7371ZM18.052 13.1738C18.5836 13.1738 19.0803 13.0477 19.542 12.7956C20.0177 12.5295 20.3955 12.1373 20.6753 11.619C20.9552 11.1007 21.0951 10.4704 21.0951 9.72803C21.0951 8.62145 20.8013 7.77402 20.2136 7.18571C19.64 6.5834 18.9334 6.28225 18.0939 6.28225C17.2545 6.28225 16.5479 6.5834 15.9742 7.18571C15.4146 7.77402 15.1348 8.62145 15.1348 9.72803C15.1348 10.8346 15.4076 11.689 15.9533 12.2914C16.5129 12.8797 17.2125 13.1738 18.052 13.1738Z" fill="white"/>
<path d="M30.7217 15.7371C29.7703 15.7371 28.9168 15.569 28.1613 15.2329C27.4058 14.8827 26.8041 14.4134 26.3564 13.8251C25.9227 13.2368 25.6848 12.5855 25.6429 11.8711H28.602C28.658 12.3194 28.8749 12.6906 29.2526 12.9847C29.6444 13.2789 30.1271 13.4259 30.7007 13.4259C31.2604 13.4259 31.6941 13.3139 32.0019 13.0898C32.3237 12.8656 32.4846 12.5785 32.4846 12.2283C32.4846 11.8501 32.2888 11.57 31.897 11.3879C31.5192 11.1918 30.9106 10.9817 30.0711 10.7576C29.2037 10.5474 28.4901 10.3303 27.9305 10.1062C27.3848 9.88211 26.9091 9.53893 26.5033 9.07669C26.1116 8.61445 25.9157 7.99113 25.9157 7.20672C25.9157 6.56239 26.0976 5.97409 26.4614 5.44181C26.8391 4.90954 27.3708 4.48932 28.0564 4.18116C28.7559 3.873 29.5744 3.71892 30.5119 3.71892C31.897 3.71892 33.0023 4.0691 33.8278 4.76946C34.6533 5.45582 35.108 6.3873 35.192 7.56391H32.3797C32.3377 7.10167 32.1419 6.73748 31.7921 6.47134C31.4563 6.1912 31.0016 6.05113 30.4279 6.05113C29.8962 6.05113 29.4835 6.14918 29.1897 6.34528C28.9098 6.54138 28.7699 6.81452 28.7699 7.1647C28.7699 7.5569 28.9658 7.85806 29.3576 8.06817C29.7493 8.26427 30.358 8.46737 31.1834 8.67748C32.0229 8.88759 32.7155 9.1047 33.2612 9.32882C33.8068 9.55294 34.2755 9.90312 34.6673 10.3794C35.073 10.8416 35.2829 11.4579 35.2969 12.2283C35.2969 12.9007 35.108 13.503 34.7303 14.0353C34.3665 14.5675 33.8348 14.9877 33.1352 15.2959C32.4497 15.5901 31.6452 15.7371 30.7217 15.7371Z" fill="white"/>
<path d="M44.2567 3.73993C45.1382 3.73993 45.9217 3.93603 46.6073 4.32824C47.2928 4.70643 47.8245 5.27372 48.2023 6.03012C48.594 6.7725 48.7899 7.66896 48.7899 8.7195V15.548H45.8517V9.11871C45.8517 8.19423 45.6209 7.48687 45.1592 6.99661C44.6975 6.49235 44.0678 6.24022 43.2703 6.24022C42.4588 6.24022 41.8152 6.49235 41.3395 6.99661C40.8778 7.48687 40.647 8.19423 40.647 9.11871V15.548H37.7088V0H40.647V5.35777C41.0247 4.85351 41.5284 4.4613 42.158 4.18116C42.7876 3.88701 43.4872 3.73993 44.2567 3.73993Z" fill="white"/>
<path d="M58.4677 15.548L54.5222 10.5895V15.548H51.584V0H54.5222V8.84557L58.4258 3.90802H62.2454L57.1246 9.74904L62.2874 15.548H58.4677Z" fill="white"/>
<path d="M74.6484 9.4759C74.6484 9.89611 74.6204 10.2743 74.5645 10.6105H66.0647C66.1347 11.4509 66.4285 12.1093 66.9462 12.5855C67.4638 13.0617 68.1004 13.2999 68.856 13.2999C69.9473 13.2999 70.7238 12.8306 71.1855 11.8921H74.3546C74.0188 13.0127 73.3752 13.9372 72.4238 14.6656C71.4724 15.3799 70.3041 15.7371 68.9189 15.7371C67.7996 15.7371 66.7923 15.492 65.8968 15.0017C65.0154 14.4975 64.3228 13.7901 63.8191 12.8797C63.3294 11.9692 63.0845 10.9186 63.0845 9.72803C63.0845 8.5234 63.3294 7.46586 63.8191 6.55539C64.3088 5.64492 64.9944 4.94455 65.8758 4.4543C66.7573 3.96405 67.7717 3.71892 68.9189 3.71892C70.0243 3.71892 71.0107 3.95704 71.8781 4.43329C72.7596 4.90954 73.4381 5.58889 73.9139 6.47134C74.4035 7.33979 74.6484 8.34131 74.6484 9.4759ZM71.6053 8.63546C71.5913 7.87907 71.3185 7.27676 70.7868 6.82853C70.2551 6.36629 69.6045 6.13517 68.835 6.13517C68.1074 6.13517 67.4918 6.35929 66.9881 6.80752C66.4984 7.24174 66.1976 7.85106 66.0857 8.63546H71.6053Z" fill="white"/>
<path d="M83.236 3.73993C84.6212 3.73993 85.7405 4.18116 86.594 5.06362C87.4474 5.93206 87.8742 7.15069 87.8742 8.7195V15.548H84.936V9.11871C84.936 8.19423 84.7051 7.48687 84.2434 6.99661C83.7817 6.49235 83.1521 6.24022 82.3546 6.24022C81.5431 6.24022 80.8995 6.49235 80.4238 6.99661C79.9621 7.48687 79.7312 8.19423 79.7312 9.11871V15.548H76.793V3.90802H79.7312V5.35777C80.123 4.85351 80.6197 4.4613 81.2213 4.18116C81.8369 3.88701 82.5085 3.73993 83.236 3.73993Z" fill="white"/>
<path d="M94.0891 6.32427V11.9552C94.0891 12.3474 94.1801 12.6345 94.3619 12.8166C94.5578 12.9847 94.8796 13.0688 95.3273 13.0688H96.6915V15.548H94.8446C92.3682 15.548 91.1299 14.3434 91.1299 11.9342V6.32427H89.7448V3.90802H91.1299V1.02953H94.0891V3.90802H96.6915V6.32427H94.0891Z" fill="white"/>
<path d="M108.863 15.6951C107.842 15.6951 106.919 15.52 106.093 15.1698C105.282 14.8197 104.638 14.3154 104.162 13.6571C103.687 12.9987 103.442 12.2213 103.428 11.3249H106.576C106.618 11.9272 106.828 12.4034 107.206 12.7536C107.597 13.1038 108.129 13.2789 108.801 13.2789C109.486 13.2789 110.025 13.1178 110.417 12.7956C110.808 12.4594 111.004 12.0252 111.004 11.4929C111.004 11.0587 110.871 10.7015 110.605 10.4214C110.34 10.1412 110.004 9.92413 109.598 9.77005C109.206 9.60196 108.661 9.41987 107.961 9.22377C107.01 8.94362 106.233 8.67048 105.631 8.40434C105.044 8.1242 104.533 7.71098 104.099 7.1647C103.68 6.60441 103.47 5.86203 103.47 4.93755C103.47 4.0691 103.687 3.31271 104.12 2.66838C104.554 2.02405 105.163 1.53379 105.946 1.19762C106.73 0.847438 107.625 0.672348 108.633 0.672348C110.144 0.672348 111.368 1.04354 112.305 1.78592C113.257 2.5143 113.781 3.53683 113.879 4.85351H110.647C110.619 4.34925 110.403 3.93603 109.997 3.61387C109.605 3.27769 109.08 3.10961 108.423 3.10961C107.849 3.10961 107.387 3.25668 107.038 3.55083C106.702 3.84499 106.534 4.27221 106.534 4.8325C106.534 5.2247 106.66 5.55387 106.912 5.82001C107.178 6.07214 107.499 6.28225 107.877 6.45033C108.269 6.60441 108.815 6.78651 109.514 6.99661C110.465 7.27676 111.242 7.5569 111.844 7.83705C112.445 8.11719 112.963 8.53741 113.397 9.0977C113.83 9.65799 114.047 10.3934 114.047 11.3038C114.047 12.0882 113.844 12.8166 113.439 13.489C113.033 14.1613 112.438 14.7006 111.655 15.1068C110.871 15.499 109.941 15.6951 108.863 15.6951Z" fill="white"/>
<path d="M123.143 3.73993C124.024 3.73993 124.808 3.93603 125.493 4.32824C126.179 4.70643 126.71 5.27372 127.088 6.03012C127.48 6.7725 127.676 7.66896 127.676 8.7195V15.548H124.738V9.11871C124.738 8.19423 124.507 7.48687 124.045 6.99661C123.583 6.49235 122.954 6.24022 122.156 6.24022C121.345 6.24022 120.701 6.49235 120.225 6.99661C119.764 7.48687 119.533 8.19423 119.533 9.11871V15.548H116.595V0H119.533V5.35777C119.911 4.85351 120.414 4.4613 121.044 4.18116C121.673 3.88701 122.373 3.73993 123.143 3.73993Z" fill="white"/>
<path d="M129.714 9.686C129.714 8.5094 129.945 7.46586 130.407 6.55539C130.883 5.64492 131.519 4.94455 132.317 4.4543C133.128 3.96405 134.031 3.71892 135.024 3.71892C135.891 3.71892 136.647 3.89401 137.291 4.24419C137.948 4.59437 138.473 5.0356 138.865 5.56788V3.90802H141.824V15.548H138.865V13.8462C138.487 14.3924 137.962 14.8477 137.291 15.2119C136.633 15.562 135.87 15.7371 135.003 15.7371C134.024 15.7371 133.128 15.485 132.317 14.9807C131.519 14.4765 130.883 13.7691 130.407 12.8586C129.945 11.9342 129.714 10.8766 129.714 9.686ZM138.865 9.72803C138.865 9.01366 138.725 8.40434 138.445 7.90008C138.165 7.38181 137.787 6.98961 137.312 6.72347C136.836 6.44333 136.325 6.30326 135.78 6.30326C135.234 6.30326 134.73 6.43632 134.268 6.70246C133.807 6.9686 133.429 7.3608 133.135 7.87907C132.855 8.38333 132.715 8.98564 132.715 9.686C132.715 10.3864 132.855 11.0027 133.135 11.535C133.429 12.0532 133.807 12.4524 134.268 12.7326C134.744 13.0127 135.248 13.1528 135.78 13.1528C136.325 13.1528 136.836 13.0197 137.312 12.7536C137.787 12.4734 138.165 12.0812 138.445 11.577C138.725 11.0587 138.865 10.4424 138.865 9.72803Z" fill="white"/>
<path d="M151.241 3.73993C152.123 3.73993 152.906 3.93603 153.592 4.32824C154.277 4.70643 154.809 5.27372 155.187 6.03012C155.579 6.7725 155.775 7.66896 155.775 8.7195V15.548H152.836V9.11871C152.836 8.19423 152.606 7.48687 152.144 6.99661C151.682 6.49235 151.052 6.24022 150.255 6.24022C149.443 6.24022 148.8 6.49235 148.324 6.99661C147.862 7.48687 147.632 8.19423 147.632 9.11871V15.548H144.693V0H147.632V5.35777C148.009 4.85351 148.513 4.4613 149.143 4.18116C149.772 3.88701 150.472 3.73993 151.241 3.73993Z" fill="white"/>
<path d="M157.813 9.686C157.813 8.5094 158.044 7.46586 158.506 6.55539C158.981 5.64492 159.618 4.94455 160.415 4.4543C161.227 3.96405 162.129 3.71892 163.123 3.71892C163.99 3.71892 164.746 3.89401 165.389 4.24419C166.047 4.59437 166.572 5.0356 166.963 5.56788V3.90802H169.923V15.548H166.963V13.8462C166.586 14.3924 166.061 14.8477 165.389 15.2119C164.732 15.562 163.969 15.7371 163.102 15.7371C162.122 15.7371 161.227 15.485 160.415 14.9807C159.618 14.4765 158.981 13.7691 158.506 12.8586C158.044 11.9342 157.813 10.8766 157.813 9.686ZM166.963 9.72803C166.963 9.01366 166.824 8.40434 166.544 7.90008C166.264 7.38181 165.886 6.98961 165.41 6.72347C164.935 6.44333 164.424 6.30326 163.878 6.30326C163.333 6.30326 162.829 6.43632 162.367 6.70246C161.906 6.9686 161.528 7.3608 161.234 7.87907C160.954 8.38333 160.814 8.98564 160.814 9.686C160.814 10.3864 160.954 11.0027 161.234 11.535C161.528 12.0532 161.906 12.4524 162.367 12.7326C162.843 13.0127 163.347 13.1528 163.878 13.1528C164.424 13.1528 164.935 13.0197 165.41 12.7536C165.886 12.4734 166.264 12.0812 166.544 11.577C166.824 11.0587 166.963 10.4424 166.963 9.72803Z" fill="white"/>
<path d="M175.73 5.71495C176.108 5.09863 176.598 4.61538 177.2 4.2652C177.815 3.91502 178.515 3.73993 179.298 3.73993V6.82853H178.522C177.598 6.82853 176.899 7.04564 176.423 7.47986C175.961 7.91409 175.73 8.67048 175.73 9.74904V15.548H172.792V3.90802H175.73V5.71495Z" fill="white"/>
<path d="M12.3404 37.6188C13.441 37.8242 14.3458 38.3752 15.0547 39.2716C15.7636 40.1681 16.118 41.1953 16.118 42.3532C16.118 43.3991 15.8569 44.3236 15.3345 45.1266C14.8308 45.9111 14.094 46.5274 13.1239 46.9756C12.1538 47.4238 11.0065 47.6479 9.68202 47.6479H1.25922V28.0938H9.31824C10.6428 28.0938 11.7807 28.3086 12.7321 28.7382C13.7022 29.1677 14.4297 29.7654 14.9148 30.5311C15.4185 31.2968 15.6703 32.1653 15.6703 33.1365C15.6703 34.2757 15.3625 35.2282 14.7469 35.9939C14.1499 36.7597 13.3478 37.3013 12.3404 37.6188ZM5.1768 36.162H8.75859C9.69134 36.162 10.4096 35.9566 10.9133 35.5457C11.4169 35.1161 11.6688 34.5092 11.6688 33.7248C11.6688 32.9403 11.4169 32.3334 10.9133 31.9038C10.4096 31.4743 9.69134 31.2595 8.75859 31.2595H5.1768V36.162ZM9.12236 44.4543C10.0738 44.4543 10.8107 44.2302 11.333 43.782C11.874 43.3337 12.1445 42.6987 12.1445 41.877C12.1445 41.0365 11.8647 40.3829 11.305 39.916C10.7454 39.4304 9.98983 39.1876 9.03841 39.1876H5.1768V44.4543H9.12236Z" fill="white"/>
<path d="M18.2329 39.8319C18.2329 38.2631 18.5407 36.8717 19.1563 35.6578C19.7906 34.4438 20.6394 33.51 21.7028 32.8563C22.7848 32.2026 23.988 31.8758 25.3125 31.8758C26.4692 31.8758 27.4765 32.1093 28.3347 32.5762C29.2115 33.0431 29.911 33.6314 30.4334 34.3411V32.1279H34.3789V47.6479H30.4334V45.3788C29.9297 46.1072 29.2301 46.7141 28.3347 47.1997C27.4579 47.6666 26.4412 47.9001 25.2846 47.9001C23.9787 47.9001 22.7848 47.5639 21.7028 46.8916C20.6394 46.2192 19.7906 45.2761 19.1563 44.0621C18.5407 42.8295 18.2329 41.4194 18.2329 39.8319ZM30.4334 39.8879C30.4334 38.9354 30.2468 38.123 29.8737 37.4507C29.5006 36.7597 28.9969 36.2367 28.3627 35.8819C27.7284 35.5083 27.0475 35.3216 26.3199 35.3216C25.5924 35.3216 24.9208 35.499 24.3052 35.8539C23.6895 36.2087 23.1859 36.7316 22.7941 37.4227C22.421 38.095 22.2344 38.8981 22.2344 39.8319C22.2344 40.7657 22.421 41.5875 22.7941 42.2972C23.1859 42.9882 23.6895 43.5205 24.3052 43.894C24.9394 44.2675 25.611 44.4543 26.3199 44.4543C27.0475 44.4543 27.7284 44.2769 28.3627 43.922C28.9969 43.5485 29.5006 43.0256 29.8737 42.3532C30.2468 41.6622 30.4334 40.8404 30.4334 39.8879Z" fill="white"/>
<path d="M42.1227 34.5372C42.6264 33.7154 43.2793 33.0711 44.0815 32.6042C44.9023 32.1373 45.8351 31.9038 46.8798 31.9038V36.0219H45.8444C44.6132 36.0219 43.6804 36.3114 43.0461 36.8904C42.4305 37.4694 42.1227 38.4779 42.1227 39.916V47.6479H38.2051V32.1279H42.1227V34.5372Z" fill="white"/>
<path d="M58.6968 47.6479L53.436 41.0365V47.6479H49.5185V26.9172H53.436V38.7113L58.6408 32.1279H63.7337L56.9059 39.916L63.7896 47.6479H58.6968Z" fill="white"/>
<path d="M64.8525 39.8319C64.8525 38.2631 65.1603 36.8717 65.776 35.6578C66.4102 34.4438 67.2591 33.51 68.3224 32.8563C69.4044 32.2026 70.6077 31.8758 71.9322 31.8758C73.0888 31.8758 74.0962 32.1093 74.9543 32.5762C75.8311 33.0431 76.5307 33.6314 77.053 34.3411V32.1279H80.9986V47.6479H77.053V45.3788C76.5493 46.1072 75.8497 46.7141 74.9543 47.1997C74.0775 47.6666 73.0608 47.9001 71.9042 47.9001C70.5983 47.9001 69.4044 47.5639 68.3224 46.8916C67.2591 46.2192 66.4102 45.2761 65.776 44.0621C65.1603 42.8295 64.8525 41.4194 64.8525 39.8319ZM77.053 39.8879C77.053 38.9354 76.8665 38.123 76.4933 37.4507C76.1202 36.7597 75.6166 36.2367 74.9823 35.8819C74.348 35.5083 73.6671 35.3216 72.9395 35.3216C72.212 35.3216 71.5404 35.499 70.9248 35.8539C70.3092 36.2087 69.8055 36.7316 69.4137 37.4227C69.0406 38.095 68.8541 38.8981 68.8541 39.8319C68.8541 40.7657 69.0406 41.5875 69.4137 42.2972C69.8055 42.9882 70.3092 43.5205 70.9248 43.894C71.5591 44.2675 72.2306 44.4543 72.9395 44.4543C73.6671 44.4543 74.348 44.2769 74.9823 43.922C75.6166 43.5485 76.1202 43.0256 76.4933 42.3532C76.8665 41.6622 77.053 40.8404 77.053 39.8879Z" fill="white"/>
<path d="M104.077 31.9038C105.98 31.9038 107.509 32.4921 108.666 33.6687C109.841 34.8267 110.429 36.4515 110.429 38.5432V47.6479H106.511V39.0755C106.511 37.8616 106.204 36.9371 105.588 36.3021C104.972 35.6484 104.133 35.3216 103.069 35.3216C102.006 35.3216 101.157 35.6484 100.523 36.3021C99.9074 36.9371 99.5996 37.8616 99.5996 39.0755V47.6479H95.6821V39.0755C95.6821 37.8616 95.3742 36.9371 94.7586 36.3021C94.143 35.6484 93.3035 35.3216 92.2402 35.3216C91.1582 35.3216 90.3 35.6484 89.6658 36.3021C89.0501 36.9371 88.7423 37.8616 88.7423 39.0755V47.6479H84.8248V32.1279H88.7423V34.0049C89.246 33.3512 89.8896 32.8376 90.6731 32.4641C91.4753 32.0906 92.3521 31.9038 93.3035 31.9038C94.5161 31.9038 95.5981 32.1653 96.5495 32.6882C97.5009 33.1925 98.2378 33.9209 98.7602 34.8733C99.2638 33.9769 99.9914 33.2578 100.943 32.7162C101.913 32.1746 102.958 31.9038 104.077 31.9038Z" fill="white"/>
<path d="M121.03 47.9001C119.538 47.9001 118.195 47.5732 117.001 46.9196C115.807 46.2472 114.865 45.3041 114.174 44.0901C113.503 42.8762 113.167 41.4754 113.167 39.8879C113.167 38.3005 113.512 36.8997 114.202 35.6858C114.911 34.4718 115.872 33.538 117.085 32.8843C118.297 32.212 119.65 31.8758 121.142 31.8758C122.635 31.8758 123.987 32.212 125.2 32.8843C126.412 33.538 127.364 34.4718 128.054 35.6858C128.763 36.8997 129.117 38.3005 129.117 39.8879C129.117 41.4754 128.753 42.8762 128.026 44.0901C127.317 45.3041 126.347 46.2472 125.116 46.9196C123.903 47.5732 122.541 47.9001 121.03 47.9001ZM121.03 44.4823C121.739 44.4823 122.401 44.3142 123.017 43.9781C123.651 43.6232 124.155 43.1003 124.528 42.4092C124.901 41.7182 125.088 40.8778 125.088 39.8879C125.088 38.4125 124.696 37.2826 123.912 36.4982C123.148 35.6951 122.206 35.2936 121.086 35.2936C119.967 35.2936 119.025 35.6951 118.26 36.4982C117.514 37.2826 117.141 38.4125 117.141 39.8879C117.141 41.3634 117.504 42.5026 118.232 43.3057C118.978 44.0901 119.911 44.4823 121.03 44.4823Z" fill="white"/>
<path d="M135.908 26.9172V47.6479H131.991V26.9172H135.908Z" fill="white"/>
<path d="M158.423 43.922H150.644L149.357 47.6479H145.244L152.267 28.0658H156.828L163.852 47.6479H159.711L158.423 43.922ZM157.36 40.7844L154.534 32.6042L151.708 40.7844H157.36Z" fill="white"/>
<path d="M172.941 44.0341L176.859 32.1279H181.028L175.292 47.6479H170.535L164.826 32.1279H169.024L172.941 44.0341Z" fill="white"/>
<path d="M187.146 26.9172V47.6479H183.229V26.9172H187.146Z" fill="white"/>
<path d="M197.901 47.9001C196.408 47.9001 195.065 47.5732 193.871 46.9196C192.677 46.2472 191.735 45.3041 191.045 44.0901C190.373 42.8762 190.038 41.4754 190.038 39.8879C190.038 38.3005 190.383 36.8997 191.073 35.6858C191.782 34.4718 192.743 33.538 193.955 32.8843C195.168 32.212 196.52 31.8758 198.013 31.8758C199.505 31.8758 200.858 32.212 202.07 32.8843C203.283 33.538 204.234 34.4718 204.924 35.6858C205.633 36.8997 205.988 38.3005 205.988 39.8879C205.988 41.4754 205.624 42.8762 204.896 44.0901C204.187 45.3041 203.217 46.2472 201.986 46.9196C200.774 47.5732 199.412 47.9001 197.901 47.9001ZM197.901 44.4823C198.61 44.4823 199.272 44.3142 199.887 43.9781C200.522 43.6232 201.025 43.1003 201.399 42.4092C201.772 41.7182 201.958 40.8778 201.958 39.8879C201.958 38.4125 201.566 37.2826 200.783 36.4982C200.018 35.6951 199.076 35.2936 197.957 35.2936C196.837 35.2936 195.895 35.6951 195.13 36.4982C194.384 37.2826 194.011 38.4125 194.011 39.8879C194.011 41.3634 194.375 42.5026 195.102 43.3057C195.849 44.0901 196.781 44.4823 197.901 44.4823Z" fill="white"/>
<path d="M207.854 39.8319C207.854 38.2631 208.162 36.8717 208.777 35.6578C209.412 34.4438 210.27 33.51 211.352 32.8563C212.434 32.2026 213.637 31.8758 214.962 31.8758C215.969 31.8758 216.93 32.0999 217.844 32.5481C218.758 32.9777 219.485 33.5567 220.026 34.285V26.9172H224V47.6479H220.026V45.3508C219.541 46.1165 218.861 46.7328 217.984 47.1997C217.107 47.6666 216.09 47.9001 214.934 47.9001C213.628 47.9001 212.434 47.5639 211.352 46.8916C210.27 46.2192 209.412 45.2761 208.777 44.0621C208.162 42.8295 207.854 41.4194 207.854 39.8319ZM220.054 39.8879C220.054 38.9354 219.868 38.123 219.495 37.4507C219.122 36.7597 218.618 36.2367 217.984 35.8819C217.349 35.5083 216.669 35.3216 215.941 35.3216C215.213 35.3216 214.542 35.499 213.926 35.8539C213.311 36.2087 212.807 36.7316 212.415 37.4227C212.042 38.095 211.856 38.8981 211.856 39.8319C211.856 40.7657 212.042 41.5875 212.415 42.2972C212.807 42.9882 213.311 43.5205 213.926 43.894C214.561 44.2675 215.232 44.4543 215.941 44.4543C216.669 44.4543 217.349 44.2769 217.984 43.922C218.618 43.5485 219.122 43.0256 219.495 42.3532C219.868 41.6622 220.054 40.8404 220.054 39.8879Z" fill="white"/>
<path d="M12.3404 69.7187C13.441 69.9241 14.3458 70.4751 15.0547 71.3715C15.7636 72.268 16.118 73.2952 16.118 74.4531C16.118 75.499 15.8569 76.4235 15.3345 77.2266C14.8308 78.011 14.094 78.6273 13.1239 79.0755C12.1538 79.5238 11.0065 79.7479 9.68202 79.7479H1.25922V60.1938H9.31824C10.6428 60.1938 11.7807 60.4085 12.7321 60.8381C13.7022 61.2677 14.4297 61.8653 14.9148 62.631C15.4185 63.3967 15.6703 64.2652 15.6703 65.2364C15.6703 66.3756 15.3625 67.3281 14.7469 68.0938C14.1499 68.8596 13.3478 69.4012 12.3404 69.7187ZM5.1768 68.2619H8.75859C9.69134 68.2619 10.4096 68.0565 10.9133 67.6456C11.4169 67.2161 11.6688 66.6091 11.6688 65.8247C11.6688 65.0403 11.4169 64.4333 10.9133 64.0037C10.4096 63.5742 9.69134 63.3594 8.75859 63.3594H5.1768V68.2619ZM9.12236 76.5542C10.0738 76.5542 10.8107 76.3301 11.333 75.8819C11.874 75.4336 12.1445 74.7986 12.1445 73.9769C12.1445 73.1365 11.8647 72.4828 11.305 72.0159C10.7454 71.5303 9.98983 71.2875 9.03841 71.2875H5.1768V76.5542H9.12236Z" fill="white"/>
<path d="M26.124 80C24.6316 80 23.2885 79.6732 22.0945 79.0195C20.9006 78.3471 19.9585 77.404 19.2683 76.19C18.5967 74.9761 18.2609 73.5753 18.2609 71.9879C18.2609 70.4004 18.606 68.9996 19.2963 67.7857C20.0052 66.5717 20.9659 65.6379 22.1785 64.9842C23.3911 64.3119 24.7436 63.9757 26.236 63.9757C27.7284 63.9757 29.0809 64.3119 30.2935 64.9842C31.506 65.6379 32.4575 66.5717 33.1477 67.7857C33.8566 68.9996 34.211 70.4004 34.211 71.9879C34.211 73.5753 33.8473 74.9761 33.1197 76.19C32.4108 77.404 31.4408 78.3471 30.2095 79.0195C28.9969 79.6732 27.6351 80 26.124 80ZM26.124 76.5822C26.8329 76.5822 27.4952 76.4141 28.1108 76.078C28.7451 75.7231 29.2488 75.2002 29.6219 74.5092C29.995 73.8181 30.1815 72.9777 30.1815 71.9879C30.1815 70.5124 29.7898 69.3825 29.0063 68.5981C28.2414 67.795 27.2993 67.3935 26.18 67.3935C25.0607 67.3935 24.1186 67.795 23.3538 68.5981C22.6075 69.3825 22.2344 70.5124 22.2344 71.9879C22.2344 73.4633 22.5982 74.6025 23.3258 75.4056C24.072 76.19 25.0047 76.5822 26.124 76.5822Z" fill="white"/>
<path d="M41.0023 59.0172V79.7479H37.0847V59.0172H41.0023Z" fill="white"/>
<path d="M43.8655 71.9318C43.8655 70.363 44.1733 68.9716 44.7889 67.7577C45.4232 66.5437 46.272 65.6099 47.3354 64.9562C48.4174 64.3026 49.6206 63.9757 50.9451 63.9757C52.1018 63.9757 53.1091 64.2092 53.9673 64.6761C54.8441 65.143 55.5436 65.7313 56.066 66.441V64.2278H60.0115V79.7479H56.066V77.4787C55.5623 78.2071 54.8627 78.814 53.9673 79.2996C53.0905 79.7665 52.0738 80 50.9172 80C49.6113 80 48.4174 79.6638 47.3354 78.9915C46.272 78.3191 45.4232 77.376 44.7889 76.162C44.1733 74.9294 43.8655 73.5193 43.8655 71.9318ZM56.066 71.9879C56.066 71.0354 55.8794 70.2229 55.5063 69.5506C55.1332 68.8596 54.6295 68.3366 53.9953 67.9818C53.361 67.6083 52.6801 67.4215 51.9525 67.4215C51.225 67.4215 50.5534 67.5989 49.9378 67.9538C49.3221 68.3086 48.8184 68.8316 48.4267 69.5226C48.0536 70.1949 47.867 70.998 47.867 71.9318C47.867 72.8656 48.0536 73.6874 48.4267 74.3971C48.8184 75.0881 49.3221 75.6204 49.9378 75.9939C50.572 76.3674 51.2436 76.5542 51.9525 76.5542C52.6801 76.5542 53.361 76.3768 53.9953 76.0219C54.6295 75.6484 55.1332 75.1255 55.5063 74.4531C55.8794 73.7621 56.066 72.9403 56.066 71.9879Z" fill="white"/>
<path d="M67.7553 59.0172V79.7479H63.8377V59.0172H67.7553Z" fill="white"/>
<path d="M70.6185 71.9318C70.6185 70.363 70.9263 68.9716 71.5419 67.7577C72.1762 66.5437 73.025 65.6099 74.0884 64.9562C75.1704 64.3026 76.3736 63.9757 77.6981 63.9757C78.8548 63.9757 79.8621 64.2092 80.7203 64.6761C81.5971 65.143 82.2966 65.7313 82.819 66.441V64.2278H86.7645V79.7479H82.819V77.4787C82.3153 78.2071 81.6157 78.814 80.7203 79.2996C79.8435 79.7665 78.8268 80 77.6702 80C76.3643 80 75.1704 79.6638 74.0884 78.9915C73.025 78.3191 72.1762 77.376 71.5419 76.162C70.9263 74.9294 70.6185 73.5193 70.6185 71.9318ZM82.819 71.9879C82.819 71.0354 82.6324 70.2229 82.2593 69.5506C81.8862 68.8596 81.3825 68.3366 80.7483 67.9818C80.114 67.6083 79.4331 67.4215 78.7055 67.4215C77.978 67.4215 77.3064 67.5989 76.6908 67.9538C76.0751 68.3086 75.5715 68.8316 75.1797 69.5226C74.8066 70.1949 74.62 70.998 74.62 71.9318C74.62 72.8656 74.8066 73.6874 75.1797 74.3971C75.5715 75.0881 76.0751 75.6204 76.6908 75.9939C77.325 76.3674 77.9966 76.5542 78.7055 76.5542C79.4331 76.5542 80.114 76.3768 80.7483 76.0219C81.3825 75.6484 81.8862 75.1255 82.2593 74.4531C82.6324 73.7621 82.819 72.9403 82.819 71.9879Z" fill="white"/>
<path d="M94.5083 66.6371C95.012 65.8153 95.6649 65.171 96.4671 64.7041C97.2879 64.2372 98.2207 64.0037 99.2654 64.0037V68.1219H98.23C96.9988 68.1219 96.066 68.4113 95.4317 68.9903C94.8161 69.5693 94.5083 70.5778 94.5083 72.0159V79.7479H90.5907V64.2278H94.5083V66.6371Z" fill="white"/>
<path d="M129.867 60.1938V79.7479H125.949V67.0293L120.716 79.7479H117.75L112.489 67.0293V79.7479H108.572V60.1938H113.021L119.233 74.7333L125.445 60.1938H129.867Z" fill="white"/>
<path d="M132.732 71.9318C132.732 70.363 133.04 68.9716 133.656 67.7577C134.29 66.5437 135.139 65.6099 136.202 64.9562C137.284 64.3026 138.488 63.9757 139.812 63.9757C140.969 63.9757 141.976 64.2092 142.834 64.6761C143.711 65.143 144.411 65.7313 144.933 66.441V64.2278H148.878V79.7479H144.933V77.4787C144.429 78.2071 143.73 78.814 142.834 79.2996C141.957 79.7665 140.941 80 139.784 80C138.478 80 137.284 79.6638 136.202 78.9915C135.139 78.3191 134.29 77.376 133.656 76.162C133.04 74.9294 132.732 73.5193 132.732 71.9318ZM144.933 71.9879C144.933 71.0354 144.746 70.2229 144.373 69.5506C144 68.8596 143.496 68.3366 142.862 67.9818C142.228 67.6083 141.547 67.4215 140.819 67.4215C140.092 67.4215 139.42 67.5989 138.805 67.9538C138.189 68.3086 137.685 68.8316 137.294 69.5226C136.921 70.1949 136.734 70.998 136.734 71.9318C136.734 72.8656 136.921 73.6874 137.294 74.3971C137.685 75.0881 138.189 75.6204 138.805 75.9939C139.439 76.3674 140.111 76.5542 140.819 76.5542C141.547 76.5542 142.228 76.3768 142.862 76.0219C143.496 75.6484 144 75.1255 144.373 74.4531C144.746 73.7621 144.933 72.9403 144.933 71.9879Z" fill="white"/>
<path d="M161.883 79.7479L156.622 73.1365V79.7479H152.705V59.0172H156.622V70.8112L161.827 64.2278H166.92L160.092 72.0159L166.976 79.7479H161.883Z" fill="white"/>
<path d="M173.607 67.4495V74.9574C173.607 75.4803 173.729 75.8632 173.971 76.106C174.232 76.3301 174.661 76.4422 175.258 76.4422H177.077V79.7479H174.615C171.313 79.7479 169.662 78.1417 169.662 74.9294V67.4495H167.815V64.2278H169.662V60.3899H173.607V64.2278H177.077V67.4495H173.607Z" fill="white"/>
<path d="M178.888 71.9318C178.888 70.363 179.195 68.9716 179.811 67.7577C180.445 66.5437 181.294 65.6099 182.357 64.9562C183.439 64.3026 184.643 63.9757 185.967 63.9757C187.124 63.9757 188.131 64.2092 188.989 64.6761C189.866 65.143 190.566 65.7313 191.088 66.441V64.2278H195.034V79.7479H191.088V77.4787C190.584 78.2071 189.885 78.814 188.989 79.2996C188.112 79.7665 187.096 80 185.939 80C184.633 80 183.439 79.6638 182.357 78.9915C181.294 78.3191 180.445 77.376 179.811 76.162C179.195 74.9294 178.888 73.5193 178.888 71.9318ZM191.088 71.9879C191.088 71.0354 190.901 70.2229 190.528 69.5506C190.155 68.8596 189.652 68.3366 189.017 67.9818C188.383 67.6083 187.702 67.4215 186.975 67.4215C186.247 67.4215 185.575 67.5989 184.96 67.9538C184.344 68.3086 183.84 68.8316 183.449 69.5226C183.076 70.1949 182.889 70.998 182.889 71.9318C182.889 72.8656 183.076 73.6874 183.449 74.3971C183.84 75.0881 184.344 75.6204 184.96 75.9939C185.594 76.3674 186.266 76.5542 186.975 76.5542C187.702 76.5542 188.383 76.3768 189.017 76.0219C189.652 75.6484 190.155 75.1255 190.528 74.4531C190.901 73.7621 191.088 72.9403 191.088 71.9879Z" fill="white"/>
<path d="M202.777 66.497C203.281 65.75 203.971 65.143 204.848 64.6761C205.743 64.2092 206.76 63.9757 207.898 63.9757C209.223 63.9757 210.417 64.3026 211.48 64.9562C212.562 65.6099 213.411 66.5437 214.026 67.7577C214.661 68.953 214.978 70.3443 214.978 71.9318C214.978 73.5193 214.661 74.9294 214.026 76.162C213.411 77.376 212.562 78.3191 211.48 78.9915C210.417 79.6638 209.223 80 207.898 80C206.742 80 205.725 79.7759 204.848 79.3277C203.99 78.8607 203.3 78.2631 202.777 77.5347V79.7479H198.86V59.0172H202.777V66.497ZM210.976 71.9318C210.976 70.998 210.78 70.1949 210.389 69.5226C210.016 68.8316 209.512 68.3086 208.878 67.9538C208.262 67.5989 207.59 67.4215 206.863 67.4215C206.154 67.4215 205.482 67.6083 204.848 67.9818C204.232 68.3366 203.729 68.8596 203.337 69.5506C202.964 70.2416 202.777 71.054 202.777 71.9879C202.777 72.9217 202.964 73.7341 203.337 74.4251C203.729 75.1161 204.232 75.6484 204.848 76.0219C205.482 76.3768 206.154 76.5542 206.863 76.5542C207.59 76.5542 208.262 76.3674 208.878 75.9939C209.512 75.6204 210.016 75.0881 210.389 74.3971C210.78 73.7061 210.976 72.8843 210.976 71.9318Z" fill="white"/>
<path d="M219.811 62.3789C219.121 62.3789 218.543 62.1641 218.076 61.7346C217.629 61.2863 217.405 60.7354 217.405 60.0817C217.405 59.428 217.629 58.8864 218.076 58.4569C218.543 58.0086 219.121 57.7845 219.811 57.7845C220.502 57.7845 221.071 58.0086 221.518 58.4569C221.985 58.8864 222.218 59.428 222.218 60.0817C222.218 60.7354 221.985 61.2863 221.518 61.7346C221.071 62.1641 220.502 62.3789 219.811 62.3789ZM221.742 64.2278V79.7479H217.825V64.2278H221.742Z" fill="white"/>
</svg>
