<svg width="422" height="476" viewBox="0 0 422 476" fill="none" xmlns="http://www.w3.org/2000/svg">
<path opacity="0.1" fill-rule="evenodd" clip-rule="evenodd" d="M142.808 36.0284C142.808 37.4529 142.892 38.8578 143.057 40.2381C132.808 42.7371 123.159 45.9673 114.086 49.826C107.988 39.3355 96.6277 32.2823 83.6199 32.2823C64.1723 32.2823 48.407 48.0477 48.407 67.4953C48.407 75.7704 51.2614 83.3788 56.0394 89.3896C55.9975 89.4319 55.9557 89.4742 55.9139 89.5165C55.87 89.5609 55.8262 89.6053 55.7823 89.6497L55.5788 89.8564C47.4239 98.1495 40.1435 107.054 33.6838 116.344C28.5302 113.389 22.5578 111.699 16.1908 111.699C10.3532 111.699 4.84729 113.119 0 115.634V178.19C0.917246 178.666 1.85807 179.102 2.82027 179.497C1.80912 182.653 0.869606 185.797 0 188.924V201.164C1.54085 194.388 3.41565 187.479 5.64326 180.518C8.97334 181.562 12.5164 182.125 16.1908 182.125C35.6384 182.125 51.4038 166.359 51.4038 146.912C51.4038 134.906 45.396 124.305 36.223 117.948C42.5706 108.831 49.7184 100.095 57.7178 91.9599L57.8151 91.8609L58.0101 91.6633C64.4302 98.464 73.5294 102.708 83.6199 102.708C103.067 102.708 118.833 86.9428 118.833 67.4953C118.833 62.1291 117.633 57.0433 115.486 52.4917C124.275 48.7679 133.619 45.6407 143.54 43.2082C146.856 59.2127 161.033 71.2413 178.021 71.2413C196.831 71.2413 212.197 56.4919 213.183 37.9273C222.181 38.5655 231.507 39.6743 241.17 41.2911C240.539 43.9292 240.205 46.6826 240.205 49.5141C240.205 68.9617 255.97 84.727 275.418 84.727C294.865 84.727 310.631 68.9617 310.631 49.5141C310.631 30.0665 294.865 14.3012 275.418 14.3012C259.858 14.3012 246.655 24.3933 241.999 38.3889C232.06 36.7158 222.469 35.5737 213.216 34.9237C212.633 15.9873 197.099 0.81543 178.021 0.81543C158.573 0.81543 142.808 16.5808 142.808 36.0284ZM0 373.055C17.5696 398.638 45.5383 426.786 65.3508 439.853C68.5793 439.853 71.9241 439.818 75.3652 439.782H75.3657H75.3661H75.3666H75.3671H75.3676H75.3681C110.912 439.41 156.729 438.93 190.757 475.815C169.491 401.109 82.2506 373.023 0 353.06V373.055ZM0 346.597C4.51212 347.988 9.20657 349.421 14.0372 350.895L14.0445 350.897L14.0461 350.897C60.5539 365.088 119.685 383.13 150.3 405.389C130.294 378.225 64.3602 322.795 0 294.228V346.597ZM0 276.202C17.1831 273.867 30.4259 259.136 30.4259 241.312C30.4259 223.488 17.1831 208.757 0 206.422V276.202ZM358.58 107.953C358.58 123.262 346.169 135.673 330.86 135.673C315.55 135.673 303.139 123.262 303.139 107.953C303.139 92.6428 315.55 80.2318 330.86 80.2318C346.169 80.2318 358.58 92.6428 358.58 107.953ZM231.214 340.957C367.271 318.781 415.52 159.648 390.796 102.708C386.601 156.052 356.582 188.368 342.098 197.858C294.748 137.921 232.463 127.932 207.24 130.429C342.847 155.153 316.625 316.983 231.214 340.957ZM142.807 164.893C142.807 180.203 130.396 192.614 115.087 192.614C99.7769 192.614 87.3658 180.203 87.3658 164.893C87.3658 149.583 99.7769 137.172 115.087 137.172C130.396 137.172 142.807 149.583 142.807 164.893ZM184.014 367.18C71.3331 361.786 52.9025 243.56 75.3788 195.611C77.1269 208.347 84.519 235.469 94.1089 239.065C114.992 196.553 210.118 171.118 216.893 232.97C217.437 234.908 217.729 236.952 217.729 239.065C217.729 251.478 207.666 261.541 195.252 261.541C182.839 261.541 172.776 251.478 172.776 239.065C172.776 226.651 182.839 216.588 195.252 216.588C196.826 216.588 198.361 216.75 199.843 217.058C168.04 198.62 130.738 235.776 126.325 266.036C121.935 296.142 143.557 346.951 184.014 367.18ZM421.514 281.02C349.59 299.601 262.681 370.177 239.456 401.643C269.213 380.055 326.689 362.556 371.895 348.793C384.735 344.883 396.586 341.275 406.53 337.96C416.12 315.184 421.015 290.011 421.514 281.02ZM194.503 475.066C216.979 396.399 312.878 369.427 399.038 349.199C387.05 378.418 346.593 421.872 320.371 439.104C317.13 439.104 313.773 439.069 310.319 439.033H310.318H310.318H310.317H310.317H310.316C274.642 438.661 228.656 438.181 194.503 475.066Z" fill="white"/>
</svg>
