<svg width="35" height="35" viewBox="0 0 35 35" fill="none" xmlns="http://www.w3.org/2000/svg">
<g clip-path="url(#clip0_65_282)">
<path d="M17.5 0C12.8598 0 8.40547 1.84488 5.12695 5.12559C1.84505 8.40759 0.000909097 12.8586 0 17.5C0 22.1394 1.8457 26.5937 5.12695 29.8744C8.40547 33.1551 12.8598 35 17.5 35C22.1402 35 26.5945 33.1551 29.873 29.8744C33.1543 26.5937 35 22.1394 35 17.5C35 12.8606 33.1543 8.40629 29.873 5.12559C26.5945 1.84488 22.1402 0 17.5 0Z" fill="url(#paint0_linear_65_282)"/>
<path d="M7.92148 17.3151C13.0238 15.0926 16.4254 13.6272 18.1262 12.9193C22.9879 10.8978 23.9969 10.5467 24.6559 10.5348C24.8008 10.5324 25.1234 10.5683 25.334 10.7385C25.509 10.882 25.5582 11.0762 25.5828 11.2125C25.6047 11.3487 25.6348 11.659 25.6102 11.9013C25.3477 14.6685 24.2074 21.3835 23.6277 24.483C23.3844 25.7944 22.9004 26.234 22.4328 26.277C21.4156 26.3705 20.6445 25.6054 19.6602 24.9604C18.1207 23.9506 17.2512 23.3222 15.7555 22.337C14.0273 21.1984 15.1484 20.5725 16.1328 19.5499C16.3898 19.2822 20.8687 15.2093 20.9535 14.8399C20.9644 14.7937 20.9754 14.6214 20.8715 14.5307C20.7703 14.4396 20.6199 14.4708 20.5105 14.4954C20.3547 14.5304 17.8965 16.1568 13.1277 19.3743C12.4305 19.8539 11.7988 20.0877 11.2301 20.0754C10.6066 20.062 9.40351 19.7221 8.50937 19.4317C7.41562 19.0755 6.54335 18.8871 6.61992 18.2819C6.6582 17.9669 7.09296 17.6446 7.92148 17.3151Z" fill="white"/>
</g>
<defs>
<linearGradient id="paint0_linear_65_282" x1="1750" y1="0" x2="1750" y2="3500" gradientUnits="userSpaceOnUse">
<stop stop-color="#2AABEE"/>
<stop offset="1" stop-color="#229ED9"/>
</linearGradient>
<clipPath id="clip0_65_282">
<rect width="35" height="35" fill="white"/>
</clipPath>
</defs>
</svg>
