<?xml version="1.0" standalone="no"?>
<!DOCTYPE svg PUBLIC "-//W3C//DTD SVG 20010904//EN"
 "http://www.w3.org/TR/2001/REC-SVG-20010904/DTD/svg10.dtd">
<svg version="1.0" xmlns="http://www.w3.org/2000/svg"
 width="1500.000000pt" height="1000.000000pt" viewBox="0 0 1500.000000 1000.000000"
 preserveAspectRatio="xMidYMid meet">
<metadata>
Created by potrace 1.16, written by Peter Selinger 2001-2019
</metadata>
<g transform="translate(0.000000,1000.000000) scale(0.100000,-0.100000)"
fill="#000000" stroke="none">
<path d="M9130 9960 c0 -29 4 -40 15 -40 8 0 15 -7 15 -15 0 -8 9 -15 20 -15
11 0 20 -7 20 -15 0 -8 -9 -15 -20 -15 -11 0 -20 5 -20 10 0 6 -9 10 -20 10
-11 0 -20 -4 -20 -10 0 -5 7 -10 16 -10 8 0 22 -7 31 -16 14 -14 14 -16 -3
-29 -18 -13 -18 -14 3 -34 28 -27 34 -26 32 2 -3 37 0 57 11 57 6 0 8 -15 4
-40 -5 -33 -4 -40 10 -40 12 0 16 -9 15 -32 -2 -28 -3 -29 -6 -8 -4 23 -8 26
-46 25 -65 -3 -67 -3 -67 -29 0 -13 -6 -26 -12 -29 -7 -2 -10 -7 -7 -11 11
-11 38 5 32 20 -4 10 3 14 27 14 24 0 31 -4 27 -14 -3 -8 -1 -17 6 -20 7 -4 1
-4 -13 -1 -14 2 -31 0 -39 -4 -10 -6 -6 -11 15 -19 29 -10 29 -10 4 -12 -25
-1 -25 -1 5 -15 17 -7 23 -14 15 -15 -11 -1 -9 -4 5 -10 16 -7 13 -9 -17 -9
-46 -1 -68 -10 -68 -26 0 -9 14 -11 50 -7 40 4 50 2 50 -11 0 -11 -13 -16 -47
-19 -27 -2 -51 0 -54 5 -4 5 -9 4 -13 -2 -8 -13 18 -26 34 -16 6 4 10 -8 10
-32 1 -21 7 -56 15 -78 8 -21 12 -42 9 -45 -9 -9 -34 32 -34 57 0 22 -1 22
-20 6 -11 -10 -20 -23 -20 -30 0 -7 -4 -13 -10 -13 -5 0 -10 -5 -10 -11 0 -7
9 -9 21 -6 32 9 49 -2 49 -32 0 -15 -3 -21 -8 -14 -4 6 -24 14 -45 18 -31 6
-37 4 -37 -10 0 -9 9 -19 20 -22 11 -3 20 -9 20 -14 0 -20 -25 -89 -32 -89 -5
0 -8 -25 -8 -55 0 -42 -3 -55 -15 -55 -8 0 -15 -5 -15 -11 0 -6 8 -9 19 -6 14
3 17 0 14 -14 -4 -12 2 -19 19 -22 12 -2 8 -3 -10 -1 -19 2 -30 -1 -26 -7 3
-5 1 -16 -5 -23 -9 -11 -5 -15 19 -19 32 -7 40 -24 15 -33 -8 -4 -15 -11 -15
-16 0 -5 -10 -18 -22 -28 -19 -15 -21 -21 -10 -31 18 -19 15 -28 -10 -21 -18
4 -20 2 -16 -16 4 -15 0 -25 -10 -32 -16 -9 -16 -9 0 -10 9 0 18 5 20 12 3 7
12 9 22 5 15 -6 16 -10 6 -22 -7 -8 -23 -15 -36 -15 -13 0 -24 -5 -24 -10 0
-6 6 -10 13 -9 23 3 37 -1 37 -11 0 -5 -10 -10 -22 -10 -24 0 -63 -20 -40 -20
6 0 12 -8 12 -17 1 -17 1 -17 11 0 11 18 49 24 49 7 0 -5 -7 -7 -15 -4 -11 5
-15 -2 -15 -26 0 -24 4 -31 15 -26 8 3 15 1 15 -4 0 -17 -38 -11 -48 7 -7 11
-9 -2 -8 -43 1 -57 0 -59 -29 -65 -19 -4 -23 -7 -10 -8 11 -1 27 -5 35 -11 12
-7 12 -13 1 -34 -9 -15 -11 -37 -7 -60 6 -32 4 -36 -14 -36 -13 0 -20 -7 -20
-19 0 -11 -4 -23 -10 -26 -15 -10 -12 -35 5 -35 8 0 15 -4 15 -10 0 -5 -9 -10
-21 -10 -15 0 -19 -5 -15 -18 4 -13 -1 -23 -19 -32 -20 -11 -25 -21 -25 -52 0
-35 2 -38 28 -38 25 -1 26 -1 7 -12 -11 -6 -24 -17 -28 -25 -4 -7 -19 -13 -32
-13 -14 0 -25 -5 -25 -11 0 -5 8 -9 18 -8 30 3 38 -1 22 -11 -12 -8 -11 -10 6
-10 25 0 289 142 280 151 -2 2 5 5 17 5 40 3 129 32 148 50 10 9 25 14 34 10
11 -4 14 -2 9 6 -5 8 -2 9 10 5 12 -5 31 3 56 23 21 16 43 30 49 30 7 0 29 10
51 22 34 20 43 21 72 11 18 -7 87 -14 153 -18 l120 -5 110 -54 c61 -29 126
-57 145 -61 35 -8 100 -35 110 -46 3 -3 21 -11 40 -19 91 -35 295 -146 366
-199 187 -139 314 -319 379 -536 14 -50 32 -103 40 -120 24 -54 26 -90 4 -108
-26 -23 -24 -43 7 -64 26 -17 26 -18 20 -107 -9 -123 -9 -126 -19 -126 -5 0
-7 -6 -4 -14 3 -8 1 -17 -6 -19 -8 -3 -5 -12 9 -28 12 -13 25 -34 28 -45 6
-20 3 -21 -33 -19 l-39 2 -5 -51 c-2 -28 -9 -69 -15 -91 -6 -22 -13 -56 -15
-75 -11 -72 -58 -223 -87 -278 -16 -31 -30 -64 -30 -73 0 -19 -50 -97 -90
-139 -23 -25 -36 -30 -73 -30 -40 0 -46 -3 -52 -27 -10 -39 -89 -158 -147
-219 l-51 -54 11 -42 c7 -24 13 -56 14 -72 3 -26 9 -31 48 -42 54 -15 105 -34
145 -55 17 -9 75 -28 130 -43 314 -84 434 -136 558 -244 21 -18 63 -44 94 -58
61 -26 73 -38 73 -68 0 -10 21 -42 48 -70 73 -80 148 -227 202 -394 27 -81 78
-238 115 -350 36 -112 75 -240 85 -285 27 -111 81 -283 123 -392 23 -59 39
-123 47 -185 6 -52 20 -133 30 -180 67 -308 78 -417 56 -581 l-8 -65 41 -48
c38 -44 41 -52 41 -105 l0 -58 140 -28 c77 -15 144 -33 149 -39 6 -7 -26 -131
-88 -339 -85 -291 -99 -330 -121 -342 -19 -10 -71 -13 -225 -10 -119 3 -188 1
-170 -4 17 -5 65 -9 108 -10 97 -1 207 -19 232 -37 40 -29 2 -32 -214 -14
-147 12 -513 12 -566 0 -45 -10 -115 -76 -115 -108 0 -16 10 -20 77 -26 112
-9 172 -7 196 6 23 12 461 57 563 58 39 0 67 -5 80 -15 21 -17 17 -23 -44 -56
-22 -12 -31 -26 -36 -55 -3 -22 -19 -65 -35 -98 -26 -53 -27 -61 -15 -84 11
-22 11 -29 0 -40 -13 -14 -186 -41 -262 -42 -23 0 -57 -6 -75 -14 -19 -7 -92
-17 -164 -21 -83 -4 -138 -12 -152 -21 -14 -9 -67 -16 -150 -20 -70 -3 -139
-10 -153 -15 -14 -5 -54 -12 -90 -15 -212 -18 -223 -19 -233 -35 -17 -26 0
-49 50 -70 27 -11 64 -28 83 -38 35 -19 58 -31 240 -118 52 -25 102 -50 110
-55 46 -27 137 -68 152 -68 9 0 19 -4 22 -9 9 -15 108 -67 141 -75 17 -4 48
-19 69 -33 25 -16 61 -28 98 -32 66 -8 77 -15 61 -39 -8 -13 -22 -16 -54 -14
-24 2 -48 7 -53 12 -6 6 -19 10 -29 10 -10 0 -31 7 -45 15 -40 21 -342 165
-347 165 -3 0 -45 18 -93 41 -48 22 -105 49 -127 59 -22 10 -87 41 -145 68
-151 71 -228 107 -285 132 -27 13 -86 40 -130 60 -177 83 -394 167 -415 161
-3 -1 -5 -9 -5 -19 0 -30 -14 -41 -60 -48 -25 -3 -48 -10 -50 -14 -15 -24 152
-141 355 -249 30 -16 90 -50 133 -75 43 -25 80 -46 82 -46 2 0 60 -33 127 -73
68 -40 148 -86 178 -101 30 -16 98 -54 150 -86 272 -163 538 -301 610 -315 19
-4 67 -21 105 -37 63 -27 80 -30 175 -29 58 0 121 3 140 6 19 4 72 8 116 9 45
2 88 7 95 12 8 4 52 9 99 10 121 3 284 20 308 33 25 14 76 14 120 2 21 -7 43
-6 59 0 17 6 30 6 38 -1 10 -8 15 -8 20 0 4 7 18 9 32 6 13 -4 29 -3 36 1 14
9 88 12 82 3 -2 -3 4 -6 13 -6 9 -1 34 -4 55 -9 25 -5 37 -4 37 4 0 8 6 7 20
-1 16 -10 24 -10 40 0 16 10 20 10 20 0 0 -8 15 -14 34 -15 26 -2 36 2 39 15
4 15 5 15 6 0 1 -14 8 -16 39 -11 20 3 40 11 44 17 5 7 19 7 48 0 24 -7 43 -8
46 -2 4 5 10 5 17 -1 14 -11 137 -10 137 1 0 4 -9 8 -21 8 -12 0 -17 4 -14 11
4 6 13 8 21 5 8 -3 14 -1 14 4 0 5 16 20 35 32 19 13 35 29 35 36 0 7 12 12
28 11 24 0 25 -1 7 -9 -16 -7 -13 -9 17 -9 30 -1 36 -4 31 -17 -5 -14 -3 -14
16 -3 12 8 24 22 27 31 7 22 20 23 27 4 5 -12 22 -14 84 -10 42 3 80 9 84 15
8 13 197 21 204 9 7 -12 84 -2 103 13 8 6 12 6 12 -3 0 -9 3 -10 14 -1 7 6 21
9 30 5 9 -4 16 -1 16 6 0 7 7 10 15 6 9 -3 18 1 21 9 5 11 24 15 80 15 43 0
74 4 74 10 0 6 5 10 10 10 6 0 10 -7 10 -15 0 -8 5 -15 10 -15 6 0 10 7 10 16
0 10 6 14 15 10 8 -3 15 0 15 6 0 7 4 7 14 -1 10 -9 16 -8 26 4 10 12 15 12
35 -1 18 -12 29 -13 43 -5 16 8 21 7 26 -5 5 -13 9 -13 31 2 l25 16 0 1778 0
1778 -47 -4 c-27 -2 -140 -11 -253 -19 -113 -9 -284 -22 -380 -31 -96 -8 -204
-17 -240 -20 -105 -7 -922 -74 -960 -78 -48 -5 -60 2 -60 36 0 40 14 62 53 87
34 21 32 21 452 51 267 20 272 21 292 42 16 18 18 45 18 347 0 351 3 373 47
350 13 -7 65 -7 171 1 84 6 204 15 267 20 63 5 119 9 124 9 5 1 6 93 2 219 -4
119 -9 336 -12 481 -3 145 -7 268 -10 273 -3 4 0 8 7 8 8 0 9 3 4 9 -11 11 -2
450 10 539 8 61 28 78 72 61 47 -17 74 -50 115 -139 28 -59 41 -104 45 -145 2
-33 12 -78 21 -100 10 -27 16 -77 17 -150 4 -205 45 -748 60 -790 8 -24 19
-118 25 -230 11 -182 29 -468 30 -472 0 -1 7 -9 16 -17 10 -10 33 -16 65 -16
l49 0 0 1285 c0 1170 -1 1288 -16 1311 -10 14 -16 43 -16 72 1 34 -5 56 -23
82 -23 34 -55 137 -55 178 0 36 40 54 88 38 20 -7 22 -4 22 24 0 20 -4 29 -11
24 -6 -3 -22 -1 -35 7 -28 15 -33 44 -6 36 50 -14 47 -27 48 207 l2 220 -59
-62 c-60 -63 -87 -74 -127 -53 -9 5 -24 12 -33 15 -9 2 -29 21 -44 41 -24 31
-26 39 -16 61 6 14 11 36 11 50 0 34 32 93 68 128 25 23 29 33 22 51 -6 17 -3
31 15 57 15 23 21 43 18 61 -4 22 2 34 32 62 21 19 39 45 41 59 1 13 10 38 18
54 9 17 16 53 17 79 0 26 7 82 16 123 9 41 18 136 20 210 l3 135 -20 -25 c-34
-42 -72 -131 -83 -198 -8 -52 -17 -70 -49 -102 -45 -47 -83 -52 -116 -17 -29
31 -28 60 7 121 43 75 66 176 51 221 -11 33 -9 41 24 105 20 38 36 82 36 98 0
31 -22 58 -39 48 -5 -3 -11 -2 -13 4 -2 6 -15 4 -32 -5 -15 -8 -34 -15 -41
-15 -7 0 -20 -15 -28 -32 -9 -18 -25 -43 -37 -55 -16 -18 -19 -27 -10 -42 5
-11 10 -40 10 -65 0 -25 5 -48 10 -51 20 -12 9 -47 -25 -83 -31 -31 -36 -42
-33 -77 3 -38 4 -40 36 -39 23 2 32 -3 33 -15 3 -32 -2 -46 -23 -63 -21 -19
-52 -104 -42 -120 3 -5 6 -24 6 -43 0 -18 6 -36 13 -38 7 -3 15 -24 19 -48 5
-34 3 -45 -13 -60 -23 -22 -86 -49 -113 -49 -16 0 -18 -3 -9 -13 6 -8 8 -17 4
-20 -6 -7 0 -9 30 -11 6 -1 18 -7 25 -13 7 -7 24 -13 37 -13 13 0 25 -5 27
-12 6 -16 46 15 86 67 59 76 79 95 100 95 16 0 23 -8 28 -35 5 -31 0 -46 -47
-121 -38 -59 -65 -92 -91 -106 -21 -12 -38 -26 -38 -32 0 -5 -8 -18 -17 -28
-9 -10 -17 -26 -18 -36 -2 -29 -15 -42 -44 -42 -37 0 -63 21 -63 52 0 34 -24
46 -120 58 -181 23 -300 52 -355 86 -26 16 -30 46 -8 64 11 9 31 9 92 -4 43
-8 107 -18 143 -21 36 -4 98 -14 137 -22 40 -9 75 -14 78 -11 3 2 2 19 -1 37
-5 21 -12 31 -23 30 -21 -3 -101 34 -127 59 -11 10 -29 24 -40 29 -20 10 -164
45 -267 64 l-59 11 22 23 c15 16 51 30 120 46 81 20 95 26 81 35 -14 10 -16
23 -10 76 4 46 2 71 -9 92 -8 16 -16 43 -18 60 -11 88 -16 96 -84 129 -40 20
-66 39 -68 51 -4 18 1 19 66 13 81 -7 87 -1 70 60 -23 88 -27 112 -32 183 -3
41 -9 85 -12 98 -6 20 -3 22 27 22 50 -1 69 -21 79 -82 5 -29 13 -73 20 -97 6
-26 7 -48 2 -55 -10 -11 4 -128 17 -156 5 -8 24 -21 44 -27 52 -18 187 -93
187 -105 0 -24 -23 -48 -45 -48 -13 0 -50 11 -81 25 -69 30 -71 31 -80 3 -14
-41 7 -156 30 -170 6 -4 40 -8 76 -8 80 0 117 -24 127 -82 4 -25 2 -38 -6 -38
-23 0 -9 -26 24 -42 l34 -17 3 37 c2 20 -3 62 -10 92 -22 89 -25 120 -13 120
16 0 13 50 -4 80 -19 32 -19 68 0 104 8 15 15 37 15 48 0 19 -73 98 -90 98
-13 0 -13 17 0 25 6 4 4 12 -5 21 -8 9 -15 22 -15 31 0 34 63 56 88 31 17 -17
26 -3 13 20 -26 49 -4 141 38 160 14 6 38 31 53 54 15 24 42 59 59 78 46 52
79 96 79 106 0 5 -9 10 -20 10 -10 0 -17 -2 -16 -4 6 -5 -72 -82 -83 -82 -5 0
-11 -6 -14 -12 -5 -15 -9 -7 -27 64 -14 53 -24 64 -59 70 -31 4 -37 21 -15 42
14 15 16 39 15 164 0 81 -2 158 -3 172 -1 14 2 71 7 128 l8 102 -69 0 c-65 0
-67 -1 -46 -16 28 -19 28 -38 0 -64 -20 -19 -67 -27 -80 -14 -10 10 10 65 29
81 16 12 13 13 -32 8 -59 -6 -68 -6 -163 1 -47 4 -78 2 -86 -6 -23 -18 -56
-20 -93 -5 -20 8 -46 15 -59 15 -20 0 -23 -6 -31 -57 -4 -32 -6 -132 -3 -223
2 -91 4 -208 3 -260 0 -52 0 -212 -1 -355 -1 -170 3 -273 10 -298 9 -29 9 -46
-1 -72 -8 -24 -9 -45 -2 -76 14 -58 14 -214 0 -262 -7 -28 -7 -48 2 -75 9 -26
12 -100 11 -254 -2 -130 1 -219 7 -222 5 -3 35 -8 68 -11 32 -3 87 -11 123
-18 78 -17 227 -10 223 11 -5 22 35 13 55 -13 25 -31 65 -48 81 -32 11 11 115
17 125 6 3 -3 10 -26 14 -51 5 -26 20 -58 35 -74 35 -38 34 -65 -3 -93 -24
-17 -41 -21 -80 -18 -58 4 -64 -4 -16 -21 45 -17 106 -84 107 -120 0 -15 0
-57 -1 -94 -1 -43 3 -68 9 -68 22 0 9 -19 -81 -112 -57 -59 -104 -98 -120
-102 -26 -6 -28 -4 -28 25 0 26 13 44 80 107 44 42 80 81 80 87 0 6 -17 21
-39 33 -49 28 -61 43 -68 84 -6 42 -34 101 -74 156 -23 32 -28 47 -20 55 21
21 11 34 -32 46 -66 19 -97 20 -171 9 -58 -10 -79 -9 -140 7 -39 10 -80 26
-91 35 -25 22 -45 15 -45 -15 0 -43 -17 -36 -30 13 -9 34 -14 186 -16 547 -1
275 -6 606 -10 735 -8 270 -9 274 -12 713 l-2 327 -1020 0 -1020 0 -1 -137
c-1 -76 -2 -151 -4 -168 -1 -16 -5 -131 -9 -255 -3 -124 -8 -295 -11 -380 -2
-85 -7 -281 -10 -435 -5 -246 -11 -425 -30 -935 -2 -69 -7 -168 -10 -220 -3
-52 -7 -138 -10 -190 -2 -52 -4 -98 -4 -102 -1 -5 -8 -8 -17 -8 -14 0 -14 3
-4 15 10 13 9 15 -10 15 -18 0 -20 3 -11 14 9 11 9 25 1 56 -8 29 -8 45 -1 54
6 7 7 16 3 20 -4 4 -8 24 -9 44 -3 61 -15 122 -24 127 -4 3 -4 18 2 32 7 18 6
30 -1 37 -5 5 -10 27 -10 48 0 21 -3 38 -7 38 -5 0 -9 15 -9 33 -1 17 -2 41
-3 52 0 11 -1 30 -1 43 -1 77 -8 141 -19 167 -8 20 -9 31 -2 33 8 3 7 10 0 24
-8 16 -8 22 2 29 7 4 14 20 16 36 3 25 2 26 -10 11 -12 -15 -13 -7 -9 56 2 42
0 81 -6 93 -8 15 -8 23 1 32 9 9 9 16 0 30 -7 11 -10 35 -6 55 4 24 2 36 -6
36 -6 0 -11 -8 -12 -17 0 -11 -3 -13 -6 -6 -2 7 3 23 11 35 13 18 15 36 10 83
-4 33 -12 63 -18 67 -8 5 -7 16 2 40 8 22 9 34 1 39 -7 4 -11 59 -13 145 -1
76 -4 144 -8 149 -3 6 -5 48 -4 95 1 47 -2 95 -6 108 -4 12 -3 33 2 47 5 14 6
27 0 30 -5 3 -6 21 -3 40 4 26 2 36 -11 41 -21 8 -20 33 2 50 16 13 16 13 -1
14 -17 0 -17 1 -3 16 9 9 13 21 9 27 -5 7 -8 19 -8 27 -1 8 -5 49 -9 90 -13
111 -14 144 -3 158 6 8 6 12 -2 12 -15 0 -14 27 2 34 8 3 6 9 -7 20 -19 16
-19 16 3 16 12 0 19 4 16 10 -4 6 -11 8 -16 5 -5 -4 -9 1 -9 9 0 9 5 15 12 14
6 -2 14 6 16 16 3 14 0 17 -12 13 -9 -4 -16 -2 -16 3 0 6 4 10 9 10 10 0 24
122 15 144 -6 15 -110 16 -1220 16 l-1214 0 0 -40z m5087 -103 c6 -4 8 -67 6
-149 -4 -158 -6 -184 -18 -211 -5 -13 0 -32 15 -59 18 -33 20 -44 11 -64 -18
-40 -13 -54 29 -100 69 -75 48 -102 -72 -91 -67 6 -88 18 -70 40 13 16 -4 44
-51 87 -16 14 -31 38 -32 54 -2 16 -16 42 -32 58 -25 26 -28 37 -31 111 -2 45
1 107 6 138 10 52 72 175 96 191 12 8 129 4 143 -5z m260 -2491 c23 -20 26
-28 17 -43 -6 -10 -29 -24 -50 -31 -21 -7 -52 -19 -69 -26 -16 -8 -51 -17 -77
-21 -43 -7 -48 -5 -48 12 0 52 22 85 74 109 67 31 117 31 153 0z m178 -454
c38 -26 100 -199 93 -258 -2 -23 -15 -35 -68 -66 -103 -59 -135 -52 -169 42
-22 61 -35 81 -71 120 -53 57 -60 68 -54 84 13 33 45 29 81 -10 33 -37 35 -38
49 -19 8 10 14 31 14 46 0 31 13 44 60 57 44 13 53 13 65 4z m226 -53 c18 -24
29 -83 29 -154 0 -53 -24 -78 -71 -73 -30 3 -37 10 -61 58 -15 30 -33 77 -40
104 -13 47 -12 48 16 73 24 21 37 24 70 20 25 -4 46 -14 57 -28z m-101 -303
c38 -47 47 -201 14 -253 -31 -50 -91 -33 -123 35 -9 20 -29 58 -44 83 -43 72
-22 108 83 143 29 9 58 6 70 -8z m85 -328 c20 -18 29 -39 38 -91 13 -79 5
-100 -40 -105 -36 -4 -42 3 -82 95 -33 75 -32 99 3 113 35 14 53 11 81 -12z"/>
<path d="M8681 7928 c-5 -13 -16 -30 -25 -37 -9 -7 -16 -20 -16 -28 0 -8 -5
-11 -10 -8 -6 4 -8 15 -5 26 4 11 2 19 -4 19 -6 0 -11 -6 -12 -12 -4 -63 -8
-71 -42 -73 -16 -1 -22 -9 -24 -26 -3 -57 -2 -55 -13 -39 -9 13 -11 13 -20 0
-5 -8 -7 -26 -5 -39 2 -14 1 -20 -5 -15 -4 5 -11 23 -13 39 -3 18 -5 11 -4
-17 1 -25 -2 -44 -6 -41 -4 3 -7 -8 -5 -24 3 -25 0 -28 -24 -26 -19 1 -28 -3
-28 -13 0 -8 6 -14 13 -14 8 0 7 -4 -3 -10 -8 -5 -15 -20 -15 -32 0 -16 -5
-22 -17 -20 -10 2 -18 -2 -18 -8 0 -5 5 -10 10 -10 6 0 10 -5 10 -12 0 -9 -3
-9 -12 0 -16 16 -28 15 -28 -2 0 -7 -7 -19 -15 -26 -9 -7 -14 -19 -11 -27 3
-7 1 -13 -4 -13 -6 0 -10 6 -10 13 0 6 -5 4 -11 -6 -5 -9 -7 -22 -4 -27 3 -6
-1 -17 -10 -26 -9 -9 -19 -29 -22 -45 -3 -16 -11 -29 -17 -29 -7 0 -18 -22
-26 -49 -9 -33 -20 -51 -32 -54 -10 -3 -18 -9 -17 -14 5 -31 -3 -63 -16 -63
-9 0 -18 -7 -21 -15 -4 -8 -15 -15 -25 -15 -12 0 -16 -5 -13 -15 4 -9 0 -15
-10 -15 -9 0 -16 -4 -16 -8 0 -12 -65 -30 -130 -37 -319 -32 -510 -42 -544
-29 -9 3 -23 21 -32 40 -12 25 -26 36 -54 44 -33 9 -39 15 -44 48 -15 86 -17
90 -48 103 -23 9 -35 10 -49 1 -27 -17 -91 -15 -118 4 -32 23 -107 29 -115 9
-4 -12 -14 -10 -56 11 -51 26 -90 25 -90 -1 0 -8 -9 -17 -20 -20 -11 -3 -25
-15 -30 -26 -7 -12 -21 -19 -40 -19 -36 0 -77 -18 -84 -37 -3 -8 5 -36 19 -63
31 -62 31 -82 1 -117 l-24 -28 -264 0 c-313 0 -312 0 -346 -99 -51 -146 -78
-269 -86 -390 -4 -50 -11 -95 -15 -100 -5 -6 -12 -26 -16 -43 -3 -18 -17 -41
-31 -52 -13 -10 -24 -23 -24 -27 0 -5 -18 -22 -40 -38 -22 -17 -40 -34 -40
-38 0 -4 -29 -38 -65 -74 -36 -36 -65 -71 -65 -78 0 -6 -14 -20 -31 -30 -17
-10 -35 -29 -41 -42 -6 -13 -17 -24 -24 -24 -7 0 -11 -6 -8 -13 2 -7 -4 -22
-16 -32 -11 -10 -20 -24 -20 -32 0 -7 -7 -13 -16 -13 -8 0 -12 -5 -9 -11 4 -6
-2 -17 -14 -25 -12 -8 -21 -22 -21 -30 0 -8 -11 -24 -25 -36 -14 -12 -25 -28
-25 -35 0 -7 -9 -21 -20 -30 -11 -10 -20 -22 -20 -29 0 -6 -11 -17 -25 -24
-14 -7 -25 -19 -25 -27 0 -7 -7 -13 -16 -13 -8 0 -32 -9 -52 -19 -20 -11 -66
-27 -102 -36 -36 -9 -92 -25 -125 -35 -80 -25 -214 -52 -225 -45 -4 3 -59 -4
-121 -14 -121 -20 -351 -42 -409 -40 -224 10 -637 -12 -624 -33 8 -13 56 -31
76 -29 9 1 19 -3 23 -9 4 -6 -4 -10 -19 -10 -14 0 -28 -5 -31 -10 -3 -6 -18
-7 -33 -4 -21 4 -24 3 -12 -5 17 -12 18 -12 -38 -16 -25 -2 -48 2 -55 9 -8 9
-22 10 -46 5 -19 -4 -58 -3 -88 3 -38 8 -69 8 -109 -1 -31 -6 -61 -8 -66 -5
-6 4 -13 2 -17 -4 -10 -17 -91 -18 -102 -2 -8 11 -12 12 -16 3 -6 -15 -33 -17
-33 -3 0 6 5 10 11 10 25 0 0 25 -27 27 -31 3 -56 -20 -48 -42 6 -15 -39 -29
-67 -20 -16 5 -18 10 -8 21 6 8 22 14 35 14 12 0 25 4 28 8 6 10 -268 16 -329
6 -43 -6 -45 -8 -31 -22 11 -11 35 -16 75 -17 33 0 63 -3 66 -7 11 -10 -54
-30 -80 -24 -14 4 -41 0 -61 -9 -41 -17 -131 -20 -136 -5 -2 6 -35 13 -75 16
-94 7 -132 -11 -133 -63 0 -30 -40 -32 -47 -3 -4 15 -9 18 -18 10 -13 -11 -45
-4 -45 11 0 21 -81 30 -158 18 -42 -7 -105 -14 -139 -15 -35 -2 -71 -8 -82
-14 -11 -5 -33 -10 -50 -10 -23 0 -29 -4 -25 -15 4 -8 1 -15 -5 -15 -6 0 -11
7 -11 16 0 8 -4 12 -10 9 -10 -6 -80 23 -80 34 0 4 -17 5 -39 3 -27 -3 -42
-10 -49 -25 -32 -68 -51 -116 -57 -145 -4 -18 -15 -37 -26 -43 -11 -5 -17 -14
-14 -20 4 -5 1 -9 -4 -9 -6 0 -14 -1 -17 -2 -7 -4 -39 86 -48 137 -4 22 -14
51 -21 65 -7 14 -18 37 -25 52 -11 23 -15 25 -36 16 -20 -9 -26 -7 -43 13 -18
22 -22 23 -53 11 -43 -15 -71 -15 -86 0 -8 8 -15 8 -26 -1 -10 -8 -16 -9 -21
-1 -3 5 -3 10 2 10 15 1 -42 29 -59 30 -9 0 -18 3 -20 8 -6 13 -65 42 -87 42
-12 0 -21 4 -21 9 0 6 15 8 33 5 129 -17 181 -22 192 -18 7 3 41 0 75 -6 34
-6 65 -8 68 -5 11 11 -22 25 -60 25 -20 0 -43 6 -50 13 -7 6 -22 13 -33 14
-39 3 -200 35 -220 43 -11 5 -31 12 -45 16 -14 4 -27 9 -30 13 -11 13 -67 48
-114 72 -58 29 -109 85 -102 114 7 26 -31 65 -63 65 -14 0 -53 -13 -86 -28
-33 -15 -89 -37 -125 -47 -36 -10 -79 -27 -96 -36 -17 -9 -46 -20 -65 -24 -19
-4 -55 -19 -81 -34 l-48 -26 0 -1407 c0 -810 4 -1408 9 -1408 5 0 23 6 42 14
19 8 49 11 72 8 23 -3 38 -1 34 4 -5 10 4 11 100 16 34 2 65 6 69 11 13 12 34
8 34 -8 0 -20 19 -19 27 1 5 13 7 13 14 2 7 -10 9 -10 9 0 0 7 14 12 35 12 19
0 35 -5 35 -10 0 -6 9 -5 23 3 14 9 51 13 110 12 66 -1 87 2 87 12 0 7 5 13
10 13 6 0 10 -9 10 -21 0 -20 3 -21 78 -15 148 12 227 11 224 -3 -2 -9 3 -11
15 -6 10 4 28 9 41 10 13 2 29 9 37 15 12 10 15 9 15 -4 0 -17 0 -17 105 8 55
14 152 11 171 -5 9 -7 16 -5 23 8 6 10 11 13 11 5 0 -9 5 -10 19 -3 10 6 21 8
24 5 3 -3 47 -7 98 -10 67 -3 95 -1 102 8 7 10 10 10 14 1 6 -15 43 -17 43 -3
0 6 14 10 30 10 17 0 30 -5 30 -11 0 -7 11 -9 30 -6 17 4 30 3 30 -1 0 -10
172 -9 187 1 7 4 30 4 50 -2 21 -5 55 -9 76 -10 20 0 46 -5 57 -11 11 -6 32
-7 46 -4 18 5 25 3 21 -3 -4 -7 9 -13 31 -17 82 -14 92 -18 92 -33 0 -13 2
-13 16 -2 14 11 19 10 33 -6 13 -16 31 -20 90 -23 76 -2 109 -15 92 -36 -6 -7
-9 -21 -9 -32 2 -16 7 -20 23 -16 16 4 18 2 8 -9 -18 -18 -16 -32 3 -25 9 4
23 1 30 -5 8 -6 14 -8 14 -3 0 5 8 0 18 -12 9 -11 38 -28 63 -38 35 -12 62
-35 114 -96 38 -43 76 -79 85 -78 34 3 48 -3 53 -22 3 -11 14 -20 24 -20 26 0
50 -49 31 -61 -7 -5 -19 -7 -26 -4 -8 3 -19 2 -25 -2 -7 -4 -17 -8 -24 -9 -7
-1 -42 -10 -79 -19 -44 -11 -69 -13 -73 -6 -10 15 -133 0 -231 -29 -25 -7 -72
-12 -104 -11 -33 1 -62 -2 -65 -7 -3 -5 -23 -12 -43 -15 -29 -4 -38 -2 -38 9
0 8 -4 14 -8 14 -5 0 -15 11 -22 25 -16 29 -23 31 -45 9 -11 -11 -32 -16 -63
-16 -95 3 -112 6 -112 23 0 9 -11 21 -25 27 -14 6 -25 17 -25 23 0 6 -7 9 -14
6 -10 -4 -13 -1 -10 8 10 25 -54 30 -129 10 -15 -4 -27 -10 -27 -14 0 -3 -18
-6 -40 -6 -22 0 -40 3 -40 7 0 5 -8 8 -18 8 -10 0 -23 5 -29 11 -8 8 -13 8
-17 0 -4 -6 -27 -11 -51 -11 -33 0 -45 -4 -48 -17 -4 -17 -5 -17 -6 0 -1 10
-9 17 -20 17 -11 0 -22 6 -25 13 -5 9 -7 9 -12 0 -3 -6 -39 -17 -80 -24 -41
-6 -74 -16 -74 -20 0 -5 -5 -9 -11 -9 -6 0 -8 10 -5 23 4 13 0 10 -10 -10 -11
-21 -33 -39 -63 -53 -55 -24 -83 -41 -93 -55 -5 -6 -8 -5 -8 3 0 16 -22 15
-57 -2 -56 -29 -101 -46 -122 -46 -24 0 -27 -10 -9 -28 9 -9 8 -12 -4 -12 -9
0 -19 6 -21 13 -4 9 -8 8 -16 -3 -8 -11 -9 -7 -4 19 4 23 3 32 -5 28 -18 -12
-40 3 -45 31 -3 15 -17 40 -32 56 -22 24 -31 27 -58 22 -17 -4 -35 -13 -40
-21 -8 -15 -62 -18 -82 -5 -17 12 -74 20 -79 11 -3 -5 -17 -11 -31 -13 -18 -4
-25 -1 -25 10 0 13 -3 12 -13 -3 -8 -10 -19 -15 -25 -11 -6 3 -29 -1 -51 -10
-33 -13 -44 -14 -56 -4 -12 10 -15 9 -15 -4 0 -10 -9 -16 -24 -16 -13 0 -26
-5 -28 -11 -5 -15 -115 -14 -128 1 -14 16 -60 39 -60 30 0 -7 -6 -8 -19 0 -25
13 -61 13 -61 0 0 -19 -47 -10 -74 15 -30 28 -43 30 -68 11 -17 -12 -18 -76
-18 -1080 l0 -1066 1435 0 1436 0 51 48 c28 26 70 67 92 91 35 37 96 93 321
290 17 14 77 67 135 116 58 50 123 106 145 126 22 21 67 59 100 85 64 52 191
158 345 289 52 45 127 105 165 135 67 52 205 171 400 346 75 67 90 85 88 107
-1 15 2 27 6 27 5 0 6 11 3 25 -2 15 0 25 7 25 6 0 11 5 11 10 0 19 -24 37
-42 32 -10 -2 -24 1 -32 7 -17 14 -47 4 -40 -14 3 -7 -8 -19 -26 -29 -29 -14
-35 -14 -53 -1 -12 8 -33 15 -47 15 -24 0 -60 29 -60 49 0 5 -7 14 -16 22 -12
10 -17 10 -23 1 -5 -9 -14 -5 -31 13 -23 25 -70 35 -70 15 0 -15 -29 -12 -46
5 -9 8 -23 15 -32 14 -14 0 -14 -2 2 -8 14 -5 16 -10 7 -15 -6 -4 -19 -2 -27
5 -12 10 -17 9 -27 -5 -12 -16 -14 -16 -26 -2 -12 15 -15 15 -27 -1 -13 -17
-15 -17 -28 0 -9 11 -15 14 -18 7 -6 -19 -78 -1 -79 19 0 10 -4 8 -10 -8 -8
-20 -12 -21 -25 -10 -13 10 -17 10 -24 -1 -11 -18 -70 -21 -104 -4 -16 8 -40
14 -53 14 -13 0 -23 6 -23 14 0 11 -8 11 -40 3 -22 -6 -35 -14 -29 -18 8 -5 8
-8 0 -13 -10 -7 -16 6 -12 28 1 4 -6 14 -15 21 -10 7 -15 19 -11 29 9 23 -6
20 -37 -9 -15 -14 -30 -25 -33 -25 -21 0 -84 -39 -99 -62 -14 -20 -27 -28 -50
-28 -20 0 -39 -9 -55 -26 -13 -14 -32 -30 -42 -35 -22 -13 -57 -2 -57 16 0 17
45 49 58 41 13 -8 73 24 67 35 -8 13 -45 11 -45 -2 0 -5 -4 -7 -10 -4 -5 3
-10 15 -10 27 0 14 5 18 16 14 13 -5 14 -1 9 24 -5 23 -3 30 9 31 33 3 37 4
45 17 4 7 15 10 24 6 18 -7 49 18 45 37 -2 7 19 18 47 27 103 30 119 37 125
60 3 12 13 31 23 43 13 15 15 24 8 33 -7 9 -7 16 1 24 10 10 5 11 -22 6 -24
-4 -31 -3 -21 4 10 7 4 9 -20 7 -38 -3 -59 9 -59 35 0 21 43 39 115 46 28 4
59 11 70 17 11 6 74 13 140 15 161 6 156 6 245 -22 30 -10 82 -25 115 -33 33
-8 76 -18 95 -23 19 -5 62 -15 95 -23 76 -18 86 -22 164 -60 35 -18 76 -44 91
-59 15 -15 30 -25 33 -21 4 3 10 -3 14 -13 4 -10 12 -23 19 -29 33 -26 62
-225 33 -225 -5 0 -6 -7 -3 -15 4 -8 1 -21 -5 -29 -13 -16 -4 -26 24 -26 41 0
298 236 274 251 -19 11 -27 84 -21 197 2 59 5 122 5 140 0 17 4 32 9 32 5 0 6
5 2 11 -8 14 -12 99 -18 439 -2 140 -7 262 -10 270 -4 8 -2 38 3 65 7 38 6 56
-5 77 -20 38 -18 94 5 117 25 25 33 64 20 98 -10 26 -13 54 -17 183 -2 39 -6
48 -30 62 -40 24 -81 27 -129 11 -51 -17 -81 -47 -111 -106 -12 -25 -40 -60
-61 -79 -22 -19 -46 -50 -54 -69 -8 -18 -31 -49 -50 -67 -20 -17 -38 -45 -42
-61 -4 -19 -38 -60 -95 -115 -49 -47 -93 -86 -99 -86 -5 0 -16 -17 -24 -38
-17 -43 -133 -164 -179 -188 -18 -9 -36 -32 -48 -58 -10 -23 -39 -64 -64 -89
-25 -26 -46 -51 -46 -57 0 -18 32 -90 40 -90 11 0 21 -45 14 -63 -10 -27 -67
-48 -102 -37 -69 19 -162 101 -162 141 0 40 -15 44 -44 12 -29 -31 -33 -58
-12 -70 44 -26 81 -126 58 -159 -21 -31 -76 -32 -134 -3 -35 18 -43 17 -39 -4
1 -4 -6 -21 -15 -38 -12 -24 -20 -30 -37 -25 -12 3 -30 6 -39 6 -9 0 -30 12
-47 26 -30 25 -32 25 -57 10 -22 -15 -60 -20 -145 -17 -31 1 -44 24 -29 51 17
31 12 57 -21 111 -18 28 -34 70 -37 95 -4 41 17 161 38 209 4 11 16 49 25 85
56 213 140 408 208 482 17 20 57 64 87 99 65 76 286 299 295 299 4 0 19 12 34
28 15 15 53 50 85 77 32 28 79 68 105 90 25 22 84 76 131 121 47 44 101 95
120 113 42 38 284 158 395 196 44 15 150 44 235 66 85 21 180 45 210 54 64 19
366 33 381 18 5 -5 15 -42 23 -81 l14 -72 -34 -43 c-39 -48 -41 -55 -16 -53
13 1 18 -8 20 -41 3 -34 0 -42 -17 -48 -31 -10 -41 2 -41 47 l0 40 -35 -6
c-61 -12 -165 -66 -165 -86 0 -4 19 -13 43 -19 62 -16 100 -50 99 -90 -1 -56
-50 -92 -115 -83 l-37 4 2 -51 c3 -57 -7 -72 -48 -73 -71 -2 -131 32 -138 78
-5 35 -31 39 -77 12 -49 -29 -245 -218 -299 -288 -19 -24 -48 -58 -64 -75 -32
-34 -96 -129 -96 -143 0 -5 -20 -26 -44 -47 -25 -22 -42 -44 -39 -52 3 -9 -3
-13 -19 -13 -26 0 -92 -62 -116 -110 -34 -65 -45 -81 -65 -91 -52 -29 -65 -64
-17 -47 17 5 38 23 47 39 10 16 25 31 35 34 21 7 88 86 108 128 8 17 34 44 58
60 24 16 42 36 42 47 0 10 15 29 33 41 17 13 33 26 35 30 2 4 12 17 23 30 10
12 19 28 19 34 0 7 7 18 15 25 9 7 14 19 11 26 -3 8 -2 13 2 13 24 -4 46 14
162 131 71 72 137 130 147 130 47 0 63 -14 95 -79 32 -65 34 -66 76 -69 25 -2
76 7 128 23 47 15 93 24 101 21 8 -3 12 -2 9 2 -3 5 23 17 56 27 81 24 102 13
134 -70 28 -74 34 -222 9 -231 -12 -5 -10 -10 8 -25 15 -12 17 -18 8 -19 -11
0 -9 -4 5 -15 18 -14 18 -16 2 -29 -10 -7 -18 -20 -18 -29 0 -9 -8 -18 -18
-21 -9 -3 -23 -15 -29 -25 -11 -17 -8 -23 29 -50 23 -17 46 -32 51 -34 14 -4
-33 -57 -60 -68 -26 -9 -30 -41 -14 -97 10 -32 9 -33 -16 -30 -15 2 -28 -3
-30 -9 -3 -7 0 -13 7 -13 6 0 17 -15 25 -32 l14 -33 1 39 c0 37 1 39 15 20 14
-19 15 -19 21 4 18 63 30 -4 24 -131 -1 -26 3 -54 9 -61 7 -8 11 -18 10 -22
-1 -5 5 -25 14 -44 16 -36 14 -56 -3 -30 -6 8 -10 11 -10 7 0 -4 7 -18 15 -30
8 -12 12 -36 10 -52 -2 -17 -4 -43 -4 -58 -1 -16 -5 -26 -11 -22 -5 3 -10 1
-10 -4 0 -6 5 -11 12 -11 6 0 4 -7 -5 -18 -20 -22 -22 -43 -4 -39 8 1 11 -8 9
-25 -2 -21 2 -28 14 -28 12 0 15 -6 10 -25 -5 -18 -2 -25 8 -25 10 0 13 -6 9
-16 -4 -10 1 -20 12 -27 17 -9 16 -11 -6 -23 l-24 -13 25 -2 25 -1 -25 -7
c-17 -5 -25 -14 -25 -28 0 -12 -3 -25 -7 -29 -15 -14 -8 -24 20 -25 21 -2 18
-3 -13 -9 -22 -4 354 -8 835 -8 481 -1 885 1 898 4 l22 6 -19 32 c-24 38 -48
104 -66 176 -7 30 -18 71 -24 90 -12 39 -31 159 -62 385 -11 83 -22 164 -24
180 -3 17 -10 71 -16 120 -6 50 -15 108 -20 130 -5 22 -15 171 -21 330 -13
345 -7 420 48 529 19 38 32 72 28 75 -3 3 -150 10 -327 14 -299 8 -438 3 -588
-19 -34 -6 -36 -4 -43 26 -15 76 3 1072 20 1089 3 3 74 7 157 9 84 1 244 9
357 17 113 8 376 20 585 26 413 11 1423 10 1431 -2 2 -4 0 -59 -5 -121 -5 -62
-12 -154 -16 -204 l-5 -90 27 -14 c56 -26 98 -39 153 -46 14 -2 68 -14 120
-28 120 -32 259 -44 271 -25 14 23 10 29 -16 29 -16 0 -25 6 -25 15 0 8 -4 15
-10 15 -5 0 -7 6 -4 14 3 8 1 17 -4 20 -5 3 -17 -15 -27 -39 -10 -27 -23 -45
-32 -45 -9 0 -14 3 -10 6 8 9 -30 47 -40 41 -12 -7 -63 36 -63 52 0 9 10 10
30 6 23 -5 30 -3 30 9 0 9 -7 16 -15 16 -8 0 -22 11 -30 24 -35 52 26 107 80
72 14 -9 25 -20 25 -25 0 -5 9 -11 20 -14 13 -3 20 0 20 9 0 8 -7 14 -15 14
-8 0 -15 4 -15 9 0 12 -80 57 -134 75 -23 8 -56 22 -74 31 -32 17 -33 16 -55
-7 -12 -13 -30 -27 -40 -31 -18 -7 -24 -27 -7 -27 6 0 10 5 10 12 0 6 3 8 7 4
8 -8 -23 -36 -39 -36 -4 0 -4 10 1 23 4 12 11 35 15 51 6 26 5 28 -8 17 -10
-8 -16 -9 -16 -3 0 6 -3 17 -6 25 -7 18 24 50 42 43 8 -3 14 -1 14 4 0 6 14
10 30 10 17 0 30 -4 30 -9 0 -5 16 -15 36 -21 30 -10 37 -10 47 4 11 15 13 14
25 -5 8 -12 9 -18 3 -14 -7 4 -11 -3 -10 -17 0 -13 3 -17 6 -10 2 6 11 12 19
12 8 0 14 9 14 20 0 13 10 24 25 30 27 10 33 18 13 17 -43 -1 -57 4 -55 22 0
11 6 17 14 14 7 -3 13 0 13 6 0 6 10 11 23 10 l22 0 -22 -11 c-26 -13 -30 -28
-8 -28 8 0 15 5 15 10 0 6 9 10 20 10 26 0 25 -18 -2 -49 l-23 -25 25 15 c14
8 34 15 45 14 11 0 26 5 33 12 14 13 45 6 36 -8 -3 -5 4 -9 15 -9 12 0 21 -4
21 -9 0 -5 12 -12 27 -16 15 -3 30 -10 33 -14 3 -4 34 -15 70 -24 93 -23 194
-71 214 -102 21 -32 12 -48 -10 -17 -8 12 -20 20 -25 17 -5 -4 -9 -2 -9 3 0 5
-12 10 -27 11 -51 2 -128 10 -167 17 -32 5 -38 4 -34 -8 5 -11 -3 -10 -33 5
-41 20 -69 51 -69 76 0 13 -36 51 -50 51 -8 0 -50 -57 -50 -69 0 -5 14 -23 30
-41 35 -37 45 -68 36 -112 l-6 -31 20 26 c17 21 25 24 53 18 18 -5 43 -13 55
-20 18 -10 23 -9 28 3 3 8 12 12 19 10 8 -3 11 -13 8 -21 -5 -13 -3 -13 15 -4
12 7 22 16 22 22 0 6 -4 8 -9 5 -5 -3 -11 0 -14 7 -4 10 10 12 54 11 32 -2 63
-5 69 -9 14 -9 2 -25 -19 -25 -9 0 -27 -11 -39 -25 -21 -24 -21 -25 -2 -25 26
0 63 -37 56 -56 -3 -8 -13 -14 -21 -14 -9 0 -13 -4 -10 -10 3 -5 1 -10 -4 -10
-6 0 -11 8 -11 18 -1 16 -1 16 -11 0 -10 -19 -39 -25 -39 -9 0 5 -7 11 -14 14
-22 9 -8 -23 23 -53 25 -23 35 -30 45 -30 1 0 -3 -23 -10 -52 -12 -43 -11 -59
0 -102 8 -28 20 -121 26 -206 7 -85 14 -168 17 -185 14 -88 23 -222 27 -435 3
-102 7 -205 9 -230 3 -25 8 -79 12 -120 3 -41 10 -102 15 -135 30 -196 38
-589 17 -897 -1 -11 -9 -18 -22 -18 -14 0 -16 -3 -7 -8 20 -13 10 -122 -13
-138 -18 -14 -18 -14 1 -15 18 0 17 -1 -3 -11 -31 -15 -37 -48 -10 -49 20 -1
20 -2 -3 -10 -18 -6 -11 -7 24 -3 94 11 91 8 95 130 1 60 -5 164 -14 234 -10
77 -21 304 -30 595 -8 259 -19 497 -25 530 -5 33 -14 137 -19 230 -10 170 -19
282 -46 535 -8 74 -17 182 -20 240 l-7 105 39 64 c21 35 48 68 59 73 12 6 26
21 32 33 6 13 33 35 61 51 28 15 51 33 51 40 0 7 6 17 13 21 7 4 19 27 25 51
7 23 17 42 23 42 13 0 33 19 48 48 9 17 20 22 38 20 19 -2 27 2 29 15 1 10 10
27 18 36 9 10 21 33 28 51 12 36 57 108 92 150 l21 24 -25 -17 c-93 -65 -117
-74 -215 -83 -67 -7 -171 14 -233 45 -89 44 -102 53 -102 67 0 8 -6 14 -12 14
-9 0 -8 3 2 9 8 6 18 7 22 5 4 -3 7 7 7 23 -1 18 -3 21 -6 10 -6 -25 -29 -15
-26 12 2 13 -3 21 -12 21 -9 0 -12 -6 -9 -15 4 -10 0 -15 -15 -15 -12 0 -21
-4 -21 -10 0 -5 6 -10 13 -10 8 0 8 -3 -2 -9 -18 -12 -41 -3 -41 15 0 8 -7 14
-16 14 -26 0 -82 39 -89 61 -4 10 -10 17 -15 14 -11 -7 -67 52 -82 87 -7 15
-16 28 -20 28 -5 0 -8 15 -8 34 0 19 -5 38 -10 41 -8 5 -7 11 1 21 6 8 8 14 5
14 -4 0 -1 10 6 23 18 32 18 47 1 47 -24 0 -9 24 28 42 19 9 28 17 22 18 -20
0 -16 15 12 42 28 28 47 71 49 111 1 15 6 31 13 35 6 4 14 28 18 55 6 36 4 47
-6 47 -11 0 -11 2 0 9 13 8 13 12 0 27 -11 13 -11 18 -1 21 20 7 14 23 -15 34
l-26 10 22 15 c15 11 19 19 12 28 -15 17 -1 30 49 46 25 8 51 22 58 32 11 16
28 18 113 17 57 -1 99 -6 99 -11 0 -6 12 -7 28 -4 l27 6 -24 -20 c-21 -18 -22
-20 -4 -20 20 0 26 -9 62 -92 12 -25 26 -48 32 -50 8 -3 2 -20 -16 -48 -20
-32 -30 -62 -33 -102 -8 -103 2 -117 92 -124 54 -4 80 9 71 37 -7 20 20 39 54
39 12 0 21 4 21 8 0 15 -49 32 -91 32 -32 0 -42 -4 -46 -20 -7 -26 -39 -26
-53 -1 -14 26 -13 31 6 31 8 0 12 5 9 10 -3 6 1 10 10 10 9 0 13 5 10 10 -11
18 25 23 44 6 12 -11 27 -15 44 -11 24 6 25 10 22 62 -2 30 -6 57 -8 59 -3 3
0 23 6 45 6 26 6 52 0 72 -5 18 -6 54 -2 81 8 52 -1 80 -40 125 -17 20 -27 23
-58 18 -21 -4 -55 -2 -75 2 -21 5 -38 5 -38 0 0 -4 -35 -8 -77 -7 -43 0 -103
-2 -133 -6 l-55 -7 40 23 40 23 -40 5 -40 6 53 13 c51 13 77 31 54 39 -7 2
-10 8 -6 13 3 5 -12 0 -33 -12 -120 -70 -140 -79 -173 -77 -23 0 -27 2 -12 5
43 9 21 19 -39 18 -44 0 -54 2 -37 8 13 5 42 17 65 28 24 10 50 16 58 12 20
-7 89 26 104 50 10 16 8 17 -16 11 -33 -7 -20 5 40 37 22 11 37 23 34 26 -5 4
-64 -24 -77 -37 -9 -9 -122 -61 -126 -58 -1 2 18 20 43 41 51 42 50 46 -6 18
l-38 -20 4 22 c4 21 54 62 96 79 9 4 17 15 17 23 0 9 4 14 9 10 5 -3 21 9 35
27 18 23 22 35 13 40 -9 6 -9 8 0 8 6 0 22 14 34 32 13 17 17 28 9 23 -10 -6
-12 -4 -6 11 12 32 24 104 16 99 -16 -10 -61 -96 -55 -105 4 -6 2 -9 -3 -8 -6
2 -24 -16 -41 -39 -22 -31 -36 -41 -48 -37 -14 5 -15 4 -4 -4 7 -5 10 -15 6
-22 -6 -9 -10 -9 -16 1 -8 11 -11 11 -20 -4 -11 -19 -89 -73 -101 -69 -4 1
-16 -12 -28 -28 -12 -17 -26 -30 -31 -30 -5 0 0 13 12 30 13 16 20 32 17 36
-4 3 -9 -4 -13 -15 -3 -12 -10 -21 -15 -21 -5 0 -17 -3 -27 -6 -13 -4 -11 0 7
16 l25 22 -24 -6 c-18 -4 -21 -2 -12 7 17 17 13 26 -11 20 -19 -4 -20 -3 -8 6
13 10 13 11 0 11 -8 0 0 8 18 16 17 9 32 20 32 25 0 5 8 9 18 9 28 0 122 97
122 127 0 4 -13 -6 -30 -22 -28 -27 -42 -28 -20 -2 40 47 49 62 65 104 10 27
22 53 26 59 5 6 12 40 15 75 4 48 3 60 -5 49 -10 -12 -11 -10 -10 10 1 14 1
38 1 53 l-2 29 -32 -21 c-77 -48 -170 -91 -196 -90 -15 1 -47 -3 -72 -9 -26
-6 -56 -9 -68 -5 -12 3 -43 0 -68 -7 -37 -11 -49 -10 -69 0 -14 7 -28 10 -32
7 -3 -4 2 -7 12 -7 10 0 16 -2 14 -5 -11 -11 -131 15 -155 34 l-26 20 34 -1
c29 -1 43 7 86 51 64 65 68 85 6 29 -12 -10 -27 -18 -34 -16 -7 2 -15 -4 -17
-12 -4 -13 -3 -13 7 0 10 13 11 13 7 0 -2 -8 -10 -14 -16 -12 -6 1 -11 -5 -11
-13 0 -8 -5 -15 -10 -15 -12 0 -6 13 53 113 21 37 43 67 48 67 6 0 13 9 17 19
4 11 24 38 46 61 21 23 36 44 33 47 -3 3 -46 -35 -95 -83 -185 -186 -292 -392
-337 -648 -4 -26 -12 -40 -26 -43 -22 -6 -26 -43 -4 -43 11 0 15 -10 14 -37
-2 -34 6 -105 16 -158 3 -13 13 -21 26 -22 48 -4 151 -127 229 -275 54 -101
64 -107 26 -13 -14 32 -22 63 -20 67 3 4 0 8 -5 8 -6 0 -11 5 -11 12 0 6 10 2
23 -10 l23 -22 2 39 c5 71 20 186 28 205 6 15 4 17 -7 11 -8 -5 -5 2 6 15 42
49 72 80 80 80 5 0 -2 -11 -15 -25 -43 -46 -58 -242 -25 -334 11 -32 12 -47 4
-51 -7 -5 1 -30 24 -76 34 -68 41 -101 64 -301 3 -28 3 -63 -1 -76 -9 -37 -61
-70 -113 -73 -23 -1 -67 -8 -97 -15 -77 -17 -162 -8 -189 21 l-22 22 22 -11
c12 -6 36 -11 52 -11 39 0 71 47 71 104 0 36 -1 38 -13 22 -12 -17 -15 -12
-27 45 -7 35 -24 100 -37 143 -28 95 -28 103 -6 85 9 -8 -3 24 -28 70 -43 82
-131 190 -173 213 -24 14 -98 20 -91 8 3 -4 -2 -21 -10 -36 l-15 -29 0 26 c0
29 37 82 51 74 5 -4 9 -1 9 6 0 10 3 10 12 1 16 -16 50 -15 74 3 18 14 18 14
-8 15 -16 0 -28 5 -28 11 0 5 -4 7 -10 4 -9 -6 -14 10 -13 42 1 7 -3 11 -7 8
-20 -12 -53 166 -43 227 5 35 7 37 22 24 22 -19 67 -30 75 -17 4 5 -1 16 -10
23 -59 47 -75 73 -69 107 4 19 13 43 20 55 7 12 32 77 55 145 41 124 82 218
121 279 11 17 19 32 16 32 -12 0 -77 -73 -77 -86 0 -8 -7 -14 -17 -12 -10 2
-22 -7 -30 -22 -20 -40 -17 3 7 78 11 35 20 79 20 97 0 18 9 44 21 59 11 14
17 31 13 37 -3 6 -3 14 2 18 33 23 79 116 64 126 -6 4 -14 -4 -19 -17z m-1529
-860 c23 1 33 -17 14 -24 -9 -3 -18 -21 -22 -40 -5 -28 -2 -37 16 -52 17 -13
20 -24 15 -45 -4 -15 -12 -27 -17 -27 -5 0 -7 -13 -3 -29 5 -22 0 -40 -20 -71
-15 -23 -22 -39 -15 -35 7 4 9 -5 7 -31 -3 -20 -12 -41 -20 -46 -19 -10 -11
-42 8 -34 8 3 11 -2 8 -15 -3 -11 -10 -16 -17 -12 -6 4 -15 8 -21 8 -5 1 -19
5 -29 10 -19 8 -19 9 0 16 18 7 18 8 0 8 -15 1 -17 7 -14 36 3 24 0 35 -9 35
-7 0 -13 -5 -13 -11 0 -5 -5 -7 -12 -3 -8 5 -4 13 11 26 13 10 18 18 12 18 -6
0 -11 12 -11 26 0 20 -4 24 -18 20 -11 -4 -19 -1 -20 6 -2 25 -8 43 -25 77
-22 44 -22 50 7 61 21 8 23 13 17 37 -5 18 -14 27 -24 25 -10 -2 -17 4 -17 12
0 8 -9 18 -21 21 -11 4 -18 10 -14 13 12 12 160 31 195 25 19 -3 43 -6 52 -5z
m1405 -507 c102 -74 212 -317 213 -468 0 -61 -6 -80 -31 -94 -88 -47 -289 295
-289 491 0 61 19 100 49 100 10 0 36 -13 58 -29z m-1517 -2688 c1 -17 1 -17
14 0 20 26 29 20 21 -15 -16 -73 -11 -116 17 -145 l27 -29 -21 -13 c-29 -18
-155 -24 -291 -14 l-108 8 -3 62 c-3 72 3 86 37 90 18 2 29 -4 42 -23 13 -21
19 -24 26 -13 6 10 9 11 9 1 0 -6 19 -30 42 -53 37 -36 47 -40 76 -35 47 7 59
20 79 85 10 31 21 59 26 62 5 4 4 10 -2 13 -14 9 -15 36 -1 36 6 0 10 -8 10
-17z m-2407 -2228 c31 -32 29 -57 -6 -66 -14 -4 -80 -7 -146 -7 -97 0 -121 3
-121 14 0 8 -4 14 -10 14 -18 0 -11 29 10 40 16 8 22 8 26 -4 3 -8 17 -17 30
-20 14 -4 22 -11 19 -16 -4 -6 5 -5 19 2 14 6 26 15 26 19 0 11 69 41 79 35 4
-3 13 -1 21 5 21 13 25 12 53 -16z"/>
<path d="M10405 6742 c-66 -6 -75 -11 -75 -42 0 -37 -13 -38 -47 -2 -15 15
-23 22 -19 15 4 -7 1 -21 -6 -32 -7 -11 -10 -23 -6 -26 3 -3 49 -7 101 -8 52
-1 90 -5 83 -9 -18 -12 12 -10 35 3 11 5 17 14 14 19 -3 4 4 6 15 3 12 -3 20
0 20 6 0 7 -5 9 -12 5 -7 -4 -8 -3 -4 5 5 7 20 9 42 5 42 -8 43 -2 5 25 -32
23 -98 38 -146 33z"/>
<path d="M9678 5997 c-4 -18 1 -26 21 -34 70 -28 90 -35 98 -30 4 3 45 -1 91
-9 76 -12 90 -11 160 6 42 11 86 20 97 20 41 1 -7 18 -52 18 -57 2 -62 7 -28
25 26 13 24 14 -56 20 -46 4 -139 7 -205 7 -119 0 -122 0 -126 -23z"/>
<path d="M7445 4283 c-60 -32 -81 -64 -94 -144 -13 -83 -8 -273 9 -359 19 -88
81 -182 197 -296 143 -141 160 -188 100 -282 -47 -72 -81 -205 -74 -290 3 -36
1 -77 -4 -91 -29 -76 -7 -262 45 -380 18 -42 41 -102 51 -133 10 -31 28 -67
41 -79 l23 -22 628 7 c345 3 696 9 780 12 149 6 152 7 157 30 5 20 13 24 44
26 20 0 45 1 54 0 11 -1 15 3 12 13 -4 8 -10 15 -15 15 -5 0 -17 18 -28 40
-20 41 -15 48 21 29 16 -9 19 -8 16 2 -3 8 -15 16 -29 20 -13 4 -17 8 -9 9 9
1 4 6 -11 13 -34 15 -36 27 -8 41 28 14 28 28 -2 43 -13 7 -19 13 -14 13 6 0
-1 10 -15 21 -26 22 -38 89 -15 89 7 0 11 17 11 45 -1 25 3 46 9 48 10 4 -10
97 -28 132 -6 11 -10 23 -9 28 1 4 -7 7 -18 7 -14 0 -20 7 -20 23 0 32 -6 36
-45 27 -28 -6 -34 -4 -38 11 -3 11 -14 19 -26 19 -12 0 -20 6 -19 13 2 6 -5
11 -14 11 -11 -1 -18 5 -18 16 0 10 -9 20 -20 23 -11 3 -20 1 -20 -4 0 -17
-19 -9 -25 11 -4 14 -15 20 -34 20 -16 0 -34 7 -41 15 -7 8 -21 15 -31 15 -11
0 -19 5 -19 10 0 6 8 10 18 10 15 0 15 2 2 11 -12 8 -10 9 10 5 14 -3 35 -6
48 -6 19 0 22 -4 17 -21 -5 -15 -4 -19 4 -15 22 14 12 45 -16 48 -22 2 -28 9
-30 32 -2 26 -1 27 11 10 12 -15 16 -16 30 -5 14 12 16 11 16 -7 0 -15 5 -20
16 -15 8 3 14 15 13 27 -2 34 1 42 11 26 7 -12 12 -12 22 -2 6 6 17 12 23 12
5 0 4 -4 -3 -9 -9 -5 -11 -17 -6 -34 7 -29 24 -37 24 -12 0 8 -6 15 -12 15 -7
0 -2 6 12 13 26 13 41 50 19 45 -7 -2 -15 12 -20 30 -10 50 -33 68 -24 20 6
-31 4 -38 -9 -38 -9 0 -16 8 -16 20 0 17 -5 19 -27 15 -23 -4 -25 -4 -8 4 11
5 14 10 6 10 -7 1 -11 7 -8 15 6 14 -10 36 -26 36 -4 0 -5 -9 -2 -20 5 -14 2
-20 -9 -20 -9 0 -16 -6 -16 -12 -1 -7 -7 2 -15 20 -14 32 -29 40 -40 22 -10
-16 -28 -12 -21 5 6 16 -5 20 -19 6 -6 -4 -23 -11 -38 -15 -25 -6 -28 -5 -22
14 4 11 2 20 -4 20 -6 0 -11 8 -11 18 0 14 2 15 10 2 7 -12 12 -12 21 -3 9 9
9 16 -1 27 -7 9 -16 13 -21 11 -4 -3 -7 3 -6 14 0 11 5 17 9 15 4 -3 8 4 8 15
0 12 5 21 11 21 5 0 7 5 4 10 -4 6 -11 8 -16 5 -5 -4 -9 -2 -9 4 0 5 -3 16 -6
24 -4 10 1 15 13 14 11 -1 17 3 14 13 -2 8 -4 23 -5 33 0 9 -4 17 -9 17 -5 0
-5 6 1 13 5 6 9 33 8 59 -2 35 1 45 11 41 8 -3 13 3 13 16 0 12 -4 21 -9 21
-5 0 -7 8 -5 18 3 9 1 28 -5 42 -8 21 -10 22 -10 6 -1 -30 -64 43 -81 93 -9
29 -19 41 -32 41 -11 0 -18 5 -16 12 3 7 -5 21 -16 30 -17 14 -17 17 -3 12 14
-5 17 0 17 28 0 19 -5 39 -12 46 -9 9 -8 12 5 12 10 0 20 -8 23 -17 3 -10 10
-27 15 -38 l9 -20 -3 20 c-1 14 3 19 16 17 9 -2 17 2 17 8 0 5 -9 10 -20 10
-11 0 -20 4 -20 9 0 5 10 7 23 4 21 -5 21 -5 3 9 -10 8 -29 13 -41 10 -51 -9
-24 35 34 59 12 4 11 7 -2 12 -10 4 -17 2 -17 -5 0 -7 -4 -7 -12 -1 -9 6 -22
5 -38 -3 -14 -8 -21 -14 -16 -14 5 0 3 -6 -3 -14 -6 -8 -11 -18 -9 -22 1 -5
-2 -35 -6 -67 -6 -43 -11 -57 -21 -53 -9 3 -12 0 -8 -10 3 -7 10 -14 15 -14
20 0 -15 -30 -36 -31 -15 -1 -13 -3 9 -9 l30 -7 -25 -11 c-14 -6 -19 -11 -11
-11 7 -1 11 -7 7 -16 -3 -10 1 -15 12 -15 14 -1 13 -4 -7 -20 -13 -11 -19 -20
-13 -20 6 0 4 -16 -4 -41 -8 -22 -12 -45 -9 -50 4 -5 4 -9 1 -9 -3 0 -12 12
-21 28 l-16 27 6 -42 c4 -35 2 -41 -9 -37 -12 5 -14 -1 -9 -30 4 -28 2 -36
-10 -36 -8 0 -17 -5 -19 -12 -3 -9 -19 -9 -70 0 -36 7 -95 12 -131 12 -64 0
-66 -1 -58 -22 4 -12 17 -27 27 -33 10 -5 21 -12 24 -16 9 -9 78 -39 92 -39
13 0 48 -49 48 -67 0 -5 -16 -26 -35 -47 -36 -39 -43 -56 -25 -56 6 0 10 -10
10 -23 0 -13 5 -28 12 -35 9 -9 9 -12 -2 -12 -10 0 -11 -3 -3 -11 6 -6 9 -26
6 -45 -4 -22 -2 -34 6 -34 6 0 11 -6 11 -14 0 -7 7 -27 15 -42 8 -16 15 -41
15 -56 0 -21 9 -34 35 -50 19 -13 35 -26 35 -29 0 -12 -29 -18 -35 -9 -4 6
-14 10 -23 10 -9 0 -41 18 -69 40 -29 22 -53 39 -53 37 0 -1 12 -33 26 -72 30
-82 94 -295 94 -312 0 -7 9 -22 20 -33 11 -11 20 -15 20 -8 0 6 7 19 15 28 13
15 13 22 -1 69 -21 71 -14 81 16 26 22 -39 23 -47 10 -55 -13 -8 -13 -10 2
-10 22 0 44 -70 25 -82 -8 -5 -7 -8 6 -8 15 0 16 -3 7 -20 -7 -13 -7 -26 -1
-38 7 -13 4 -23 -14 -40 -19 -18 -34 -22 -89 -22 -44 0 -65 -4 -61 -10 4 -7
31 -8 70 -4 36 3 69 3 75 -1 20 -12 -40 -48 -103 -61 -51 -10 -62 -10 -74 2
-20 20 -57 17 -78 -6 -10 -11 -26 -20 -36 -20 -9 0 -19 -5 -21 -12 -3 -7 -10
-8 -17 -4 -9 6 -7 15 12 35 34 37 37 53 11 73 -24 20 -54 24 -54 8 0 -5 -4
-10 -10 -10 -15 0 -50 -38 -50 -54 0 -11 -9 -13 -36 -9 -22 4 -39 2 -43 -6 -5
-8 -25 -5 -71 12 -51 18 -64 27 -65 45 -1 12 -5 25 -10 29 -4 5 -4 -2 -1 -14
11 -35 -16 -19 -52 31 -43 59 -43 68 -2 78 43 12 59 12 89 2 18 -5 23 -4 19 7
-3 10 -30 16 -85 21 -90 7 -180 29 -149 36 12 2 15 7 8 11 -6 4 -9 16 -6 28 5
20 12 21 72 19 84 -4 224 -25 235 -35 4 -4 4 -25 0 -47 -7 -33 -5 -42 12 -59
21 -20 22 -20 51 -3 38 23 61 23 74 -2 17 -31 49 -25 62 11 8 23 13 27 19 17
5 -8 8 11 7 49 -1 49 -4 60 -16 55 -13 -4 -14 3 -8 44 3 27 10 50 16 52 5 2 5
13 0 27 -5 14 -7 53 -3 88 6 67 -15 178 -44 227 -9 17 -12 18 -8 5 31 -94 38
-147 26 -198 -13 -61 -45 -117 -65 -117 -17 0 -27 14 -51 70 -11 25 -25 51
-32 58 -7 7 -13 19 -13 26 0 6 -9 18 -20 26 -11 8 -20 19 -20 24 0 21 -61 135
-77 145 -10 6 -14 11 -9 11 5 0 3 7 -4 15 -10 13 -10 19 5 35 17 19 17 20 -1
20 -19 0 -107 30 -154 53 -14 6 -43 26 -64 44 -21 18 -42 30 -47 28 -4 -3 -10
-1 -13 4 -4 5 -1 13 5 17 8 5 9 3 4 -6 -5 -9 -4 -11 4 -6 15 10 3 29 -15 22
-16 -6 -20 29 -5 39 6 3 8 27 5 53 -3 44 9 128 25 162 20 42 -25 76 -59 45
-26 -23 -50 -12 -50 23 0 15 -9 53 -20 84 -11 31 -17 64 -14 72 7 18 67 59
114 79 l35 15 -41 -5 c-40 -5 -41 -4 -70 43 -65 109 -61 115 106 154 l85 20
-81 -5 c-91 -6 -167 -25 -194 -50 -17 -15 -18 -14 -16 15 1 17 7 34 13 38 13
8 12 29 0 50 -5 6 -5 17 -2 22 9 14 -5 12 -40 -7z"/>
<path d="M11170 4197 c-12 -26 -22 -33 -49 -35 -26 -3 -31 -6 -20 -13 9 -6 10
-12 4 -16 -6 -5 -12 -17 -12 -29 -1 -11 -7 -48 -13 -82 -6 -35 -8 -66 -5 -71
3 -5 8 -67 11 -138 3 -70 19 -209 35 -308 29 -174 31 -197 39 -654 5 -260 11
-475 13 -478 5 -4 197 75 210 86 4 4 -4 13 -18 21 -58 31 -17 79 68 81 51 0
135 16 97 18 -30 1 -110 50 -110 66 0 9 -30 32 -89 65 -8 5 -14 22 -14 39 0
16 -6 32 -12 35 -23 8 -57 93 -47 113 13 24 79 83 92 83 6 0 8 5 4 12 -5 8 2
9 24 5 24 -5 32 -3 32 8 0 8 7 15 16 15 10 0 14 -6 10 -15 -11 -31 46 -10 99
36 11 9 31 19 45 22 25 4 25 4 -2 6 -15 0 -63 -9 -105 -21 -43 -11 -85 -22
-93 -23 -29 -3 -105 -16 -121 -21 -12 -3 -15 5 -16 43 -3 153 -11 243 -24 265
-19 30 -45 117 -59 198 -10 62 -9 69 20 148 17 46 37 97 46 114 8 16 14 34 12
40 -2 6 -26 23 -54 38 -47 25 -49 28 -48 67 1 36 47 183 75 235 13 25 11 28
-8 21 -13 -5 -15 -3 -9 13 12 30 12 36 1 40 -5 2 -17 -11 -25 -29z"/>
<path d="M5360 3431 c0 -17 -6 -19 -58 -14 -47 4 -60 2 -65 -10 -5 -12 5 -14
61 -11 47 3 61 1 47 -5 -11 -5 -30 -10 -42 -10 -19 -1 -23 -7 -23 -32 0 -31
-31 -68 -58 -69 -8 0 -11 -7 -8 -17 3 -10 1 -25 -4 -33 -8 -13 -10 -13 -10 0
0 10 -3 11 -11 3 -9 -9 -6 -19 8 -40 30 -42 38 -73 19 -73 -27 0 -19 -44 10
-57 15 -7 31 -10 36 -7 5 3 17 -5 27 -18 20 -24 18 -24 95 7 14 6 17 5 12 -3
-4 -7 -3 -12 3 -12 9 0 16 11 59 95 18 35 32 47 50 40 6 -2 12 3 12 12 0 9 7
25 16 35 13 14 14 21 5 32 -9 11 -7 15 14 20 30 8 34 26 5 26 -11 0 -20 7 -20
15 0 8 -4 15 -10 15 -5 0 -10 7 -10 15 0 8 6 15 13 15 8 0 8 3 -2 9 -11 7 -9
10 8 13 29 4 32 22 4 26 -13 2 -23 -1 -23 -5 0 -5 -26 -6 -57 -2 -34 3 -63 2
-70 -4 -21 -16 -15 8 7 28 24 21 18 35 -16 35 -17 0 -24 -6 -24 -19z"/>
</g>
</svg>
