<svg width="40" height="40" viewBox="0 0 40 40" fill="none" xmlns="http://www.w3.org/2000/svg">
<g clip-path="url(#clip0_5_1959)">
<path d="M20 0C14.6969 0 9.60625 2.10844 5.85938 5.85781C2.10863 9.60868 0.00103897 14.6956 0 20C0 25.3022 2.10938 30.3928 5.85938 34.1422C9.60625 37.8916 14.6969 40 20 40C25.3031 40 30.3937 37.8916 34.1406 34.1422C37.8906 30.3928 40 25.3022 40 20C40 14.6978 37.8906 9.60719 34.1406 5.85781C30.3937 2.10844 25.3031 0 20 0Z" fill="url(#paint0_linear_5_1959)"/>
<path d="M9.05315 19.7888C14.8844 17.2488 18.7719 15.5741 20.7157 14.765C26.2719 12.4547 27.425 12.0534 28.1782 12.0399C28.3438 12.0372 28.7125 12.0781 28.9532 12.2727C29.1532 12.4367 29.2094 12.6586 29.2375 12.8144C29.2625 12.97 29.2969 13.3247 29.2688 13.6016C28.9688 16.7641 27.6657 24.4384 27.0032 27.9806C26.725 29.4794 26.1719 29.9819 25.6375 30.0309C24.475 30.1378 23.5938 29.2634 22.4688 28.5263C20.7094 27.3722 19.7157 26.6541 18.0063 25.5281C16.0313 24.2269 17.3125 23.5116 18.4375 22.3428C18.7313 22.0369 23.85 17.3822 23.9469 16.96C23.9594 16.9072 23.9719 16.7103 23.8532 16.6066C23.7375 16.5025 23.5657 16.5381 23.4407 16.5663C23.2625 16.6063 20.4532 18.465 15.0032 22.1422C14.2063 22.6903 13.4844 22.9575 12.8344 22.9434C12.1219 22.9281 10.7469 22.5397 9.72503 22.2078C8.47503 21.8006 7.47815 21.5853 7.56565 20.8938C7.6094 20.5338 8.10628 20.1653 9.05315 19.7888Z" fill="white"/>
</g>
<defs>
<linearGradient id="paint0_linear_5_1959" x1="2000" y1="0" x2="2000" y2="4000" gradientUnits="userSpaceOnUse">
<stop stop-color="#012245"/>
<stop offset="1" stop-color="#229ED9"/>
</linearGradient>
<clipPath id="clip0_5_1959">
<rect width="40" height="40" fill="white"/>
</clipPath>
</defs>
</svg>
