<svg width="24" height="24" viewBox="0 0 24 24" fill="none" xmlns="http://www.w3.org/2000/svg">
<path d="M18.7791 1L13.8903 6V17L18.7791 12.5V1ZM20.7345 5V18.5C19.659 18.15 18.4857 18 17.3124 18C15.6503 18 13.2548 18.65 11.9349 19.5V6C10.5171 4.9 8.46387 4.5 6.55727 4.5C4.65067 4.5 2.59741 4.9 1.17969 6V20.65C1.17969 20.9 1.42412 21.15 1.66856 21.15C1.76633 21.15 1.81522 21.1 1.91299 21.1C3.23295 20.45 5.13954 20 6.55727 20C8.46387 20 10.5171 20.4 11.9349 21.5C13.2548 20.65 15.6503 20 17.3124 20C18.9257 20 20.5879 20.3 21.9567 21.05C22.0545 21.1 22.1034 21.1 22.2011 21.1C22.4456 21.1 22.69 20.85 22.69 20.6V6C22.1034 5.55 21.4678 5.25 20.7345 5ZM9.97937 18.41C8.75719 18.09 7.53501 18 6.55727 18C5.52086 18 4.28891 18.19 3.13517 18.5V7.13C4.02492 6.73 5.22754 6.5 6.55727 6.5C7.887 6.5 9.08962 6.73 9.97937 7.13V18.41Z" fill="#3E3E3E"/>
</svg>
