<svg width="189" height="52" viewBox="0 0 189 52" fill="none" xmlns="http://www.w3.org/2000/svg">
<path d="M58.6453 23.6918C59.3337 23.8384 59.8866 24.1823 60.3041 24.7235C60.7216 25.2534 60.9304 25.8623 60.9304 26.5501C60.9304 27.5423 60.5806 28.3315 59.8809 28.9178C59.1926 29.4928 58.2278 29.7804 56.9866 29.7804H51.4517V17.9077H56.8004C58.0078 17.9077 58.95 18.184 59.627 18.7365C60.3154 19.2889 60.6595 20.0387 60.6595 20.9858C60.6595 21.6849 60.4734 22.2655 60.101 22.7278C59.7399 23.1901 59.2547 23.5114 58.6453 23.6918ZM54.3461 22.7109H56.2418C56.7157 22.7109 57.0768 22.6094 57.3251 22.4065C57.5846 22.1923 57.7144 21.8822 57.7144 21.4763C57.7144 21.0704 57.5846 20.7603 57.3251 20.5461C57.0768 20.3319 56.7157 20.2248 56.2418 20.2248H54.3461V22.7109ZM56.4788 27.4464C56.964 27.4464 57.3364 27.3393 57.5959 27.1251C57.8667 26.8996 58.0021 26.5782 58.0021 26.1611C58.0021 25.7439 57.8611 25.4169 57.579 25.1801C57.3081 24.9434 56.9301 24.825 56.4449 24.825H54.3461V27.4464H56.4788Z" fill="#3E3E3E"/>
<path d="M62.0336 25.0448C62.0336 24.0752 62.2142 23.2239 62.5753 22.491C62.9476 21.7582 63.4498 21.1944 64.0817 20.7998C64.7136 20.4052 65.4189 20.2078 66.1975 20.2078C66.8632 20.2078 67.4444 20.3431 67.9409 20.6137C68.4487 20.8844 68.838 21.2395 69.1088 21.6792V20.3431H72.0032V29.7804H69.1088V28.4443C68.8267 28.884 68.4317 29.2392 67.924 29.5098C67.4275 29.7804 66.8463 29.9157 66.1806 29.9157C65.4132 29.9157 64.7136 29.7184 64.0817 29.3237C63.4498 28.9178 62.9476 28.3484 62.5753 27.6156C62.2142 26.8714 62.0336 26.0145 62.0336 25.0448ZM69.1088 25.0618C69.1088 24.3402 68.9057 23.7708 68.4995 23.3536C68.1045 22.9364 67.6193 22.7278 67.0438 22.7278C66.4683 22.7278 65.9774 22.9364 65.5712 23.3536C65.1763 23.7595 64.9788 24.3232 64.9788 25.0448C64.9788 25.7664 65.1763 26.3415 65.5712 26.7699C65.9774 27.1871 66.4683 27.3957 67.0438 27.3957C67.6193 27.3957 68.1045 27.1871 68.4995 26.7699C68.9057 26.3527 69.1088 25.7834 69.1088 25.0618Z" fill="#3E3E3E"/>
<path d="M76.9915 21.916C77.3301 21.3974 77.7532 20.9915 78.261 20.6983C78.7688 20.3939 79.333 20.2417 79.9536 20.2417V23.3028H79.1581C78.4359 23.3028 77.8943 23.4607 77.5332 23.7764C77.1721 24.0808 76.9915 24.622 76.9915 25.4V29.7804H74.0972V20.3431H76.9915V21.916Z" fill="#3E3E3E"/>
<path d="M87.109 29.7804L84.2315 25.8228V29.7804H81.3371V17.2651H84.2315V24.1823L87.092 20.3431H90.6635L86.7366 25.0787L90.6973 29.7804H87.109Z" fill="#3E3E3E"/>
<path d="M91.2248 25.0448C91.2248 24.0752 91.4054 23.2239 91.7665 22.491C92.1388 21.7582 92.641 21.1944 93.2729 20.7998C93.9048 20.4052 94.6101 20.2078 95.3887 20.2078C96.0545 20.2078 96.6356 20.3431 97.1321 20.6137C97.6399 20.8844 98.0292 21.2395 98.3 21.6792V20.3431H101.194V29.7804H98.3V28.4443C98.0179 28.884 97.6229 29.2392 97.1152 29.5098C96.6187 29.7804 96.0375 29.9157 95.3718 29.9157C94.6044 29.9157 93.9048 29.7184 93.2729 29.3237C92.641 28.9178 92.1388 28.3484 91.7665 27.6156C91.4054 26.8714 91.2248 26.0145 91.2248 25.0448ZM98.3 25.0618C98.3 24.3402 98.0969 23.7708 97.6907 23.3536C97.2957 22.9364 96.8105 22.7278 96.235 22.7278C95.6595 22.7278 95.1686 22.9364 94.7624 23.3536C94.3675 23.7595 94.17 24.3232 94.17 25.0448C94.17 25.7664 94.3675 26.3415 94.7624 26.7699C95.1686 27.1871 95.6595 27.3957 96.235 27.3957C96.8105 27.3957 97.2957 27.1871 97.6907 26.7699C98.0969 26.3527 98.3 25.7834 98.3 25.0618Z" fill="#3E3E3E"/>
<path d="M115.34 20.2417C116.513 20.2417 117.444 20.5968 118.133 21.3072C118.832 22.0175 119.182 23.0041 119.182 24.2669V29.7804H116.305V24.6559C116.305 24.047 116.141 23.5791 115.814 23.2521C115.498 22.9139 115.058 22.7447 114.494 22.7447C113.929 22.7447 113.484 22.9139 113.156 23.2521C112.84 23.5791 112.682 24.047 112.682 24.6559V29.7804H109.805V24.6559C109.805 24.047 109.641 23.5791 109.314 23.2521C108.998 22.9139 108.558 22.7447 107.994 22.7447C107.43 22.7447 106.984 22.9139 106.657 23.2521C106.341 23.5791 106.183 24.047 106.183 24.6559V29.7804H103.288V20.3431H106.183V21.527C106.476 21.1324 106.86 20.8223 107.334 20.5968C107.808 20.3601 108.344 20.2417 108.942 20.2417C109.653 20.2417 110.285 20.3939 110.837 20.6983C111.402 21.0027 111.842 21.4368 112.158 22.0006C112.485 21.4819 112.931 21.0591 113.495 20.7321C114.059 20.4052 114.674 20.2417 115.34 20.2417Z" fill="#3E3E3E"/>
<path d="M125.506 29.9157C124.58 29.9157 123.745 29.7184 123.001 29.3237C122.267 28.9291 121.686 28.3653 121.257 27.6325C120.84 26.8996 120.631 26.0427 120.631 25.0618C120.631 24.0921 120.845 23.2408 121.274 22.508C121.703 21.7638 122.29 21.1944 123.034 20.7998C123.779 20.4052 124.614 20.2078 125.54 20.2078C126.465 20.2078 127.3 20.4052 128.045 20.7998C128.789 21.1944 129.376 21.7638 129.805 22.508C130.234 23.2408 130.448 24.0921 130.448 25.0618C130.448 26.0314 130.228 26.8883 129.788 27.6325C129.359 28.3653 128.767 28.9291 128.011 29.3237C127.266 29.7184 126.431 29.9157 125.506 29.9157ZM125.506 27.4126C126.059 27.4126 126.527 27.2097 126.911 26.8038C127.306 26.3978 127.503 25.8172 127.503 25.0618C127.503 24.3063 127.311 23.7257 126.927 23.3198C126.555 22.9139 126.092 22.7109 125.54 22.7109C124.975 22.7109 124.507 22.9139 124.135 23.3198C123.762 23.7144 123.576 24.2951 123.576 25.0618C123.576 25.8172 123.757 26.3978 124.118 26.8038C124.49 27.2097 124.953 27.4126 125.506 27.4126Z" fill="#3E3E3E"/>
<path d="M134.878 17.2651V29.7804H131.984V17.2651H134.878Z" fill="#3E3E3E"/>
<path d="M147.959 27.6832H143.525L142.814 29.7804H139.784L144.083 17.9077H147.435L151.734 29.7804H148.67L147.959 27.6832ZM147.215 25.4507L145.742 21.1042L144.286 25.4507H147.215Z" fill="#3E3E3E"/>
<path d="M157.291 27.0744L159.339 20.3431H162.419L159.068 29.7804H155.497L152.145 20.3431H155.243L157.291 27.0744Z" fill="#3E3E3E"/>
<path d="M166.532 17.2651V29.7804H163.638V17.2651H166.532Z" fill="#3E3E3E"/>
<path d="M172.929 29.9157C172.004 29.9157 171.169 29.7184 170.424 29.3237C169.69 28.9291 169.109 28.3653 168.68 27.6325C168.263 26.8996 168.054 26.0427 168.054 25.0618C168.054 24.0921 168.269 23.2408 168.697 22.508C169.126 21.7638 169.713 21.1944 170.458 20.7998C171.202 20.4052 172.038 20.2078 172.963 20.2078C173.888 20.2078 174.723 20.4052 175.468 20.7998C176.213 21.1944 176.799 21.7638 177.228 22.508C177.657 23.2408 177.871 24.0921 177.871 25.0618C177.871 26.0314 177.651 26.8883 177.211 27.6325C176.783 28.3653 176.19 28.9291 175.434 29.3237C174.689 29.7184 173.854 29.9157 172.929 29.9157ZM172.929 27.4126C173.482 27.4126 173.95 27.2097 174.334 26.8038C174.729 26.3978 174.926 25.8172 174.926 25.0618C174.926 24.3063 174.734 23.7257 174.351 23.3198C173.978 22.9139 173.516 22.7109 172.963 22.7109C172.399 22.7109 171.93 22.9139 171.558 23.3198C171.186 23.7144 170.999 24.2951 170.999 25.0618C170.999 25.8172 171.18 26.3978 171.541 26.8038C171.913 27.2097 172.376 27.4126 172.929 27.4126Z" fill="#3E3E3E"/>
<path d="M178.831 25.0448C178.831 24.0752 179.012 23.2239 179.373 22.491C179.745 21.7582 180.248 21.1944 180.88 20.7998C181.511 20.4052 182.217 20.2078 182.995 20.2078C183.616 20.2078 184.18 20.3375 184.688 20.5968C185.207 20.8562 185.613 21.2057 185.907 21.6454V17.2651H188.801V29.7804H185.907V28.4274C185.636 28.8784 185.247 29.2392 184.739 29.5098C184.242 29.7804 183.661 29.9157 182.995 29.9157C182.217 29.9157 181.511 29.7184 180.88 29.3237C180.248 28.9178 179.745 28.3484 179.373 27.6156C179.012 26.8714 178.831 26.0145 178.831 25.0448ZM185.907 25.0618C185.907 24.3402 185.704 23.7708 185.297 23.3536C184.902 22.9364 184.417 22.7278 183.842 22.7278C183.266 22.7278 182.775 22.9364 182.369 23.3536C181.974 23.7595 181.777 24.3232 181.777 25.0448C181.777 25.7664 181.974 26.3415 182.369 26.7699C182.775 27.1871 183.266 27.3957 183.842 27.3957C184.417 27.3957 184.902 27.1871 185.297 26.7699C185.704 26.3527 185.907 25.7834 185.907 25.0618Z" fill="#3E3E3E"/>
<path d="M58.4819 38.6597C59.1545 38.8049 59.6949 39.1456 60.1029 39.6817C60.511 40.2067 60.715 40.8099 60.715 41.4912C60.715 42.4741 60.3731 43.256 59.6894 43.8368C59.0167 44.4064 58.0738 44.6913 56.8608 44.6913H51.4517V32.9298H56.6788C57.8588 32.9298 58.7796 33.2034 59.4413 33.7507C60.114 34.298 60.4503 35.0408 60.4503 35.979C60.4503 36.6715 60.2684 37.2468 59.9044 37.7047C59.5515 38.1627 59.0774 38.481 58.4819 38.6597ZM54.2803 37.688H56.1329C56.5961 37.688 56.949 37.5874 57.1916 37.3864C57.4452 37.1742 57.5721 36.867 57.5721 36.4649C57.5721 36.0628 57.4452 35.7556 57.1916 35.5434C56.949 35.3312 56.5961 35.2251 56.1329 35.2251H54.2803V37.688ZM56.3645 42.3792C56.8387 42.3792 57.2026 42.2731 57.4563 42.0608C57.7209 41.8374 57.8533 41.5191 57.8533 41.1058C57.8533 40.6926 57.7154 40.3687 57.4397 40.1341C57.1751 39.8995 56.8056 39.7823 56.3314 39.7823H54.2803V42.3792H56.3645Z" fill="#3E3E3E"/>
<path d="M66.5571 44.8253C65.6529 44.8253 64.8368 44.6298 64.109 44.2389C63.3922 43.848 62.8243 43.2895 62.4052 42.5635C61.9972 41.8374 61.7932 40.9886 61.7932 40.0168C61.7932 39.0562 62.0027 38.2129 62.4217 37.4869C62.8408 36.7497 63.4142 36.1857 64.1421 35.7947C64.8699 35.4038 65.686 35.2083 66.5902 35.2083C67.4945 35.2083 68.3106 35.4038 69.0384 35.7947C69.7662 36.1857 70.3397 36.7497 70.7587 37.4869C71.1778 38.2129 71.3873 39.0562 71.3873 40.0168C71.3873 40.9774 71.1723 41.8263 70.7422 42.5635C70.3231 43.2895 69.7442 43.848 69.0053 44.2389C68.2775 44.6298 67.4614 44.8253 66.5571 44.8253ZM66.5571 42.3457C67.0975 42.3457 67.5552 42.1446 67.9301 41.7425C68.3161 41.3404 68.5091 40.7652 68.5091 40.0168C68.5091 39.2685 68.3216 38.6932 67.9466 38.2911C67.5827 37.889 67.1306 37.688 66.5902 37.688C66.0388 37.688 65.5812 37.889 65.2173 38.2911C64.8534 38.6821 64.6714 39.2573 64.6714 40.0168C64.6714 40.7652 64.8478 41.3404 65.2007 41.7425C65.5646 42.1446 66.0168 42.3457 66.5571 42.3457Z" fill="#3E3E3E"/>
<path d="M75.7166 32.2931V44.6913H72.8879V32.2931H75.7166Z" fill="#3E3E3E"/>
<path d="M77.204 40.0001C77.204 39.0395 77.3805 38.1962 77.7334 37.4702C78.0973 36.7441 78.588 36.1857 79.2056 35.7947C79.8231 35.4038 80.5123 35.2083 81.2733 35.2083C81.9239 35.2083 82.4918 35.3424 82.9771 35.6104C83.4733 35.8785 83.8538 36.2303 84.1184 36.666V35.3424H86.947V44.6913H84.1184V43.3677C83.8427 43.8033 83.4568 44.1551 82.9605 44.4232C82.4753 44.6913 81.9074 44.8253 81.2567 44.8253C80.5068 44.8253 79.8231 44.6298 79.2056 44.2389C78.588 43.8368 78.0973 43.2727 77.7334 42.5467C77.3805 41.8095 77.204 40.9606 77.204 40.0001ZM84.1184 40.0168C84.1184 39.302 83.9199 38.7379 83.5229 38.3246C83.137 37.9114 82.6628 37.7047 82.1003 37.7047C81.5379 37.7047 81.0582 37.9114 80.6612 38.3246C80.2752 38.7267 80.0823 39.2852 80.0823 40.0001C80.0823 40.7149 80.2752 41.2846 80.6612 41.709C81.0582 42.1223 81.5379 42.3289 82.1003 42.3289C82.6628 42.3289 83.137 42.1223 83.5229 41.709C83.9199 41.2957 84.1184 40.7317 84.1184 40.0168Z" fill="#3E3E3E"/>
<path d="M91.822 32.2931V44.6913H88.9934V32.2931H91.822Z" fill="#3E3E3E"/>
<path d="M93.3095 40.0001C93.3095 39.0395 93.4859 38.1962 93.8388 37.4702C94.2028 36.7441 94.6935 36.1857 95.311 35.7947C95.9286 35.4038 96.6178 35.2083 97.3787 35.2083C98.0294 35.2083 98.5973 35.3424 99.0825 35.6104C99.5788 35.8785 99.9592 36.2303 100.224 36.666V35.3424H103.053V44.6913H100.224V43.3677C99.9482 43.8033 99.5622 44.1551 99.066 44.4232C98.5808 44.6913 98.0128 44.8253 97.3622 44.8253C96.6123 44.8253 95.9286 44.6298 95.311 44.2389C94.6935 43.8368 94.2028 43.2727 93.8388 42.5467C93.4859 41.8095 93.3095 40.9606 93.3095 40.0001ZM100.224 40.0168C100.224 39.302 100.025 38.7379 99.6284 38.3246C99.2424 37.9114 98.7682 37.7047 98.2058 37.7047C97.6434 37.7047 97.1637 37.9114 96.7667 38.3246C96.3807 38.7267 96.1877 39.2852 96.1877 40.0001C96.1877 40.7149 96.3807 41.2846 96.7667 41.709C97.1637 42.1223 97.6434 42.3289 98.2058 42.3289C98.7682 42.3289 99.2424 42.1223 99.6284 41.709C100.025 41.2957 100.224 40.7317 100.224 40.0168Z" fill="#3E3E3E"/>
<path d="M107.928 36.9005C108.258 36.3867 108.672 35.9846 109.168 35.6942C109.664 35.3926 110.216 35.2418 110.822 35.2418V38.2744H110.045C109.339 38.2744 108.81 38.4307 108.457 38.7435C108.104 39.0451 107.928 39.5812 107.928 40.3519V44.6913H105.099V35.3424H107.928V36.9005Z" fill="#3E3E3E"/>
<path d="M128.83 32.9298V44.6913H126.002V37.6377L123.405 44.6913H121.122L118.508 37.621V44.6913H115.68V32.9298H119.021L122.28 41.0723L125.505 32.9298H128.83Z" fill="#3E3E3E"/>
<path d="M130.302 40.0001C130.302 39.0395 130.478 38.1962 130.831 37.4702C131.195 36.7441 131.686 36.1857 132.304 35.7947C132.921 35.4038 133.61 35.2083 134.371 35.2083C135.022 35.2083 135.59 35.3424 136.075 35.6104C136.571 35.8785 136.952 36.2303 137.216 36.666V35.3424H140.045V44.6913H137.216V43.3677C136.941 43.8033 136.555 44.1551 136.059 44.4232C135.573 44.6913 135.005 44.8253 134.355 44.8253C133.605 44.8253 132.921 44.6298 132.304 44.2389C131.686 43.8368 131.195 43.2727 130.831 42.5467C130.478 41.8095 130.302 40.9606 130.302 40.0001ZM137.216 40.0168C137.216 39.302 137.018 38.7379 136.621 38.3246C136.235 37.9114 135.761 37.7047 135.198 37.7047C134.636 37.7047 134.156 37.9114 133.759 38.3246C133.373 38.7267 133.18 39.2852 133.18 40.0001C133.18 40.7149 133.373 41.2846 133.759 41.709C134.156 42.1223 134.636 42.3289 135.198 42.3289C135.761 42.3289 136.235 42.1223 136.621 41.709C137.018 41.2957 137.216 40.7317 137.216 40.0168Z" fill="#3E3E3E"/>
<path d="M147.732 44.6913L144.92 40.7708V44.6913H142.091V32.2931H144.92V39.1456L147.716 35.3424H151.206L147.368 40.0336L151.239 44.6913H147.732Z" fill="#3E3E3E"/>
<path d="M157.461 42.2619V44.6913H156.022C154.997 44.6913 154.197 44.4399 153.624 43.9373C153.05 43.4235 152.764 42.5914 152.764 41.4409V37.7215H151.639V35.3424H152.764V33.0638H155.592V35.3424H157.445V37.7215H155.592V41.4744C155.592 41.7537 155.658 41.9547 155.791 42.0776C155.923 42.2005 156.144 42.2619 156.452 42.2619H157.461Z" fill="#3E3E3E"/>
<path d="M158.475 40.0001C158.475 39.0395 158.651 38.1962 159.004 37.4702C159.368 36.7441 159.858 36.1857 160.476 35.7947C161.094 35.4038 161.783 35.2083 162.544 35.2083C163.194 35.2083 163.762 35.3424 164.248 35.6104C164.744 35.8785 165.124 36.2303 165.389 36.666V35.3424H168.218V44.6913H165.389V43.3677C165.113 43.8033 164.727 44.1551 164.231 44.4232C163.746 44.6913 163.178 44.8253 162.527 44.8253C161.777 44.8253 161.094 44.6298 160.476 44.2389C159.858 43.8368 159.368 43.2727 159.004 42.5467C158.651 41.8095 158.475 40.9606 158.475 40.0001ZM165.389 40.0168C165.389 39.302 165.19 38.7379 164.793 38.3246C164.407 37.9114 163.933 37.7047 163.371 37.7047C162.808 37.7047 162.329 37.9114 161.932 38.3246C161.546 38.7267 161.353 39.2852 161.353 40.0001C161.353 40.7149 161.546 41.2846 161.932 41.709C162.329 42.1223 162.808 42.3289 163.371 42.3289C163.933 42.3289 164.407 42.1223 164.793 41.709C165.19 41.2957 165.389 40.7317 165.389 40.0168Z" fill="#3E3E3E"/>
<path d="M173.093 36.666C173.357 36.2303 173.738 35.8785 174.234 35.6104C174.73 35.3424 175.298 35.2083 175.938 35.2083C176.699 35.2083 177.388 35.4038 178.005 35.7947C178.623 36.1857 179.108 36.7441 179.461 37.4702C179.825 38.1962 180.007 39.0395 180.007 40.0001C180.007 40.9606 179.825 41.8095 179.461 42.5467C179.108 43.2727 178.623 43.8368 178.005 44.2389C177.388 44.6298 176.699 44.8253 175.938 44.8253C175.287 44.8253 174.719 44.6968 174.234 44.4399C173.749 44.1719 173.368 43.82 173.093 43.3844V44.6913H170.264V32.2931H173.093V36.666ZM177.129 40.0001C177.129 39.2852 176.93 38.7267 176.533 38.3246C176.147 37.9114 175.668 37.7047 175.094 37.7047C174.532 37.7047 174.052 37.9114 173.655 38.3246C173.269 38.7379 173.076 39.302 173.076 40.0168C173.076 40.7317 173.269 41.2957 173.655 41.709C174.052 42.1223 174.532 42.3289 175.094 42.3289C175.656 42.3289 176.136 42.1223 176.533 41.709C176.93 41.2846 177.129 40.7149 177.129 40.0001Z" fill="#3E3E3E"/>
<path d="M182.913 34.3706C182.417 34.3706 182.009 34.2254 181.689 33.935C181.381 33.6334 181.226 33.2648 181.226 32.8292C181.226 32.3824 181.381 32.0139 181.689 31.7234C182.009 31.4219 182.417 31.2711 182.913 31.2711C183.399 31.2711 183.796 31.4219 184.104 31.7234C184.424 32.0139 184.584 32.3824 184.584 32.8292C184.584 33.2648 184.424 33.6334 184.104 33.935C183.796 34.2254 183.399 34.3706 182.913 34.3706ZM184.32 35.3424V44.6913H181.491V35.3424H184.32Z" fill="#3E3E3E"/>
<path d="M57.0599 7.53422V8.41209H54.8023V15.8029H53.7211V8.41209H51.4517V7.53422H57.0599Z" fill="#3E3E3E"/>
<path d="M61.2306 15.9096C60.6206 15.9096 60.0661 15.7712 59.5671 15.4944C59.076 15.2176 58.6879 14.8261 58.4027 14.32C58.1254 13.8059 57.9868 13.2127 57.9868 12.5405C57.9868 11.8761 58.1294 11.2909 58.4146 10.7847C58.7077 10.2707 59.1037 9.87918 59.6027 9.61028C60.1018 9.33347 60.6602 9.19506 61.2781 9.19506C61.8959 9.19506 62.4544 9.33347 62.9534 9.61028C63.4524 9.87918 63.8445 10.2667 64.1297 10.7729C64.4228 11.279 64.5693 11.8682 64.5693 12.5405C64.5693 13.2127 64.4188 13.8059 64.1178 14.32C63.8247 14.8261 63.4247 15.2176 62.9178 15.4944C62.4108 15.7712 61.8484 15.9096 61.2306 15.9096ZM61.2306 14.9606C61.6187 14.9606 61.9831 14.8696 62.3237 14.6877C62.6643 14.5058 62.9376 14.233 63.1435 13.8692C63.3574 13.5054 63.4643 13.0625 63.4643 12.5405C63.4643 12.0185 63.3614 11.5756 63.1554 11.2118C62.9494 10.848 62.6801 10.5791 62.3474 10.4051C62.0147 10.2232 61.6543 10.1323 61.2662 10.1323C60.8701 10.1323 60.5058 10.2232 60.1731 10.4051C59.8483 10.5791 59.5869 10.848 59.3889 11.2118C59.1908 11.5756 59.0918 12.0185 59.0918 12.5405C59.0918 13.0704 59.1869 13.5172 59.377 13.881C59.575 14.2448 59.8364 14.5177 60.1612 14.6996C60.486 14.8736 60.8424 14.9606 61.2306 14.9606Z" fill="#3E3E3E"/>
<path d="M68.296 15.9096C67.797 15.9096 67.3495 15.8266 66.9534 15.6605C66.5573 15.4865 66.2444 15.2493 66.0147 14.9487C65.785 14.6403 65.6583 14.2883 65.6345 13.8929H66.7514C66.7831 14.2172 66.9336 14.4821 67.2029 14.6877C67.4802 14.8934 67.8406 14.9962 68.2842 14.9962C68.6961 14.9962 69.0208 14.9052 69.2585 14.7233C69.4961 14.5414 69.6149 14.3121 69.6149 14.0353C69.6149 13.7505 69.4882 13.541 69.2347 13.4065C68.9812 13.2641 68.5891 13.1257 68.0584 12.9913C67.5752 12.8647 67.1791 12.7382 66.8702 12.6117C66.5692 12.4772 66.3078 12.2835 66.086 12.0304C65.8722 11.7694 65.7652 11.4293 65.7652 11.0101C65.7652 10.678 65.8642 10.3735 66.0623 10.0967C66.2603 9.81986 66.5415 9.60237 66.9059 9.44419C67.2702 9.27811 67.6861 9.19506 68.1535 9.19506C68.8743 9.19506 69.4565 9.37697 69.9001 9.74077C70.3437 10.1046 70.5813 10.6028 70.613 11.2355H69.5317C69.508 10.8955 69.3694 10.6226 69.1159 10.417C68.8703 10.2113 68.5376 10.1085 68.1178 10.1085C67.7297 10.1085 67.4207 10.1916 67.191 10.3577C66.9613 10.5237 66.8465 10.7412 66.8465 11.0101C66.8465 11.2237 66.9138 11.4016 67.0484 11.544C67.191 11.6784 67.3653 11.7892 67.5712 11.8761C67.7851 11.9552 68.0782 12.0462 68.4505 12.149C68.9178 12.2755 69.2981 12.4021 69.5911 12.5286C69.8842 12.6473 70.1337 12.8292 70.3397 13.0743C70.5536 13.3195 70.6645 13.6398 70.6724 14.0353C70.6724 14.3911 70.5734 14.7115 70.3753 14.9962C70.1773 15.2809 69.8961 15.5063 69.5317 15.6724C69.1753 15.8306 68.7634 15.9096 68.296 15.9096Z" fill="#3E3E3E"/>
<path d="M75.4306 9.1832C75.9217 9.1832 76.3653 9.28997 76.7613 9.50351C77.1574 9.70914 77.4663 10.0215 77.6881 10.4407C77.9178 10.8599 78.0327 11.37 78.0327 11.9711V15.8029H76.9633V12.1253C76.9633 11.4768 76.8009 10.9825 76.4762 10.6424C76.1514 10.2944 75.7078 10.1204 75.1454 10.1204C74.5751 10.1204 74.1196 10.2983 73.779 10.6542C73.4463 11.0101 73.28 11.5282 73.28 12.2083V15.8029H72.1987V7.0241H73.28V10.2272C73.4938 9.89499 73.7869 9.63796 74.1592 9.45605C74.5394 9.27415 74.9632 9.1832 75.4306 9.1832Z" fill="#3E3E3E"/>
<path d="M83.4347 15.8029L80.8801 12.932V15.8029H79.7989V7.0241H80.8801V12.1846L83.3872 9.30183H84.8962L81.8307 12.5405L84.9081 15.8029H83.4347Z" fill="#3E3E3E"/>
<path d="M91.8547 12.3032C91.8547 12.5089 91.8428 12.7263 91.8191 12.9557H86.6149C86.6545 13.5963 86.8723 14.0985 87.2684 14.4623C87.6723 14.8182 88.1595 14.9962 88.7298 14.9962C89.1972 14.9962 89.5853 14.8894 89.8942 14.6759C90.2111 14.4544 90.4329 14.1618 90.5596 13.798H91.724C91.5498 14.4228 91.2012 14.9329 90.6784 15.3283C90.1556 15.7159 89.5061 15.9096 88.7298 15.9096C88.112 15.9096 87.5575 15.7712 87.0664 15.4944C86.5832 15.2176 86.203 14.8261 85.9257 14.32C85.6485 13.8059 85.5099 13.2127 85.5099 12.5405C85.5099 11.8682 85.6445 11.279 85.9138 10.7729C86.1832 10.2667 86.5594 9.87918 87.0426 9.61028C87.5337 9.33347 88.0961 9.19506 88.7298 9.19506C89.3477 9.19506 89.8942 9.32951 90.3695 9.59841C90.8448 9.86731 91.2092 10.239 91.4626 10.7136C91.724 11.1802 91.8547 11.7101 91.8547 12.3032ZM90.7378 12.0778C90.7378 11.6666 90.6467 11.3146 90.4646 11.022C90.2824 10.7215 90.0329 10.4961 89.716 10.3458C89.4071 10.1876 89.0625 10.1085 88.6823 10.1085C88.1357 10.1085 87.6684 10.2825 87.2802 10.6305C86.9 10.9785 86.6822 11.4609 86.6267 12.0778H90.7378Z" fill="#3E3E3E"/>
<path d="M96.4544 9.1832C97.2465 9.1832 97.8881 9.42442 98.3792 9.90686C98.8703 10.3814 99.1159 11.0695 99.1159 11.9711V15.8029H98.0465V12.1253C98.0465 11.4768 97.8841 10.9825 97.5594 10.6424C97.2346 10.2944 96.791 10.1204 96.2286 10.1204C95.6583 10.1204 95.2028 10.2983 94.8622 10.6542C94.5295 11.0101 94.3632 11.5282 94.3632 12.2083V15.8029H93.2819V9.30183H94.3632V10.2272C94.577 9.89499 94.8662 9.63796 95.2305 9.45605C95.6028 9.27415 96.0108 9.1832 96.4544 9.1832Z" fill="#3E3E3E"/>
<path d="M102.201 10.1916V14.0234C102.201 14.3397 102.268 14.5651 102.403 14.6996C102.538 14.8261 102.771 14.8894 103.104 14.8894H103.9V15.8029H102.926C102.324 15.8029 101.872 15.6645 101.571 15.3877C101.27 15.1109 101.12 14.6561 101.12 14.0234V10.1916H100.276V9.30183H101.12V7.66471H102.201V9.30183H103.9V10.1916H102.201Z" fill="#3E3E3E"/>
<path d="M111.004 15.8859C110.457 15.8859 109.966 15.791 109.53 15.6012C109.103 15.4035 108.766 15.1346 108.52 14.7945C108.275 14.4465 108.148 14.0471 108.14 13.5963H109.293C109.332 13.9838 109.491 14.3121 109.768 14.581C110.053 14.842 110.465 14.9724 111.004 14.9724C111.519 14.9724 111.923 14.8459 112.216 14.5928C112.517 14.3318 112.667 13.9997 112.667 13.5963C112.667 13.28 112.58 13.0229 112.406 12.8252C112.231 12.6275 112.014 12.4772 111.752 12.3744C111.491 12.2716 111.138 12.1609 110.695 12.0422C110.148 11.8999 109.709 11.7575 109.376 11.6152C109.051 11.4728 108.77 11.2514 108.532 10.9508C108.303 10.6424 108.188 10.2311 108.188 9.71705C108.188 9.26624 108.303 8.86685 108.532 8.51886C108.762 8.17087 109.083 7.90197 109.495 7.71216C109.915 7.52235 110.394 7.42745 110.932 7.42745C111.709 7.42745 112.342 7.62121 112.833 8.00874C113.333 8.39628 113.614 8.91035 113.677 9.55096H112.489C112.449 9.23461 112.283 8.9578 111.99 8.72054C111.697 8.47536 111.309 8.35278 110.825 8.35278C110.374 8.35278 110.006 8.47141 109.72 8.70867C109.435 8.93803 109.293 9.26229 109.293 9.68146C109.293 9.98199 109.376 10.2272 109.542 10.417C109.717 10.6068 109.926 10.7531 110.172 10.8559C110.425 10.9508 110.778 11.0615 111.229 11.1881C111.776 11.3384 112.216 11.4886 112.548 11.6389C112.881 11.7812 113.166 12.0066 113.404 12.3151C113.641 12.6156 113.76 13.0269 113.76 13.5489C113.76 13.9522 113.653 14.3318 113.439 14.6877C113.226 15.0436 112.909 15.3323 112.489 15.5537C112.069 15.7752 111.574 15.8859 111.004 15.8859Z" fill="#3E3E3E"/>
<path d="M118.583 9.1832C119.074 9.1832 119.518 9.28997 119.914 9.50351C120.31 9.70914 120.619 10.0215 120.841 10.4407C121.071 10.8599 121.185 11.37 121.185 11.9711V15.8029H120.116V12.1253C120.116 11.4768 119.954 10.9825 119.629 10.6424C119.304 10.2944 118.86 10.1204 118.298 10.1204C117.728 10.1204 117.272 10.2983 116.932 10.6542C116.599 11.0101 116.433 11.5282 116.433 12.2083V15.8029H115.351V7.0241H116.433V10.2272C116.647 9.89499 116.94 9.63796 117.312 9.45605C117.692 9.27415 118.116 9.1832 118.583 9.1832Z" fill="#3E3E3E"/>
<path d="M122.548 12.5286C122.548 11.8643 122.682 11.283 122.952 10.7847C123.221 10.2786 123.589 9.88708 124.057 9.61028C124.532 9.33347 125.059 9.19506 125.637 9.19506C126.207 9.19506 126.702 9.31765 127.122 9.56282C127.542 9.808 127.855 10.1164 128.061 10.4882V9.30183H129.154V15.8029H128.061V14.5928C127.847 14.9724 127.526 15.2888 127.098 15.5419C126.678 15.7871 126.187 15.9096 125.625 15.9096C125.047 15.9096 124.524 15.7673 124.057 15.4826C123.589 15.1978 123.221 14.7985 122.952 14.2844C122.682 13.7703 122.548 13.1851 122.548 12.5286ZM128.061 12.5405C128.061 12.0501 127.962 11.6231 127.764 11.2593C127.566 10.8955 127.296 10.6186 126.956 10.4288C126.623 10.2311 126.255 10.1323 125.851 10.1323C125.447 10.1323 125.078 10.2272 124.746 10.417C124.413 10.6068 124.148 10.8836 123.95 11.2474C123.752 11.6112 123.653 12.0383 123.653 12.5286C123.653 13.0269 123.752 13.4619 123.95 13.8336C124.148 14.1974 124.413 14.4781 124.746 14.6759C125.078 14.8657 125.447 14.9606 125.851 14.9606C126.255 14.9606 126.623 14.8657 126.956 14.6759C127.296 14.4781 127.566 14.1974 127.764 13.8336C127.962 13.4619 128.061 13.0308 128.061 12.5405Z" fill="#3E3E3E"/>
<path d="M134.213 9.1832C134.704 9.1832 135.148 9.28997 135.544 9.50351C135.94 9.70914 136.249 10.0215 136.47 10.4407C136.7 10.8599 136.815 11.37 136.815 11.9711V15.8029H135.746V12.1253C135.746 11.4768 135.583 10.9825 135.259 10.6424C134.934 10.2944 134.49 10.1204 133.928 10.1204C133.357 10.1204 132.902 10.2983 132.561 10.6542C132.229 11.0101 132.062 11.5282 132.062 12.2083V15.8029H130.981V7.0241H132.062V10.2272C132.276 9.89499 132.569 9.63796 132.942 9.45605C133.322 9.27415 133.746 9.1832 134.213 9.1832Z" fill="#3E3E3E"/>
<path d="M138.177 12.5286C138.177 11.8643 138.312 11.283 138.581 10.7847C138.851 10.2786 139.219 9.88708 139.686 9.61028C140.162 9.33347 140.688 9.19506 141.267 9.19506C141.837 9.19506 142.332 9.31765 142.752 9.56282C143.172 9.808 143.484 10.1164 143.69 10.4882V9.30183H144.784V15.8029H143.69V14.5928C143.477 14.9724 143.156 15.2888 142.728 15.5419C142.308 15.7871 141.817 15.9096 141.255 15.9096C140.676 15.9096 140.154 15.7673 139.686 15.4826C139.219 15.1978 138.851 14.7985 138.581 14.2844C138.312 13.7703 138.177 13.1851 138.177 12.5286ZM143.69 12.5405C143.69 12.0501 143.591 11.6231 143.393 11.2593C143.195 10.8955 142.926 10.6186 142.585 10.4288C142.253 10.2311 141.884 10.1323 141.48 10.1323C141.076 10.1323 140.708 10.2272 140.375 10.417C140.043 10.6068 139.777 10.8836 139.579 11.2474C139.381 11.6112 139.282 12.0383 139.282 12.5286C139.282 13.0269 139.381 13.4619 139.579 13.8336C139.777 14.1974 140.043 14.4781 140.375 14.6759C140.708 14.8657 141.076 14.9606 141.48 14.9606C141.884 14.9606 142.253 14.8657 142.585 14.6759C142.926 14.4781 143.195 14.1974 143.393 13.8336C143.591 13.4619 143.69 13.0308 143.69 12.5405Z" fill="#3E3E3E"/>
<path d="M147.692 10.3577C147.882 9.98594 148.151 9.69727 148.5 9.49164C148.856 9.28602 149.288 9.1832 149.795 9.1832V10.2983H149.51C148.298 10.2983 147.692 10.9548 147.692 12.2676V15.8029H146.611V9.30183H147.692V10.3577Z" fill="#3E3E3E"/>
<path fill-rule="evenodd" clip-rule="evenodd" d="M33.0306 6.72679V1H32.191C29.6781 1 27.6295 1.09935 25.5174 1.70912C23.5053 2.29005 21.4871 3.31832 18.9605 5.0769C16.4874 3.345 14.5046 2.32834 12.5268 1.75173C10.4331 1.14134 8.40244 1.042 5.91367 1.042L5.07408 1.042V6.76853L1 6.64381V29.0975H1.8396C6.82885 29.0975 11.7978 29.5332 18.2537 32.7048V34.7628C17.476 34.0933 16.3823 33.5915 14.8953 33.5915H8.8922V40.6473C8.8922 41.6884 9.50263 42.74 10.2558 43.4935C11.0169 44.255 12.0995 44.8893 13.2581 44.8893H18.2537V51H19.9329V32.563C26.3527 29.4821 31.3192 29.0555 36.305 29.0555H37.1446V6.60207L33.0306 6.72679ZM12.057 3.36462C13.8227 3.87939 15.6609 4.80807 18.0862 6.51543V26.302C15.2151 24.7033 11.9238 23.3128 6.75327 23.3286V2.72673C8.8016 2.75196 10.4207 2.88757 12.057 3.36462ZM5.94071 25.0232C11.8118 24.8339 15.1071 26.4939 18.2537 28.3331V30.8418C12.2072 28.011 7.36986 27.4736 2.67919 27.422V8.37598L5.07408 8.44929V25.0511L5.94071 25.0232ZM35.4654 27.3799C30.7788 27.4304 25.9483 27.9556 19.9329 30.7079V28.1716C23.0487 26.381 26.3618 24.7959 32.1642 24.9812L33.0306 25.0088V8.40754L35.4654 8.33372V27.3799ZM31.3514 23.2866C26.1199 23.2693 22.7944 24.6641 19.8909 26.2668V6.47587C22.3405 4.76812 24.1979 3.83859 25.983 3.32323C27.6395 2.84498 29.2784 2.7096 31.3514 2.68463V23.2866ZM14.8953 35.2714C17.0849 35.2714 17.9721 36.82 18.1697 37.6314V43.2093H13.2581C12.6955 43.2093 12.0149 42.8776 11.4432 42.3056C10.8635 41.7257 10.5714 41.0763 10.5714 40.6473V35.2714H14.8953Z" fill="#FF2059"/>
<path d="M4.57408 6.25299L1.0153 6.14404C0.880102 6.1399 0.748995 6.19072 0.651898 6.28489C0.554801 6.37906 0.5 6.50855 0.5 6.64381V29.0975C0.5 29.3737 0.723858 29.5975 1 29.5975H1.8396C6.71068 29.5975 11.5256 30.0145 17.7537 33.0175V33.8024C16.9915 33.3708 16.0458 33.0915 14.8953 33.0915H8.8922C8.61605 33.0915 8.3922 33.3153 8.3922 33.5915V40.6473C8.3922 41.8708 9.0977 43.0421 9.90218 43.847C10.7193 44.6645 11.9216 45.3893 13.2581 45.3893H17.7537V51C17.7537 51.2761 17.9775 51.5 18.2537 51.5H19.9329C20.209 51.5 20.4329 51.2761 20.4329 51V32.879C26.6248 29.9639 31.4373 29.5555 36.305 29.5555H37.1446C37.4207 29.5555 37.6446 29.3317 37.6446 29.0555V6.60207C37.6446 6.46683 37.5898 6.33736 37.4927 6.2432C37.3957 6.14903 37.2646 6.0982 37.1294 6.1023L33.5306 6.2114V1C33.5306 0.723858 33.3067 0.5 33.0306 0.5H32.191C29.6691 0.5 27.5617 0.598506 25.3787 1.22874C23.3752 1.80717 21.3845 2.80986 18.9613 4.46875C16.5908 2.8365 14.6355 1.8457 12.6667 1.27171C10.5015 0.640479 8.4116 0.542 5.91367 0.541999L5.07408 0.541999C4.94147 0.541999 4.81429 0.594678 4.72052 0.688446C4.62675 0.782214 4.57408 0.909391 4.57408 1.042V6.25299ZM5.95683 25.5229C11.5441 25.3428 14.7246 26.8655 17.7537 28.6206V30.0635C12.1623 27.5708 7.58008 27.0114 3.17919 26.9293V8.89152L4.57408 8.93422V25.0511C4.57408 25.1865 4.62899 25.3161 4.72627 25.4103C4.82354 25.5045 4.95486 25.5552 5.09019 25.5508L5.95683 25.5229ZM33.5306 25.0088V8.89261L34.9654 8.84911V26.8871C30.57 26.9673 25.9961 27.5135 20.4329 29.937V28.4617C23.4292 26.7582 26.6264 25.3046 32.1482 25.4809L33.0146 25.5086C33.1499 25.5129 33.2812 25.4622 33.3784 25.368C33.4757 25.2738 33.5306 25.1442 33.5306 25.0088ZM11.9171 3.84464C13.5619 4.32417 15.294 5.18303 17.5862 6.77586V25.462C14.9262 24.0606 11.8163 22.8977 7.25327 22.8315V3.23553C9.04347 3.27681 10.4779 3.42505 11.9171 3.84464ZM30.8514 3.19322V22.7893C26.228 22.8537 23.083 24.0227 20.3909 25.4301V6.73776C22.7065 5.14423 24.4575 4.28406 26.1217 3.80361C27.5815 3.38215 29.0361 3.23409 30.8514 3.19322ZM14.8953 35.7714C16.7335 35.7714 17.482 37.0165 17.6697 37.6951V42.7093H13.2581C12.8725 42.7093 12.3116 42.4672 11.7968 41.9521C11.2694 41.4245 11.0714 40.8948 11.0714 40.6473V35.7714H14.8953Z" stroke="white" stroke-opacity="0.44" stroke-linejoin="round"/>
</svg>
